aileron_light.sfdir

StartChar: exclam
Encoding: 33 33 249
Width: 227
Flags: MW
HStem: -14 95<100 127.5> 670 20G<76 151 151 151>
VStem: 66 95<20 47.5> 80.5 66
LayerCount: 2
Fore
SplineSet
142 154 m 1xd0
 85 154 l 1
 76 690 l 1
 151 690 l 1
 142 154 l 1xd0
114 81 m 0xe0
 141 81 161 61 161 34 c 0
 161 6 141 -14 114 -14 c 0
 86 -14 66 6 66 34 c 0
 66 61 86 81 114 81 c 0xe0
EndSplineSet
EndChar

StartChar: quotedbl
Encoding: 34 34 256
Width: 268
Flags: MW
HStem: 487 248<69 119 69 69 184 184 184 233>
VStem: 65.5 57 180 57
LayerCount: 2
Fore
SplineSet
119 487 m 1
 69 487 l 1
 62 735 l 1
 126 735 l 1
 119 487 l 1
233 487 m 1
 184 487 l 1
 176 735 l 1
 241 735 l 1
 233 487 l 1
EndSplineSet
EndChar

StartChar: numbersign
Encoding: 35 35 251
Width: 561
Flags: MW
HStem: 0 21G<114 158 114 114 256 301 256 256> 229 43<64 163 64 172 216 305 64 207 359 467> 418 43<94 203 94 212 94 247 256 345 399 497> 670 20G<261 305 305 305 403 448 448 448>
VStem: 64 433<229 461 272 461>
LayerCount: 2
Fore
SplineSet
390 418 m 1
 359 272 l 1
 467 272 l 1
 467 229 l 1
 350 229 l 1
 301 0 l 1
 256 0 l 1
 305 229 l 1
 207 229 l 1
 158 0 l 1
 114 0 l 1
 163 229 l 1
 64 229 l 1
 64 272 l 1
 172 272 l 1
 203 418 l 1
 94 418 l 1
 94 461 l 1
 212 461 l 1
 261 690 l 1
 305 690 l 1
 256 461 l 1
 354 461 l 1
 403 690 l 1
 448 690 l 1
 399 461 l 1
 497 461 l 1
 497 418 l 1
 390 418 l 1
345 418 m 1
 247 418 l 1
 216 272 l 1
 314 272 l 1
 345 418 l 1
EndSplineSet
EndChar

StartChar: dollar
Encoding: 36 36 283
Width: 561
Flags: MW
HStem: -13 50<266 266 266 310> 653 50<266 266 266 310>
VStem: 80 66<484.5 562.5 484.5 571> 266 44<-90 -13 -90 -13 37 312 388 653 703 780> 438 66<511 511> 441 67<126 199.5>
LayerCount: 2
Fore
SplineSet
508 171 m 0xf4
 508 68 428 -4 310 -13 c 1
 310 -90 l 1
 266 -90 l 1
 266 -13 l 1
 147 -7 61 63 53 184 c 1
 118 184 l 1
 129 99 183 46 266 37 c 1
 266 320 l 1
 158 350 80 400 80 516 c 0
 80 626 160 693 266 703 c 1
 266 780 l 1
 310 780 l 1
 310 703 l 1
 430 696 492 612 504 511 c 1
 438 511 l 1xf8
 429 593 387 646 310 653 c 1
 310 381 l 1
 448 338 508 274 508 171 c 0xf4
146 524 m 0
 146 445 191 411 266 388 c 1
 266 653 l 1
 197 644 146 601 146 524 c 0
310 312 m 1
 310 37 l 1
 390 43 441 88 441 164 c 0
 441 235 403 282 310 312 c 1
EndSplineSet
EndChar

StartChar: percent
Encoding: 37 37 303
Width: 725
Flags: MW
HStem: -14 45<507.5 556.5 507.5 575> 0 21G<107 171 107 107> 259 45<507.5 556.5> 384 45<168.5 217.5 168.5 236> 656 46<168.5 217.5> 670 20G<554 619 619 619>
VStem: 52 62<508 578.5 508 590.5> 272 61<508 578.5> 391 62<110 180.5 110 192.5> 611 61<110 180.5>
LayerCount: 2
Fore
SplineSet
193 702 m 0xbbc0
 279 702 333 638 333 543 c 0
 333 449 279 384 193 384 c 0
 107 384 52 449 52 543 c 0
 52 638 107 702 193 702 c 0xbbc0
171 0 m 1x77c0
 107 0 l 1
 554 690 l 1
 619 690 l 1
 171 0 l 1x77c0
193 656 m 0xbbc0
 144 656 114 614 114 543 c 0
 114 473 144 429 193 429 c 0
 242 429 272 473 272 543 c 0
 272 614 242 656 193 656 c 0xbbc0
532 304 m 0
 618 304 672 240 672 145 c 0
 672 51 618 -14 532 -14 c 0
 446 -14 391 51 391 145 c 0
 391 240 446 304 532 304 c 0
532 259 m 0
 483 259 453 216 453 145 c 0
 453 75 483 31 532 31 c 0
 581 31 611 75 611 145 c 0
 611 216 581 259 532 259 c 0
EndSplineSet
EndChar

StartChar: ampersand
Encoding: 38 38 311
Width: 649
Flags: MW
HStem: -14 50<271.5 358.5 271.5 365> 322 52<368 457 379 457 519 621> 654 50<282.5 356.5> 674 20G<455 455>
VStem: 66 69<123.5 213.5> 98 69<464 556.5 459 567> 457 62<46 322 5 322 374 501>
LayerCount: 2
Fore
SplineSet
621 374 m 1xea
 621 322 l 1
 519 322 l 1
 519 5 l 1
 462 -7 394 -14 336 -14 c 0
 175 -14 66 25 66 167 c 0xea
 66 260 133 331 236 349 c 1
 157 365 98 418 98 510 c 0
 98 624 195 704 335 704 c 0xe6
 384 704 417 701 455 694 c 1xda
 455 643 l 1
 414 651 381 654 332 654 c 0
 233 654 167 600 167 513 c 0xe6
 167 405 241 379 317 375 c 0
 336 374 357 374 379 374 c 2
 457 374 l 1
 457 501 l 1
 519 501 l 1
 519 374 l 1
 621 374 l 1xea
135 176 m 0
 135 71 205 36 338 36 c 0
 379 36 418 39 457 46 c 1
 457 322 l 1
 379 322 l 2
 357 322 338 322 318 320 c 0
 203 310 135 262 135 176 c 0
EndSplineSet
EndChar

StartChar: quotesingle
Encoding: 39 39 257
Width: 139
Flags: MW
HStem: 715 20G<35 99 99 99>
VStem: 38.5 57
LayerCount: 2
Fore
SplineSet
92 487 m 1
 42 487 l 1
 35 735 l 1
 99 735 l 1
 92 487 l 1
EndSplineSet
EndChar

StartChar: parenleft
Encoding: 40 40 265
Width: 307
Flags: MW
HStem: -80 860<227 272 227 272>
VStem: 108 48<273 427 273 429>
LayerCount: 2
Fore
SplineSet
227 780 m 1
 272 780 l 1
 198 658 156 504 156 350 c 0
 156 196 198 42 272 -80 c 1
 227 -80 l 1
 154 30 108 192 108 350 c 0
 108 508 154 670 227 780 c 1
EndSplineSet
EndChar

StartChar: parenright
Encoding: 41 41 266
Width: 307
Flags: MW
HStem: -80 860<32 76 32 76>
VStem: 147 48<273 427>
LayerCount: 2
Fore
SplineSet
32 780 m 1
 76 780 l 1
 149 670 195 508 195 350 c 0
 195 192 149 30 76 -80 c 1
 32 -80 l 1
 105 42 147 196 147 350 c 0
 147 504 105 658 32 780 c 1
EndSplineSet
EndChar

StartChar: asterisk
Encoding: 42 42 243
Width: 549
Flags: MW
HStem: 89 386<172 298 251 377>
VStem: 254.5 40
LayerCount: 2
Fore
SplineSet
291 290 m 1
 447 350 l 1
 462 304 l 1
 303 259 l 1
 416 117 l 1
 377 89 l 1
 274 242 l 1
 172 89 l 1
 133 117 l 1
 246 259 l 1
 87 304 l 1
 101 350 l 1
 258 290 l 1
 251 475 l 1
 298 475 l 1
 291 290 l 1
EndSplineSet
EndChar

StartChar: plus
Encoding: 43 43 305
Width: 561
Flags: MW
HStem: 295 42<74 258 74 258 303 487>
VStem: 258 45<86 295 86 295 337 549>
LayerCount: 2
Fore
SplineSet
487 295 m 1
 303 295 l 1
 303 86 l 1
 258 86 l 1
 258 295 l 1
 74 295 l 1
 74 337 l 1
 258 337 l 1
 258 549 l 1
 303 549 l 1
 303 337 l 1
 487 337 l 1
 487 295 l 1
EndSplineSet
EndChar

StartChar: hyphen
Encoding: 45 45 269
Width: 274
Flags: MW
HStem: 261 43<32 242 32 242>
VStem: 32 210<261 304 261 304>
LayerCount: 2
Fore
SplineSet
242 261 m 1
 32 261 l 1
 32 304 l 1
 242 304 l 1
 242 261 l 1
EndSplineSet
EndChar

StartChar: period
Encoding: 46 46 252
Width: 194
Flags: MW
HStem: -14 95<72 99.5>
VStem: 38 95<20 47.5>
LayerCount: 2
Fore
SplineSet
86 81 m 0
 113 81 133 61 133 34 c 0
 133 6 113 -14 86 -14 c 0
 58 -14 38 6 38 34 c 0
 38 61 58 81 86 81 c 0
EndSplineSet
EndChar

StartChar: slash
Encoding: 47 47 259
Width: 288
Flags: MW
HStem: -30 750<-5 293 -5 293>
VStem: -5 298
LayerCount: 2
Fore
SplineSet
42 -30 m 1
 -5 -30 l 1
 246 720 l 1
 293 720 l 1
 42 -30 l 1
EndSplineSet
EndChar

StartChar: zero
Encoding: 48 48 232
Width: 561
Flags: MW
HStem: -14 50<218 344 218 371> 654 50<218 344>
VStem: 39 69<253 437.5 253 447.5> 453 69<253 437>
LayerCount: 2
Fore
SplineSet
281 704 m 0
 461 704 522 549 522 345 c 0
 522 141 461 -14 281 -14 c 0
 100 -14 39 141 39 345 c 0
 39 550 100 704 281 704 c 0
281 36 m 0
 407 36 453 161 453 345 c 0
 453 529 407 654 281 654 c 0
 155 654 108 530 108 345 c 0
 108 161 155 36 281 36 c 0
EndSplineSet
EndChar

StartChar: one
Encoding: 49 49 233
Width: 561
Flags: MW
HStem: 0 21G<323 385 323 323> 670 20G
VStem: 323 62<0 625 625 625>
LayerCount: 2
Fore
SplineSet
385 690 m 1
 385 0 l 1
 323 0 l 1
 323 625 l 1
 133 509 l 1
 133 576 l 1
 284 670 l 2
 309 686 327 690 346 690 c 2
 385 690 l 1
EndSplineSet
EndChar

StartChar: two
Encoding: 50 50 234
Width: 561
Flags: MW
HStem: 0 52<144 507 144 507> 654 50<250 343.5>
VStem: 74.5 62 438 69<473 548.5>
LayerCount: 2
Fore
SplineSet
144 52 m 1
 507 52 l 1
 507 0 l 1
 53 0 l 1
 53 37 l 1
 298 283 l 2
 399 384 438 437 438 509 c 0
 438 588 390 654 297 654 c 0
 203 654 148 592 137 489 c 2
 136 479 l 1
 74 479 l 1
 75 489 l 2
 89 626 175 704 304 704 c 0
 440 704 507 618 507 515 c 0
 507 423 453 354 336 240 c 2
 144 52 l 1
EndSplineSet
EndChar

StartChar: three
Encoding: 51 51 235
Width: 561
Flags: MW
HStem: -14 50<233.5 329.5 233.5 342> 325 52<250 267 250 267> 654 50<253 335>
VStem: 45.5 62 74.5 62 434 69<489.5 564.5> 448 69<138.5 228>
LayerCount: 2
Fore
SplineSet
372 363 m 1xf2
 462 342 517 284 517 189 c 0
 517 62 407 -14 277 -14 c 0
 150 -14 61 50 46 194 c 2
 45 204 l 1
 107 204 l 1
 108 194 l 2
 118 93 185 36 282 36 c 0
 377 36 448 91 448 186 c 0xf2
 448 270 392 325 267 325 c 2
 250 325 l 1
 250 377 l 1
 267 377 l 2
 353 377 434 429 434 523 c 0
 434 606 375 654 295 654 c 0
 211 654 146 602 137 504 c 2
 136 494 l 1
 74 494 l 1
 75 504 l 2
 87 629 173 704 302 704 c 0
 428 704 503 632 503 530 c 0xec
 503 449 449 384 372 363 c 1xf2
EndSplineSet
EndChar

StartChar: four
Encoding: 52 52 236
Width: 561
Flags: MW
HStem: 0 21G<378 440 378 378> 184 51<108 378 108 378 440 532> 670 20G<380 440 440 440>
VStem: 378 62<0 184 0 184 235 607 607 607>
LayerCount: 2
Fore
SplineSet
532 184 m 1
 440 184 l 1
 440 0 l 1
 378 0 l 1
 378 184 l 1
 29 184 l 1
 29 217 l 1
 380 690 l 1
 440 690 l 1
 440 235 l 1
 532 235 l 1
 532 184 l 1
378 235 m 1
 378 607 l 1
 359 578 337 544 309 505 c 2
 108 235 l 1
 378 235 l 1
EndSplineSet
EndChar

StartChar: five
Encoding: 53 53 237
Width: 561
Flags: MW
HStem: -14 50<231 324.5 231 341> 396 50<271 335> 637 52<171 497 171 171>
VStem: 54.5 62.5 447 69<156.5 270.5>
LayerCount: 2
Fore
SplineSet
295 446 m 0
 440 446 516 348 516 219 c 0
 516 71 404 -14 278 -14 c 0
 156 -14 69 49 55 181 c 2
 54 191 l 1
 116 191 l 1
 118 181 l 1
 132 95 184 36 278 36 c 0
 371 36 447 98 447 215 c 0
 447 326 384 396 286 396 c 0
 215 396 162 366 126 291 c 1
 67 291 l 1
 121 689 l 1
 497 689 l 1
 497 637 l 1
 171 637 l 1
 131 363 l 1
 172 410 l 1
 208 434 247 446 295 446 c 0
EndSplineSet
EndChar

StartChar: six
Encoding: 54 54 238
Width: 561
Flags: MW
HStem: -14 50<229 330 229 348.5> 413 50<261.5 337> 654 50<246.5 336>
VStem: 43 66<340 340 340 447.5> 442 66.5 449 69<168 274.5>
LayerCount: 2
Fore
SplineSet
292 463 m 0xf4
 436 463 518 361 518 227 c 0xf4
 518 87 418 -14 279 -14 c 0
 132 -14 43 80 43 307 c 0
 43 588 155 704 301 704 c 0
 420 704 493 633 508 522 c 1
 509 512 l 1
 443 512 l 1
 441 522 l 2xf8
 423 610 376 654 296 654 c 0
 197 654 116 582 109 340 c 1
 141 397 l 1
 181 441 231 463 292 463 c 0xf4
280 36 m 0
 380 36 449 115 449 221 c 0
 449 328 392 413 282 413 c 0
 191 413 116 344 116 229 c 0
 116 121 178 36 280 36 c 0
EndSplineSet
EndChar

StartChar: seven
Encoding: 55 55 239
Width: 561
Flags: MW
HStem: 0 21G<104 171 104 104> 638 52<48 445 48 523>
VStem: 48 475<661 690 661 690 661 690>
LayerCount: 2
Fore
SplineSet
523 690 m 1
 523 661 l 1
 171 0 l 1
 104 0 l 1
 445 638 l 1
 48 638 l 1
 48 690 l 1
 523 690 l 1
EndSplineSet
EndChar

StartChar: eight
Encoding: 56 56 240
Width: 561
Flags: MW
HStem: -15 50<232.5 331.5 232.5 341.5> 333 50<244 330 244 341> 654 50<240 334.5>
VStem: 42 69<137 225 137 229> 74 67<482 557.5 476.5 575> 434 67<481.5 557.5> 450 69<137 225>
LayerCount: 2
Fore
SplineSet
382 362 m 1xf2
 463 340 519 273 519 186 c 0
 519 46 402 -15 281 -15 c 0
 150 -15 42 46 42 186 c 0xf2
 42 272 103 338 185 362 c 1
 119 385 74 443 74 521 c 0
 74 629 155 704 287 704 c 0
 422 704 501 629 501 521 c 0xec
 501 442 451 384 382 362 c 1xf2
141 519 m 0xec
 141 434 201 383 287 383 c 0
 373 383 434 434 434 519 c 0
 434 596 382 654 287 654 c 0
 193 654 141 596 141 519 c 0xec
283 35 m 0xf2
 380 35 450 90 450 184 c 0
 450 266 399 333 283 333 c 0
 167 333 111 266 111 184 c 0
 111 90 182 35 283 35 c 0xf2
EndSplineSet
EndChar

StartChar: nine
Encoding: 57 57 241
Width: 561
Flags: MW
HStem: -14 50<225 315 225 333.5> 227 50<224.5 299.5> 654 50<231.5 333>
VStem: 44 69<416 523 416 533> 453 65<350 350>
LayerCount: 2
Fore
SplineSet
282 704 m 0
 429 704 518 610 518 383 c 0
 518 106 406 -14 261 -14 c 0
 142 -14 69 57 54 168 c 1
 52 178 l 1
 118 178 l 1
 120 168 l 2
 138 80 185 36 265 36 c 0
 365 36 446 112 453 350 c 1
 420 293 l 1
 381 249 330 227 269 227 c 0
 126 227 44 329 44 463 c 0
 44 603 144 704 282 704 c 0
280 277 m 0
 370 277 446 347 446 462 c 0
 446 569 384 654 282 654 c 0
 181 654 113 576 113 470 c 0
 113 362 169 277 280 277 c 0
EndSplineSet
EndChar

StartChar: colon
Encoding: 58 58 246
Width: 194
Flags: MW
HStem: -14 95<72 99.5> 448 95<72 99.5>
VStem: 38 95<20 47.5 481.5 508.5>
LayerCount: 2
Fore
SplineSet
86 543 m 0
 113 543 133 522 133 495 c 0
 133 468 113 448 86 448 c 0
 58 448 38 468 38 495 c 0
 38 522 58 543 86 543 c 0
86 81 m 0
 113 81 133 61 133 34 c 0
 133 6 113 -14 86 -14 c 0
 58 -14 38 6 38 34 c 0
 38 61 58 81 86 81 c 0
EndSplineSet
EndChar

StartChar: semicolon
Encoding: 59 59 258
Width: 194
Flags: MW
HStem: -119 197<-20 113 -20 113> 448 95<72 99.5>
VStem: 38 95<481.5 508.5>
LayerCount: 2
Fore
SplineSet
86 543 m 0
 113 543 133 522 133 495 c 0
 133 468 113 448 86 448 c 0
 58 448 38 468 38 495 c 0
 38 522 58 543 86 543 c 0
114 68 m 1
 38 -119 l 1
 -20 -119 l 1
 46 78 l 1
 113 78 l 1
 114 68 l 1
EndSplineSet
EndChar

StartChar: less
Encoding: 60 60 296
Width: 561
Flags: MW
HStem: 41 448<492 492>
VStem: 91 48<266 266 266 290 266 290>
LayerCount: 2
Fore
SplineSet
492 437 m 1
 139 266 l 1
 492 94 l 1
 492 41 l 1
 91 240 l 1
 91 290 l 1
 492 489 l 1
 492 437 l 1
EndSplineSet
EndChar

StartChar: equal
Encoding: 61 61 291
Width: 561
Flags: MW
HStem: 198 43<71 491 71 491> 391 43<71 491 71 491>
VStem: 71 420<198 241 198 241 391 434 198 434>
LayerCount: 2
Fore
SplineSet
491 391 m 1
 71 391 l 1
 71 434 l 1
 491 434 l 1
 491 391 l 1
491 198 m 1
 71 198 l 1
 71 241 l 1
 491 241 l 1
 491 198 l 1
EndSplineSet
EndChar

StartChar: greater
Encoding: 62 62 292
Width: 561
Flags: MW
HStem: 41 448<64 64>
VStem: 417 48<265 265>
LayerCount: 2
Fore
SplineSet
465 290 m 1
 465 240 l 1
 64 41 l 1
 64 93 l 1
 417 265 l 1
 64 436 l 1
 64 489 l 1
 465 290 l 1
EndSplineSet
EndChar

StartChar: question
Encoding: 63 63 254
Width: 508
Flags: MW
HStem: -14 95<227.5 255> 654 50<213 299>
VStem: 41 64<494 494> 194 95<20 47.5> 210 62<154 154> 392 69<492 563>
LayerCount: 2
Fore
SplineSet
260 704 m 0xec
 390 704 461 624 461 523 c 0
 461 453 426 390 361 325 c 1
 289 255 274 222 272 154 c 1
 210 154 l 1
 215 232 231 269 302 345 c 0
 368 417 392 461 392 523 c 0
 392 603 340 654 258 654 c 0
 168 654 112 595 105 494 c 1
 41 494 l 1
 45 621 133 704 260 704 c 0xec
241 81 m 0xf4
 269 81 289 61 289 34 c 0
 289 6 269 -14 241 -14 c 0
 214 -14 194 6 194 34 c 0
 194 61 214 81 241 81 c 0xf4
EndSplineSet
EndChar

StartChar: at
Encoding: 64 64 313
Width: 852
Flags: MW
HStem: -104 44<319.5 439.5> -15 21G<677 677> 67 49<358.5 387> 75 44<589.5 643.5> 434 49<406.5 466.5 385.5 477.5> 620 44<380 544>
VStem: 57 47<144 364 144 375> 233 68<189.5 283.5 189.5 291.5> 494 61<156 156> 525.23 18.77 745 48<262 424.5>
LayerCount: 2
Fore
SplineSet
621 465 m 1xef60
 563 222 l 2
 557 195 555 181 555 169 c 0
 555 140 570 119 609 119 c 0
 679 119 745 193 745 331 c 0
 745 518 623 620 465 620 c 0
 295 620 104 483 104 245 c 0
 104 43 241 -60 398 -60 c 0
 487 -60 575 -36 657 23 c 1
 677 -15 l 1
 574 -84 483 -104 396 -104 c 0
 223 -104 57 9 57 243 c 0
 57 507 268 664 469 664 c 0
 661 664 793 530 793 334 c 0
 793 156 691 75 596 75 c 0
 544 75 500 97 494 156 c 1xdfa0
 475 117 l 1xefa0
 442 82 407 67 367 67 c 0
 307 67 233 103 233 224 c 0
 233 359 323 483 448 483 c 0
 485 483 514 471 531 451 c 1
 544 400 l 1
 561 465 l 1
 621 465 l 1xef60
511 262 m 2
 520 301 l 2xef60
 540 390 505 434 450 434 c 0
 363 434 301 337 301 230 c 0
 301 149 335 116 382 116 c 0xefa0
 439 116 490 172 511 262 c 2
EndSplineSet
EndChar

StartChar: A
Encoding: 65 65 1
Width: 630
GlyphClass: 2
Flags: MW
HStem: 0 21G<32 98 32 32 552 552 552 619> 253 52<205 444 205 462 187 444> 640 50<327 327>
VStem: 32 587<0 0>
LayerCount: 2
Fore
SplineSet
462 253 m 1
 187 253 l 1
 98 0 l 1
 32 0 l 1
 287 690 l 1
 370 690 l 1
 619 0 l 1
 552 0 l 1
 462 253 l 1
205 305 m 1
 444 305 l 1
 327 640 l 1
 205 305 l 1
EndSplineSet
Position2: "'cpsp' Capital Spacing in Latin lookup 0 subtable" dx=5 dy=0 dh=10 dv=0
EndChar

StartChar: B
Encoding: 66 66 12
Width: 612
GlyphClass: 2
Flags: MW
HStem: 0 52<161 309> 334 51<161 306 306 314.5 161 317 161 306> 638 52<161 161 161 291 291 295>
VStem: 99 62<52 334 385 638> 481 67<479 556> 507 66<146 231>
LayerCount: 2
Fore
SplineSet
425 366 m 1xf4
 522 345 573 290 573 196 c 0xf4
 573 76 485 15 390 4 c 0
 359 0 338 0 309 0 c 2
 99 0 l 1
 99 690 l 1
 291 690 l 2
 321 690 342 690 376 687 c 0
 483 675 548 618 548 521 c 0xf8
 548 437 500 387 425 366 c 1xf4
161 638 m 1
 161 385 l 1
 306 385 l 2
 323 385 340 386 361 388 c 0
 432 396 481 435 481 514 c 0xf8
 481 598 423 631 354 637 c 0
 334 638 315 638 295 638 c 2
 161 638 l 1
370 53 m 0xf4
 443 59 507 102 507 190 c 0
 507 272 463 323 371 331 c 0
 348 333 333 334 317 334 c 2
 161 334 l 1
 161 52 l 1
 323 52 l 2
 339 52 357 52 370 53 c 0xf4
EndSplineSet
Position2: "'cpsp' Capital Spacing in Latin lookup 0 subtable" dx=5 dy=0 dh=10 dv=0
EndChar

StartChar: C
Encoding: 67 67 13
Width: 691
GlyphClass: 2
Flags: MW
HStem: -14 50<290 424 290 444> 654 50<296 428.5>
VStem: 49 69<249 439 249 448> 578 62.5 581 62.5
AnchorPoint: "Anchor-0" 351 0 basechar 0
LayerCount: 2
Fore
SplineSet
370 704 m 0xf0
 536 704 625 606 643 475 c 1
 644 465 l 1
 582 465 l 1
 580 475 l 2xe8
 559 580 490 654 367 654 c 0
 225 654 118 533 118 345 c 0
 118 153 220 36 360 36 c 0
 488 36 556 113 577 219 c 2
 579 229 l 1
 641 229 l 1
 640 219 l 1
 622 92 532 -14 356 -14 c 0
 167 -14 49 132 49 342 c 0
 49 554 181 704 370 704 c 0xf0
EndSplineSet
Position2: "'cpsp' Capital Spacing in Latin lookup 0 subtable" dx=5 dy=0 dh=10 dv=0
EndChar

StartChar: D
Encoding: 68 68 18
Width: 698
GlyphClass: 2
Flags: MW
HStem: 0 52<161 298 298 301> 638 52<161 301 161 161>
VStem: 99 62<52 638 52 690 52 690> 592 68<261.5 439.5>
LayerCount: 2
Fore
SplineSet
387 687 m 0
 527 671 660 571 660 351 c 0
 660 133 524 21 389 4 c 0
 354 0 336 0 301 0 c 2
 99 0 l 1
 99 690 l 1
 304 690 l 2
 340 690 356 690 387 687 c 0
383 56 m 0
 497 73 592 172 592 351 c 0
 592 528 495 619 381 635 c 0
 359 638 337 638 301 638 c 2
 161 638 l 1
 161 52 l 1
 298 52 l 2
 332 52 356 52 383 56 c 0
EndSplineSet
Position2: "'cpsp' Capital Spacing in Latin lookup 0 subtable" dx=5 dy=0 dh=10 dv=0
EndChar

StartChar: E
Encoding: 69 69 22
Width: 576
GlyphClass: 2
Flags: MW
HStem: 0 51<161 546 161 546> 319 52<161 510 161 510> 639 51<161 536 161 161>
VStem: 99 62<51 319 371 639>
AnchorPoint: "Anchor-0" 299 0 basechar 0
LayerCount: 2
Fore
SplineSet
546 51 m 1
 546 0 l 1
 99 0 l 1
 99 690 l 1
 536 690 l 1
 536 639 l 1
 161 639 l 1
 161 371 l 1
 510 371 l 1
 510 319 l 1
 161 319 l 1
 161 51 l 1
 546 51 l 1
EndSplineSet
Position2: "'cpsp' Capital Spacing in Latin lookup 0 subtable" dx=5 dy=0 dh=10 dv=0
EndChar

StartChar: F
Encoding: 70 70 31
Width: 554
GlyphClass: 2
Flags: MW
HStem: 0 21G<99 161 99 99> 319 52<161 500 161 500> 639 51<161 161 161 536>
VStem: 99 62<0 319 371 639>
LayerCount: 2
Fore
SplineSet
161 639 m 1
 161 371 l 1
 500 371 l 1
 500 319 l 1
 161 319 l 1
 161 0 l 1
 99 0 l 1
 99 690 l 1
 536 690 l 1
 536 639 l 1
 161 639 l 1
EndSplineSet
Position2: "'cpsp' Capital Spacing in Latin lookup 0 subtable" dx=5 dy=0 dh=10 dv=0
EndChar

StartChar: G
Encoding: 71 71 32
Width: 704
GlyphClass: 2
Flags: MW
HStem: -14 50<290.5 398.5> 0 21G<586 642 586 586> 272 51<392 580 392 642> 654 50<298.5 432.5>
VStem: 49 69<249 439 249 448> 580 62<194 272> 585 62.5
AnchorPoint: "Anchor-0" 361 0 basechar 0
LayerCount: 2
Fore
SplineSet
392 323 m 1xbc
 642 323 l 1
 642 0 l 1
 586 0 l 1x7c
 586 142 l 1
 559 80 l 1xbc
 513 16 440 -14 357 -14 c 0
 167 -14 49 132 49 342 c 0
 49 554 182 704 373 704 c 0
 539 704 628 606 647 475 c 1
 648 465 l 1
 586 465 l 1
 584 475 l 2xba
 563 580 494 654 371 654 c 0
 226 654 118 533 118 345 c 0
 118 153 220 36 361 36 c 0
 471 36 580 116 580 272 c 1
 392 272 l 1
 392 323 l 1xbc
EndSplineSet
Position2: "'cpsp' Capital Spacing in Latin lookup 0 subtable" dx=5 dy=0 dh=10 dv=0
EndChar

StartChar: H
Encoding: 72 72 36
Width: 702
GlyphClass: 2
Flags: MW
HStem: 0 21G<99 161 99 99 565 627 565 565> 312 53<161 565 161 565> 670 20G<99 161 161 161 565 627 627 627>
VStem: 99 62<0 312 0 365 365 690> 565 62<0 312 312 312 365 690 0 690>
LayerCount: 2
Fore
SplineSet
627 690 m 1
 627 0 l 1
 565 0 l 1
 565 312 l 1
 161 312 l 1
 161 0 l 1
 99 0 l 1
 99 690 l 1
 161 690 l 1
 161 365 l 1
 565 365 l 1
 565 690 l 1
 627 690 l 1
EndSplineSet
Position2: "'cpsp' Capital Spacing in Latin lookup 0 subtable" dx=5 dy=0 dh=10 dv=0
EndChar

StartChar: I
Encoding: 73 73 38
Width: 236
GlyphClass: 2
Flags: MW
HStem: 0 21G<99 161 99 99> 670 20G<99 161 161 161>
VStem: 99 62<0 690>
LayerCount: 2
Fore
SplineSet
161 0 m 1
 99 0 l 1
 99 690 l 1
 161 690 l 1
 161 0 l 1
EndSplineSet
Position2: "'cpsp' Capital Spacing in Latin lookup 0 subtable" dx=5 dy=0 dh=10 dv=0
EndChar

StartChar: J
Encoding: 74 74 47
Width: 526
GlyphClass: 2
Flags: MW
HStem: -14 50<219 305.5 219 323.5> 670 20G<404 466 466 466>
VStem: 52.5 62.5 404 62<261 263 263 690>
LayerCount: 2
Fore
SplineSet
466 690 m 1
 466 263 l 2
 466 235 466 210 464 177 c 0
 457 70 393 -14 254 -14 c 0
 131 -14 57 61 53 194 c 2
 52 231 l 1
 114 231 l 1
 116 194 l 2
 121 83 176 36 262 36 c 0
 349 36 395 91 403 181 c 0
 404 202 404 227 404 261 c 2
 404 690 l 1
 466 690 l 1
EndSplineSet
Position2: "'cpsp' Capital Spacing in Latin lookup 0 subtable" dx=5 dy=0 dh=10 dv=0
EndChar

StartChar: K
Encoding: 75 75 48
Width: 588
GlyphClass: 2
Flags: MW
HStem: 0 21G<99 161 99 99 494 582 494 494> 670 20G<99 161 161 161 521 595 595 595>
VStem: 99 62<0 252 324 690>
AnchorPoint: "Anchor-0" 320 0 basechar 0
LayerCount: 2
Fore
SplineSet
266 354 m 1
 582 0 l 1
 494 0 l 1
 219 313 l 1
 161 252 l 1
 161 0 l 1
 99 0 l 1
 99 690 l 1
 161 690 l 1
 161 324 l 1
 521 690 l 1
 595 690 l 1
 266 354 l 1
EndSplineSet
Position2: "'cpsp' Capital Spacing in Latin lookup 0 subtable" dx=5 dy=0 dh=10 dv=0
EndChar

StartChar: M
Encoding: 77 77 56
Width: 839
GlyphClass: 2
Flags: MW
HStem: 0 52<433 433 433 470 392 433> 635 55
VStem: 99 62<0 372 0 690> 702 62<0 372 372 415.5>
LayerCount: 2
Fore
SplineSet
764 690 m 1
 764 0 l 1
 702 0 l 1
 702 372 l 2
 702 459 702 555 704 635 c 1
 677 555 642 458 610 373 c 2
 470 0 l 1
 392 0 l 1
 251 374 l 2
 220 458 185 555 159 634 c 1
 161 554 161 458 161 372 c 2
 161 0 l 1
 99 0 l 1
 99 690 l 1
 200 690 l 1
 433 52 l 1
 665 690 l 1
 764 690 l 1
EndSplineSet
Position2: "'cpsp' Capital Spacing in Latin lookup 0 subtable" dx=5 dy=0 dh=10 dv=0
EndChar

StartChar: N
Encoding: 78 78 57
Width: 688
GlyphClass: 2
Flags: MW
HStem: 0 60<553 553 553 612 517 553> 630 60<158 158>
VStem: 99 62<0 356 0 690> 550 61.5
AnchorPoint: "Anchor-0" 355 0 basechar 0
LayerCount: 2
Fore
SplineSet
612 0 m 1
 517 0 l 1
 158 630 l 1
 160 545 161 442 161 356 c 2
 161 0 l 1
 99 0 l 1
 99 690 l 1
 193 690 l 1
 553 60 l 1
 551 146 550 248 550 334 c 2
 550 690 l 1
 611 690 l 1
 612 0 l 1
EndSplineSet
Position2: "'cpsp' Capital Spacing in Latin lookup 0 subtable" dx=5 dy=0 dh=10 dv=0
EndChar

StartChar: P
Encoding: 80 80 73
Width: 569
GlyphClass: 2
Flags: MW
HStem: 0 21G<99 161 99 99> 292 53<161 290 161 295> 637 53<161 290 290 295 161 161>
VStem: 99 62<0 292 0 345 345 637> 491 67<447.5 537>
LayerCount: 2
Fore
SplineSet
383 686 m 0
 487 672 558 610 558 493 c 0
 558 375 480 309 383 296 c 0
 352 292 325 292 290 292 c 2
 161 292 l 1
 161 0 l 1
 99 0 l 1
 99 690 l 1
 290 690 l 2
 325 690 352 690 383 686 c 0
378 350 m 0
 441 360 491 402 491 493 c 0
 491 581 441 622 378 632 c 0
 355 636 328 637 295 637 c 2
 161 637 l 1
 161 345 l 1
 295 345 l 2
 328 345 355 346 378 350 c 0
EndSplineSet
Position2: "'cpsp' Capital Spacing in Latin lookup 0 subtable" dx=5 dy=0 dh=10 dv=0
EndChar

StartChar: Q
Encoding: 81 81 75
Width: 726
GlyphClass: 2
Flags: MW
HStem: -14 50<295 382.5> -9 21G<684 684> 2 34 654 50<295 443.5>
VStem: 49 69<248.5 442 248.5 450> 621 69<287 442>
LayerCount: 2
Fore
SplineSet
690 345 m 0x9c
 690 229 649 121 550 55 c 1x3c
 600 50 640 28 684 -9 c 1x5c
 648 -52 l 1
 586 -8 552 2 511 2 c 0x3c
 485 2 468 -1 440 -7 c 0
 418 -12 396 -14 369 -14 c 0
 168 -14 49 137 49 345 c 0
 49 555 168 704 369 704 c 0
 571 704 690 555 690 345 c 0x9c
118 345 m 0
 118 152 221 36 369 36 c 0
 518 36 621 152 621 345 c 0
 621 539 518 654 369 654 c 0
 221 654 118 539 118 345 c 0
EndSplineSet
Position2: "'cpsp' Capital Spacing in Latin lookup 0 subtable" dx=5 dy=0 dh=10 dv=0
EndChar

StartChar: T
Encoding: 84 84 85
Width: 600
GlyphClass: 2
Flags: MW
HStem: 0 21G<286 348 286 286> 639 51<33 286 33 601 348 601 348 348>
VStem: 286 62<0 639 0 639>
AnchorPoint: "Anchor-0" 317 0 basechar 0
LayerCount: 2
Fore
SplineSet
601 639 m 1
 348 639 l 1
 348 0 l 1
 286 0 l 1
 286 639 l 1
 33 639 l 1
 33 690 l 1
 601 690 l 1
 601 639 l 1
EndSplineSet
Position2: "'cpsp' Capital Spacing in Latin lookup 0 subtable" dx=5 dy=0 dh=10 dv=0
EndChar

StartChar: V
Encoding: 86 86 99
Width: 607
GlyphClass: 2
Flags: MW
HStem: 0 48<322 322 322 362 279 322> 670 20G<30 97 97 97 551 618 618 618>
VStem: 30 588<690 690>
LayerCount: 2
Fore
SplineSet
362 0 m 1
 279 0 l 1
 30 690 l 1
 97 690 l 1
 322 48 l 1
 551 690 l 1
 618 690 l 1
 362 0 l 1
EndSplineSet
Position2: "'cpsp' Capital Spacing in Latin lookup 0 subtable" dx=5 dy=0 dh=10 dv=0
EndChar

StartChar: X
Encoding: 88 88 105
Width: 605
GlyphClass: 2
Flags: MW
HStem: 0 21G<26 99 26 26 524 598 524 524> 670 20G<44 114 114 114 521 594 594 594>
VStem: 26 572<0 0>
LayerCount: 2
Fore
SplineSet
524 0 m 1
 309 306 l 1
 99 0 l 1
 26 0 l 1
 273 347 l 1
 44 690 l 1
 114 690 l 1
 312 390 l 1
 521 690 l 1
 594 690 l 1
 347 349 l 1
 598 0 l 1
 524 0 l 1
EndSplineSet
Position2: "'cpsp' Capital Spacing in Latin lookup 0 subtable" dx=5 dy=0 dh=10 dv=0
EndChar

StartChar: Z
Encoding: 90 90 111
Width: 571
GlyphClass: 2
Flags: MW
HStem: 0 52<116 548 116 548> 638 52<70 470 70 542>
VStem: 42 506<0 48 48 48>
LayerCount: 2
Fore
SplineSet
548 52 m 1
 548 0 l 1
 42 0 l 1
 42 48 l 1
 470 638 l 1
 70 638 l 1
 70 690 l 1
 542 690 l 1
 542 639 l 1
 116 52 l 1
 548 52 l 1
EndSplineSet
Position2: "'cpsp' Capital Spacing in Latin lookup 0 subtable" dx=5 dy=0 dh=10 dv=0
EndChar

StartChar: bracketleft
Encoding: 91 91 263
Width: 309
Flags: MW
HStem: -80 43<155 270 155 270> 737 43<155 270 155 155>
VStem: 111 44<-37 737 -37 780 -37 780>
LayerCount: 2
Fore
SplineSet
270 780 m 1
 270 737 l 1
 155 737 l 1
 155 -37 l 1
 270 -37 l 1
 270 -80 l 1
 111 -80 l 1
 111 780 l 1
 270 780 l 1
EndSplineSet
EndChar

StartChar: backslash
Encoding: 92 92 244
Width: 288
Flags: MW
HStem: -30 750<-5 293 -5 246>
VStem: -5 298
LayerCount: 2
Fore
SplineSet
293 -30 m 1
 246 -30 l 1
 -5 720 l 1
 42 720 l 1
 293 -30 l 1
EndSplineSet
EndChar

StartChar: bracketright
Encoding: 93 93 264
Width: 301
Flags: MW
HStem: -80 43<31 146 31 190 31 146> 737 43<31 146 31 190>
VStem: 146 44<-37 737 737 737>
LayerCount: 2
Fore
SplineSet
190 -80 m 1
 31 -80 l 1
 31 -37 l 1
 146 -37 l 1
 146 737 l 1
 31 737 l 1
 31 780 l 1
 190 780 l 1
 190 -80 l 1
EndSplineSet
EndChar

StartChar: asciicircum
Encoding: 94 94 312
Width: 561
Flags: MW
HStem: 573 43<282 282>
VStem: 81 401<215 215>
LayerCount: 2
Fore
SplineSet
430 215 m 1
 282 573 l 1
 134 215 l 1
 81 215 l 1
 255 616 l 1
 308 616 l 1
 482 215 l 1
 430 215 l 1
EndSplineSet
EndChar

StartChar: underscore
Encoding: 95 95 260
Width: 500
Flags: MW
HStem: -84 43<50 450 50 450>
VStem: 50 400<-84 -41 -84 -41>
LayerCount: 2
Fore
SplineSet
450 -84 m 1
 50 -84 l 1
 50 -41 l 1
 450 -41 l 1
 450 -84 l 1
EndSplineSet
EndChar

StartChar: grave
Encoding: 96 96 331
Width: 300
Flags: MW
HStem: 580 110<53 175 53 132>
VStem: 53 122<580 690>
LayerCount: 2
Fore
SplineSet
175 580 m 1
 132 580 l 1
 53 690 l 1
 114 690 l 1
 175 580 l 1
EndSplineSet
EndChar

StartChar: b
Encoding: 98 98 126
Width: 586
GlyphClass: 2
Flags: MW
HStem: -14 49<278 357 265 371> 0 21G<73 135 73 73> 493 50<289.5 369> 715 20G<73 135 135 135>
VStem: 73 62<0 90 161.5 237 237 277 431 735> 488 68<191.5 326.5>
LayerCount: 2
Fore
SplineSet
320 543 m 0xbc
 468 543 556 428 556 271 c 0
 556 79 438 -14 304 -14 c 0
 252 -14 201 2 168 33 c 1xbc
 135 90 l 1
 135 0 l 1
 73 0 l 1x7c
 73 735 l 1
 135 735 l 1
 135 431 l 1
 170 489 l 1
 207 525 259 543 320 543 c 0xbc
304 35 m 0
 410 35 488 120 488 263 c 0
 488 390 427 493 311 493 c 0
 217 493 135 437 135 277 c 2
 135 237 l 2
 135 86 226 35 304 35 c 0
EndSplineSet
EndChar

StartChar: d
Encoding: 100 100 132
Width: 588
GlyphClass: 2
Flags: MW
HStem: -14 49<217 296.5> 0 21G<451 513 451 451> 493 50<229 308 215 321> 715 20G<451 513 513 513>
VStem: 30 68<202.5 337.5 202.5 354> 451 62<0 98 98 98 252 292 292 367 438 735 0 735>
LayerCount: 2
Fore
SplineSet
513 735 m 1xbc
 513 0 l 1
 451 0 l 1
 451 98 l 1x7c
 416 40 l 1
 379 3 327 -14 266 -14 c 0
 118 -14 30 101 30 258 c 0
 30 450 148 543 282 543 c 0
 334 543 385 527 418 495 c 1
 451 438 l 1
 451 735 l 1
 513 735 l 1xbc
275 35 m 0xbc
 369 35 451 92 451 252 c 2
 451 292 l 2
 451 442 360 493 282 493 c 0
 176 493 98 409 98 266 c 0
 98 139 159 35 275 35 c 0xbc
EndSplineSet
EndChar

StartChar: f
Encoding: 102 102 145
Width: 268
GlyphClass: 2
Flags: MW
HStem: 0 21G<80 142 80 80> 475 50<23 80 23 80 142 250> 700.77 48.23
VStem: 80 62<0 475 0 475 525 584 584 589>
LayerCount: 2
Fore
SplineSet
144 641 m 0
 142 624 142 604 142 589 c 2
 142 525 l 1
 250 525 l 1
 250 475 l 1
 142 475 l 1
 142 0 l 1
 80 0 l 1
 80 475 l 1
 23 475 l 1
 23 525 l 1
 80 525 l 1
 80 584 l 2
 80 602 80 624 82 643 c 0
 90 716 139 754 204 754 c 0
 225 754 242 752 260 749 c 1
 260 697 l 1
 190 711 150 688 144 641 c 0
EndSplineSet
EndChar

StartChar: h
Encoding: 104 104 150
Width: 569
GlyphClass: 2
Flags: MW
HStem: 0 21G<73 135 73 73 438 500 438 438> 492 51 720 20G<73 135 135 135>
VStem: 73 62<0 263 427 740> 438 62<0 289 289 296 0 304>
LayerCount: 2
Fore
SplineSet
498 385 m 0
 500 358 500 339 500 296 c 2
 500 0 l 1
 438 0 l 1
 438 289 l 2
 438 319 438 342 436 369 c 0
 429 441 389 493 300 492 c 0
 212 491 135 428 135 263 c 2
 135 0 l 1
 73 0 l 1
 73 740 l 1
 135 740 l 1
 135 427 l 1
 163 484 l 1
 206 527 253 543 312 543 c 0
 424 543 488 482 498 385 c 0
EndSplineSet
EndChar

StartChar: i
Encoding: 105 105 152
Width: 210
GlyphClass: 2
Flags: MW
HStem: 0 21G<73 135 73 73> 509 20G<73 135 135 135> 601 84<92.5 116>
VStem: 62 84<631.5 655> 73 62<0 529>
LayerCount: 2
Fore
SplineSet
104 685 m 0xf0
 128 685 146 667 146 643 c 0
 146 620 128 601 104 601 c 0
 81 601 62 620 62 643 c 0
 62 667 81 685 104 685 c 0xf0
135 0 m 1xe8
 73 0 l 1
 73 529 l 1
 135 529 l 1
 135 0 l 1xe8
EndSplineSet
EndChar

StartChar: j
Encoding: 106 106 161
Width: 204
GlyphClass: 2
Flags: MW
HStem: -210 54<-20 52.5> 509 20G<67 129 129 129> 601 84<86.5 110>
VStem: 56 84<631.5 655> 67 62<-63 -56 -56 529>
LayerCount: 2
Fore
SplineSet
98 685 m 0xf0
 122 685 140 667 140 643 c 0
 140 620 122 601 98 601 c 0
 75 601 56 620 56 643 c 0
 56 667 75 685 98 685 c 0xf0
129 529 m 1xe8
 129 -56 l 2
 129 -76 129 -98 127 -116 c 0
 121 -178 86 -210 19 -210 c 0
 5 -210 -7 -210 -20 -207 c 1
 -20 -156 l 1
 35 -163 62 -149 66 -105 c 0
 67 -91 67 -78 67 -63 c 2
 67 529 l 1
 129 529 l 1xe8
EndSplineSet
EndChar

StartChar: k
Encoding: 107 107 162
Width: 498
GlyphClass: 2
Flags: MW
HStem: 0 21G<73 135 73 73 403 489 403 403> 509 20G<406 487 487 487> 715 20G<73 135 135 135>
VStem: 73 62<0 186 254 735>
AnchorPoint: "Anchor-0" 257 0 basechar 0
LayerCount: 2
Fore
SplineSet
403 0 m 1
 183 237 l 1
 135 186 l 1
 135 0 l 1
 73 0 l 1
 73 735 l 1
 135 735 l 1
 135 254 l 1
 406 529 l 1
 487 529 l 1
 228 276 l 1
 489 0 l 1
 403 0 l 1
EndSplineSet
EndChar

StartChar: l
Encoding: 108 108 164
Width: 219
GlyphClass: 2
Flags: MW
HStem: -4 49<124.5 194> 715 20G<69 131 131 131>
VStem: 69 62<138 140 140 735>
AnchorPoint: "Anchor-0" 119 0 basechar 0
LayerCount: 2
Fore
SplineSet
131 735 m 1
 131 140 l 2
 131 117 131 99 132 83 c 0
 134 49 149 40 194 45 c 1
 194 -1 l 1
 178 -4 161 -4 145 -4 c 0
 104 -4 73 10 70 67 c 0
 69 85 69 106 69 138 c 2
 69 735 l 1
 131 735 l 1
EndSplineSet
EndChar

StartChar: m
Encoding: 109 109 170
Width: 838
GlyphClass: 2
Flags: MW
HStem: 0 21G<73 135 73 73 390 452 390 390 707 769 707 707> 493 50<262 303 579 620> 509 20G<73 135 135 135>
VStem: 73 62<0 277 438 529> 390 62<0 277 0 284 0 305.5> 707 62<0 284 284 305.5>
LayerCount: 2
Fore
SplineSet
764 401 m 0xdc
 768 374 769 355 769 312 c 2
 769 0 l 1
 707 0 l 1
 707 284 l 2
 707 327 706 354 703 381 c 0
 694 452 655 493 585 493 c 0
 510 493 452 434 452 277 c 2
 452 0 l 1
 390 0 l 1
 390 284 l 2
 390 327 389 354 386 381 c 0
 377 452 338 493 268 493 c 0xdc
 193 493 135 434 135 277 c 2
 135 0 l 1
 73 0 l 1
 73 529 l 1
 135 529 l 1
 135 438 l 1xbc
 165 497 l 1
 196 529 237 543 287 543 c 0
 371 543 423 498 441 430 c 1
 482 497 l 1
 512 529 554 543 604 543 c 0
 699 543 752 485 764 401 c 0xdc
EndSplineSet
EndChar

StartChar: n
Encoding: 110 110 171
Width: 569
GlyphClass: 2
Flags: MW
HStem: 0 21G<73 135 73 73 438 500 438 438> 492 51<282.5 344.5> 509 20G<73 135 135 135>
VStem: 73 62<0 263 427 529> 438 62<0 289 289 296 0 304>
AnchorPoint: "Anchor-0" 283 0 basechar 0
LayerCount: 2
Fore
SplineSet
498 385 m 0xd8
 500 358 500 339 500 296 c 2
 500 0 l 1
 438 0 l 1
 438 289 l 2
 438 319 438 342 436 369 c 0
 429 441 389 492 300 492 c 0xd8
 212 492 135 428 135 263 c 2
 135 0 l 1
 73 0 l 1
 73 529 l 1
 135 529 l 1xb8
 135 427 l 1
 163 484 l 1
 206 527 253 543 312 543 c 0
 424 543 488 482 498 385 c 0xd8
EndSplineSet
EndChar

StartChar: o
Encoding: 111 111 177
Width: 574
GlyphClass: 2
Flags: MW
HStem: -14 49<232 342 232 371> 493 50<232 342>
VStem: 30 68<192 336 192 342> 476 68<192 336>
LayerCount: 2
Fore
SplineSet
287 543 m 0
 455 543 544 420 544 264 c 0
 544 109 455 -14 287 -14 c 0
 119 -14 30 109 30 264 c 0
 30 420 119 543 287 543 c 0
287 35 m 0
 397 35 476 120 476 264 c 0
 476 408 397 493 287 493 c 0
 177 493 98 408 98 264 c 0
 98 120 177 35 287 35 c 0
EndSplineSet
EndChar

StartChar: p
Encoding: 112 112 187
Width: 586
GlyphClass: 2
Flags: MW
HStem: -14 49<278 357 265 371> 493 50<289.5 369> 512 20G<73 135 135 135>
VStem: 73 62<-196 90 161.5 237 237 277 431 532> 488 68<191.5 326.5>
LayerCount: 2
Fore
SplineSet
320 543 m 0xd8
 468 543 556 428 556 271 c 0
 556 79 438 -14 304 -14 c 0
 252 -14 201 2 168 33 c 1
 135 90 l 1
 135 -196 l 1
 73 -196 l 1
 73 532 l 1
 135 532 l 1xb8
 135 431 l 1
 170 489 l 1
 207 525 259 543 320 543 c 0xd8
304 35 m 0
 410 35 488 120 488 263 c 0
 488 390 427 493 311 493 c 0
 217 493 135 437 135 277 c 2
 135 237 l 2
 135 86 226 35 304 35 c 0
EndSplineSet
EndChar

StartChar: q
Encoding: 113 113 189
Width: 589
GlyphClass: 2
Flags: MW
HStem: -14 49<217 296.5> 493 50<229 308 215 321> 512 20G<451 513 513 513>
VStem: 30 68<202.5 337.5 202.5 354> 451 62<-196 98 98 98 252 292 292 367 438 532 -196 532>
LayerCount: 2
Fore
SplineSet
513 532 m 1xb8
 513 -196 l 1
 451 -196 l 1
 451 98 l 1
 416 40 l 1
 379 3 327 -14 266 -14 c 0
 118 -14 30 101 30 258 c 0
 30 450 148 543 282 543 c 0
 334 543 385 527 418 495 c 1xd8
 451 438 l 1
 451 532 l 1
 513 532 l 1xb8
275 35 m 0
 369 35 451 92 451 252 c 2
 451 292 l 2
 451 442 360 493 282 493 c 0
 176 493 98 409 98 266 c 0
 98 139 159 35 275 35 c 0
EndSplineSet
EndChar

StartChar: r
Encoding: 114 114 190
Width: 303
GlyphClass: 2
Flags: MW
HStem: 0 21G<73 135 73 73> 509 20G<73 135 135 135> 517 20G<295 295> 521 20G<247 269.5>
VStem: 73 62<0 297 433 529>
AnchorPoint: "Anchor-0" 104 0 basechar 0
LayerCount: 2
Fore
SplineSet
264 541 m 0x98
 275 541 286 540 295 537 c 1
 295 488 l 1xa8
 203 495 135 438 135 297 c 2
 135 0 l 1
 73 0 l 1
 73 529 l 1
 135 529 l 1
 135 433 l 1xc8
 173 501 l 1
 197 526 230 541 264 541 c 0x98
EndSplineSet
EndChar

StartChar: u
Encoding: 117 117 205
Width: 567
GlyphClass: 2
Flags: MW
HStem: -14 50<226 282> 0 21G<430 492 430 430> 509 20G<65 127 127 127 430 492 492 492>
VStem: 65 62<221.5 234 234 529> 430 62<0 102 102 102 266 529 0 529>
LayerCount: 2
Fore
SplineSet
492 529 m 1xb8
 492 0 l 1
 430 0 l 1x78
 430 102 l 1
 401 43 l 1
 359 2 311 -14 253 -14 c 0
 145 -14 81 47 69 131 c 0
 66 158 65 177 65 220 c 2
 65 529 l 1
 127 529 l 1
 127 234 l 2
 127 209 128 182 131 155 c 0
 139 85 185 36 267 36 c 0
 355 36 430 100 430 266 c 2
 430 529 l 1
 492 529 l 1xb8
EndSplineSet
EndChar

StartChar: v
Encoding: 118 118 214
Width: 497
GlyphClass: 2
Flags: MW
HStem: 0 46<250 250 250 286 209 250> 509 20G<6 74 74 74 424 490 490 490>
VStem: 6 484<529 529>
LayerCount: 2
Fore
SplineSet
490 529 m 1
 286 0 l 1
 209 0 l 1
 6 529 l 1
 74 529 l 1
 250 46 l 1
 424 529 l 1
 490 529 l 1
EndSplineSet
EndChar

StartChar: w
Encoding: 119 119 215
Width: 759
GlyphClass: 2
Flags: MW
HStem: 0 57<213 213 213 250 174 213> 466 62<380 380> 508 20G<342 421 421 421> 509 20G<6 77 77 77 686 752 752 752>
VStem: 6 746<529 529>
LayerCount: 2
Fore
SplineSet
752 529 m 1x98
 585 0 l 1
 510 0 l 1
 380 466 l 1xc8
 250 0 l 1
 174 0 l 1
 6 529 l 1
 77 529 l 1x98
 213 57 l 1
 342 528 l 1
 421 528 l 1xa8
 551 62 l 1
 686 529 l 1
 752 529 l 1x98
EndSplineSet
EndChar

StartChar: x
Encoding: 120 120 220
Width: 458
GlyphClass: 2
Flags: MW
HStem: 0 21G<-3 69 -3 -3 372 445 372 372> 509 20G<5 78 78 78 372 444 444 444>
VStem: -3 448<0 0>
LayerCount: 2
Fore
SplineSet
258 268 m 1
 445 0 l 1
 372 0 l 1
 221 227 l 1
 69 0 l 1
 -3 0 l 1
 186 267 l 1
 5 529 l 1
 78 529 l 1
 224 308 l 1
 372 529 l 1
 444 529 l 1
 258 268 l 1
EndSplineSet
EndChar

StartChar: z
Encoding: 122 122 226
Width: 455
GlyphClass: 2
Flags: MW
HStem: 0 50<92 429 92 429> 473 50<41 351 41 425>
VStem: 17 412<0 48 48 48>
LayerCount: 2
Fore
SplineSet
429 50 m 1
 429 0 l 1
 17 0 l 1
 17 48 l 1
 351 473 l 1
 41 473 l 1
 41 523 l 1
 425 523 l 1
 425 472 l 1
 92 50 l 1
 429 50 l 1
EndSplineSet
EndChar

StartChar: braceleft
Encoding: 123 123 261
Width: 300
Flags: MW
HStem: -80 43<261 262 262 275> 737 43<231 275 262 275 262 275>
VStem: 69 38 129 44<4.5 38.5 4.5 38.5 661.5 695.5> 151 45<233 267 433 467>
LayerCount: 2
Fore
SplineSet
275 737 m 1xd0
 261 737 l 2
 201 737 173 718 173 673 c 0xd0
 173 650 176 635 184 575 c 0
 193 507 196 481 196 453 c 0
 196 400 167 358 107 351 c 1
 166 344 196 300 196 247 c 0xe8
 196 219 193 194 184 125 c 0
 176 65 173 50 173 27 c 0
 173 -18 201 -37 261 -37 c 2
 275 -37 l 1
 275 -80 l 1
 262 -80 l 2
 180 -80 129 -55 129 28 c 0xd0
 129 49 131 68 140 135 c 0
 148 191 151 219 151 245 c 0
 151 289 129 322 69 328 c 1
 69 372 l 1
 129 378 151 411 151 455 c 0xe8
 151 482 148 509 140 565 c 0
 131 632 129 651 129 672 c 0
 129 755 180 780 262 780 c 2
 275 780 l 1
 275 737 l 1xd0
EndSplineSet
EndChar

StartChar: bar
Encoding: 124 124 314
Width: 250
Flags: MW
HStem: -200 1000<103 147 103 147>
VStem: 103 44<-200 800>
LayerCount: 2
Fore
SplineSet
147 -200 m 1
 103 -200 l 1
 103 800 l 1
 147 800 l 1
 147 -200 l 1
EndSplineSet
EndChar

StartChar: braceright
Encoding: 125 125 262
Width: 300
Flags: MW
HStem: -80 43<25 38 25 39> 737 43<25 38 38 39 25 38>
VStem: 104 46<233 267 232 273.5 433 467> 127 45<4.5 38.5 661.5 695.5> 193 38
LayerCount: 2
Fore
SplineSet
231 372 m 1xe8
 231 328 l 1
 171 322 150 289 150 245 c 0xe8
 150 219 152 191 160 135 c 0
 170 68 172 49 172 28 c 0
 172 -55 120 -80 38 -80 c 2
 25 -80 l 1
 25 -37 l 1
 39 -37 l 2
 100 -37 127 -18 127 27 c 0xd0
 127 50 125 65 117 125 c 0
 107 194 104 219 104 247 c 0
 104 300 134 342 193 349 c 1
 134 356 104 400 104 453 c 0xe8
 104 481 107 507 117 575 c 0
 125 635 127 650 127 673 c 0
 127 718 100 737 39 737 c 2
 25 737 l 1
 25 780 l 1
 38 780 l 2
 120 780 172 755 172 672 c 0xd0
 172 651 170 632 160 565 c 0
 152 509 150 482 150 455 c 0
 150 411 171 378 231 372 c 1xe8
EndSplineSet
EndChar

StartChar: asciitilde
Encoding: 126 126 288
Width: 561
Flags: MW
HStem: 227 43<379.5 414.5 379.5 424> 309 43<146.5 181.5>
VStem: 69 43<225 251.5 225 267.5> 449 43<327.5 354>
LayerCount: 2
Fore
SplineSet
449 354 m 1
 492 354 l 1
 492 269 457 227 391 227 c 0
 352 227 329 238 270 270 c 0
 223 296 196 309 167 309 c 0
 126 309 112 278 112 225 c 1
 69 225 l 1
 69 310 104 352 170 352 c 0
 209 352 232 341 291 309 c 0
 339 283 365 270 394 270 c 0
 435 270 449 301 449 354 c 1
EndSplineSet
EndChar

StartChar: exclamdown
Encoding: 161 161 250
Width: 227
Flags: MW
HStem: 449 95<100 127.5>
VStem: 66 95<483 510.5> 80.5 66
LayerCount: 2
Fore
SplineSet
114 449 m 0xc0
 86 449 66 469 66 497 c 0
 66 524 86 544 114 544 c 0
 141 544 161 524 161 497 c 0
 161 469 141 449 114 449 c 0xc0
85 376 m 1xa0
 142 376 l 1
 151 -160 l 1
 76 -160 l 1
 85 376 l 1xa0
EndSplineSet
EndChar

StartChar: cent
Encoding: 162 162 281
Width: 549
Flags: MW
HStem: -13 21G<263 263 307 307> -13 49<263 307 307 307> 494 50<307 307>
VStem: 47 68<195.5 338.5 195.5 345> 263 44<-90 -13 -90 -13 37 493 493 493 544 620>
LayerCount: 2
Fore
SplineSet
307 494 m 1xb8
 307 36 l 1x78
 374 44 426 88 442 165 c 1
 507 165 l 1
 485 57 409 -4 307 -13 c 1
 307 -90 l 1
 263 -90 l 1
 263 -13 l 1
 140 -5 47 87 47 264 c 0
 47 426 144 527 263 542 c 1
 263 620 l 1
 307 620 l 1
 307 544 l 1
 421 539 497 466 512 358 c 1
 447 358 l 1
 430 440 382 488 307 494 c 1xb8
115 270 m 0
 115 121 183 48 263 37 c 1
 263 493 l 1
 185 479 115 407 115 270 c 0
EndSplineSet
EndChar

StartChar: sterling
Encoding: 163 163 285
Width: 561
Flags: MW
HStem: 0 52<161 502 161 502> 330 43<72 132 72 154 72 132 226 226 226 429> 654 50<255 337.5>
VStem: 95 69<492.5 555.5 492.5 566.5> 190 66<175 225> 434 66<508 508>
LayerCount: 2
Fore
SplineSet
502 52 m 1
 502 0 l 1
 63 0 l 1
 63 46 l 1
 143 67 190 127 190 202 c 0
 190 248 178 283 154 330 c 1xfc
 72 330 l 1
 72 373 l 1
 132 373 l 1
 110 417 95 457 95 508 c 0
 95 625 184 704 298 704 c 0
 429 704 492 621 500 508 c 1
 434 508 l 1
 424 604 379 654 296 654 c 0
 214 654 164 592 164 519 c 0
 164 466 176 431 206 373 c 1xf4
 429 373 l 1
 429 330 l 1
 226 330 l 1
 246 288 256 250 256 211 c 0
 256 139 224 91 161 52 c 1xfc
 502 52 l 1
EndSplineSet
EndChar

StartChar: currency
Encoding: 164 164 282
Width: 561
Flags: MW
HStem: 121 44<260 302> 437 44<260 302 260 318.5>
VStem: 102 48<280 322.5> 411 48<280 322.5 280 340>
LayerCount: 2
Fore
SplineSet
459 301 m 0
 459 259 445 221 422 190 c 1
 481 131 l 1
 450 100 l 1
 391 158 l 1
 361 135 323 121 281 121 c 0
 239 121 201 135 171 158 c 1
 112 100 l 1
 81 132 l 1
 139 190 l 1
 116 220 102 259 102 301 c 0
 102 344 116 382 139 413 c 1
 81 472 l 1
 112 503 l 1
 171 444 l 1
 202 468 239 481 281 481 c 0
 323 481 360 467 390 444 c 1
 450 503 l 1
 481 472 l 1
 422 412 l 1
 445 382 459 344 459 301 c 0
281 165 m 0
 356 165 411 223 411 301 c 0
 411 379 356 437 281 437 c 0
 205 437 150 379 150 301 c 0
 150 223 205 165 281 165 c 0
EndSplineSet
EndChar

StartChar: yen
Encoding: 165 165 286
Width: 561
Flags: MW
HStem: 0 21G<250 312 250 250> 196 43<79 250 79 250 312 482> 309 42<79 219 79 244 79 219 341 482> 670 20G<22 100 100 100 465 538 538 538>
VStem: 250 62<0 196 0 196 239 298 298 298>
LayerCount: 2
Fore
SplineSet
341 351 m 1
 482 351 l 1
 482 309 l 1
 317 309 l 1
 312 300 l 1
 312 239 l 1
 482 239 l 1
 482 196 l 1
 312 196 l 1
 312 0 l 1
 250 0 l 1
 250 196 l 1
 79 196 l 1
 79 239 l 1
 250 239 l 1
 250 298 l 1
 244 309 l 1
 79 309 l 1
 79 351 l 1
 219 351 l 1
 22 690 l 1
 100 690 l 1
 283 354 l 1
 465 690 l 1
 538 690 l 1
 341 351 l 1
EndSplineSet
EndChar

StartChar: brokenbar
Encoding: 166 166 315
Width: 250
Flags: MW
HStem: 670 20G<103 147 147 147>
VStem: 103 44<-160 180 350 690>
LayerCount: 2
Fore
SplineSet
147 350 m 1
 103 350 l 1
 103 690 l 1
 147 690 l 1
 147 350 l 1
147 -160 m 1
 103 -160 l 1
 103 180 l 1
 147 180 l 1
 147 -160 l 1
EndSplineSet
EndChar

StartChar: section
Encoding: 167 167 322
Width: 549
Flags: MW
HStem: -174 49<241 310.5 241 324.5> 655 49<241.5 304.5>
VStem: 39 67<260 328> 98 66<527.5 590 525 599.5> 397 67<-58.5 5> 453 66<215 278>
LayerCount: 2
Fore
SplineSet
519 251 m 0xe4
 519 179 471 126 407 102 c 1
 445 72 464 33 464 -22 c 0
 464 -121 376 -174 273 -174 c 0
 164 -174 87 -122 68 -3 c 1
 133 -3 l 1
 154 -89 205 -125 277 -125 c 0
 344 -125 397 -90 397 -27 c 0
 397 37 363 78 231 108 c 1
 129 133 39 190 39 288 c 0xe8
 39 368 87 417 153 439 c 1
 120 466 98 503 98 552 c 0
 98 647 171 704 271 704 c 0
 386 704 448 638 461 542 c 1
 396 542 l 1
 380 615 338 655 271 655 c 0
 212 655 164 621 164 559 c 0xd4
 164 491 222 455 312 433 c 0
 446 400 519 347 519 251 c 0xe4
345 137 m 1
 406 145 453 185 453 244 c 0
 453 312 399 348 287 377 c 0
 262 384 236 392 211 403 c 1
 157 398 106 367 106 292 c 0
 106 228 171 183 255 164 c 0
 289 157 319 148 345 137 c 1
EndSplineSet
EndChar

StartChar: dieresis
Encoding: 168 168 329
Width: 300
Flags: MW
HStem: 594 73<79.5 99 201 220.5>
VStem: 53 73<621 640.5> 174 73<621 640.5>
LayerCount: 2
Fore
SplineSet
89 667 m 0
 109 667 126 650 126 631 c 0
 126 611 109 594 89 594 c 0
 70 594 53 611 53 631 c 0
 53 650 70 667 89 667 c 0
211 667 m 0
 230 667 247 650 247 631 c 0
 247 611 230 594 211 594 c 0
 191 594 174 611 174 631 c 0
 174 650 191 667 211 667 c 0
EndSplineSet
EndChar

StartChar: copyright
Encoding: 169 169 316
Width: 838
Flags: MW
HStem: -27 45<327 511 327 524.5> 133 51<382.5 454.5 382.5 470> 527 51<381 460> 693 44<327 511>
VStem: 44 47<260 450 260 462.5> 222 68<305 405 305 423.5> 748 47<260 450>
LayerCount: 2
Fore
SplineSet
419 737 m 0
 630 737 795 570 795 355 c 0
 795 140 630 -27 419 -27 c 0
 209 -27 44 140 44 355 c 0
 44 570 209 737 419 737 c 0
419 693 m 0
 235 693 91 545 91 355 c 0
 91 165 235 18 419 18 c 0
 603 18 748 165 748 355 c 0
 748 545 603 693 419 693 c 0
424 578 m 0
 524 578 592 519 609 425 c 1
 543 425 l 1
 532 485 496 527 424 527 c 0
 338 527 290 454 290 356 c 0
 290 254 343 184 422 184 c 0
 487 184 531 224 542 285 c 1
 608 285 l 1
 587 192 524 133 416 133 c 0
 305 133 222 220 222 354 c 0
 222 493 307 578 424 578 c 0
EndSplineSet
EndChar

StartChar: guillemotleft
Encoding: 171 171 270
Width: 536
Flags: MW
HStem: 82 332<264 321 264 321 264 415 415 472>
VStem: 127 345<82 248>
LayerCount: 2
Fore
SplineSet
321 414 m 1
 184 248 l 1
 321 82 l 1
 264 82 l 1
 127 248 l 1
 264 414 l 1
 321 414 l 1
472 414 m 1
 335 248 l 1
 472 82 l 1
 415 82 l 1
 278 248 l 1
 415 414 l 1
 472 414 l 1
EndSplineSet
EndChar

StartChar: logicalnot
Encoding: 172 172 298
Width: 561
Flags: MW
HStem: 334 43<95 413 95 457>
VStem: 413 44<210 334 334 334>
LayerCount: 2
Fore
SplineSet
457 210 m 1
 413 210 l 1
 413 334 l 1
 95 334 l 1
 95 377 l 1
 457 377 l 1
 457 210 l 1
EndSplineSet
EndChar

StartChar: registered
Encoding: 174 174 321
Width: 513
Flags: MW
HStem: 344 37<206.5 307 206.5 318.5> 528 34<227 250 250 254.5 227 257 227 250> 627 32<227 251 251 253 227 227> 727 37<206.5 307>
VStem: 47 38<503.5 605 503.5 615.5> 188 39<455 528 562 627> 297 42<589 604> 428 39<503.5 605>
LayerCount: 2
Fore
SplineSet
257 764 m 0
 380 764 467 677 467 554 c 0
 467 431 380 344 257 344 c 0
 134 344 47 431 47 554 c 0
 47 677 134 764 257 764 c 0
257 381 m 0
 357 381 428 453 428 554 c 0
 428 656 357 727 257 727 c 0
 156 727 85 656 85 554 c 0
 85 453 156 381 257 381 c 0
297 552 m 1
 316 547 324 530 326 509 c 1
 330 483 336 466 341 455 c 1
 297 455 l 1
 293 467 289 481 287 503 c 1
 284 521 274 528 257 528 c 2
 227 528 l 1
 227 455 l 1
 188 455 l 1
 188 659 l 1
 251 659 l 2
 259 659 267 659 276 658 c 0
 313 654 339 638 339 602 c 0
 339 576 321 559 297 552 c 1
227 562 m 1
 250 562 l 2
 259 562 264 562 270 563 c 0
 287 566 297 576 297 594 c 0
 297 614 285 623 271 626 c 0
 265 627 261 627 253 627 c 2
 227 627 l 1
 227 562 l 1
EndSplineSet
EndChar

StartChar: macron
Encoding: 175 175 333
Width: 300
Flags: MW
HStem: 610 40<49 251 49 251>
VStem: 49 202<610 650 610 650>
LayerCount: 2
Fore
SplineSet
251 610 m 1
 49 610 l 1
 49 650 l 1
 251 650 l 1
 251 610 l 1
EndSplineSet
EndChar

StartChar: degree
Encoding: 176 176 319
Width: 290
Flags: MW
HStem: 480 42<125.5 164.5 125.5 178> 661 43<125.5 164.5>
VStem: 31 47<571.5 612.5 571.5 625> 211 48<571.5 612.5>
LayerCount: 2
Fore
SplineSet
145 704 m 0
 211 704 259 658 259 592 c 0
 259 525 211 480 145 480 c 0
 78 480 31 525 31 592 c 0
 31 658 78 704 145 704 c 0
145 661 m 0
 106 661 78 633 78 592 c 0
 78 551 106 522 145 522 c 0
 184 522 211 551 211 592 c 0
 211 633 184 661 145 661 c 0
EndSplineSet
EndChar

StartChar: plusminus
Encoding: 177 177 306
Width: 561
Flags: MW
HStem: 0 43<69 481 69 481> 297 43<69 253 69 253 297 481> 509 20G<253 297 297 297>
VStem: 253 44<106 297 106 297 340 529>
LayerCount: 2
Fore
SplineSet
297 340 m 1
 481 340 l 1
 481 297 l 1
 297 297 l 1
 297 106 l 1
 253 106 l 1
 253 297 l 1
 69 297 l 1
 69 340 l 1
 253 340 l 1
 253 529 l 1
 297 529 l 1
 297 340 l 1
481 0 m 1
 69 0 l 1
 69 43 l 1
 481 43 l 1
 481 0 l 1
EndSplineSet
EndChar

StartChar: acute
Encoding: 180 180 324
Width: 300
Flags: MW
HStem: 580 110<124 245 124 245>
VStem: 124 121<580 690>
LayerCount: 2
Fore
SplineSet
166 580 m 1
 124 580 l 1
 185 690 l 1
 245 690 l 1
 166 580 l 1
EndSplineSet
EndChar

StartChar: paragraph
Encoding: 182 182 320
Width: 552
Flags: MW
HStem: 647 43<327 432 327 327>
VStem: 282 45<-110 320 320 320> 432 45<-110 647 647 647>
LayerCount: 2
Fore
SplineSet
477 690 m 1
 477 -110 l 1
 432 -110 l 1
 432 647 l 1
 327 647 l 1
 327 -110 l 1
 282 -110 l 1
 282 320 l 1
 259 320 l 2
 241 320 220 320 203 321 c 0
 101 327 46 410 46 505 c 0
 46 600 101 683 203 689 c 0
 220 690 241 690 259 690 c 2
 477 690 l 1
EndSplineSet
EndChar

StartChar: periodcentered
Encoding: 183 183 253
Width: 177
Flags: MW
HStem: 254 102<74 103.5>
VStem: 37 103<290.5 319.5>
LayerCount: 2
Fore
SplineSet
89 356 m 0
 118 356 140 334 140 305 c 0
 140 276 118 254 89 254 c 0
 59 254 37 276 37 305 c 0
 37 334 59 356 89 356 c 0
EndSplineSet
EndChar

StartChar: cedilla
Encoding: 184 184 327
Width: 300
Flags: MW
HStem: -210 34<109 141 109 150> -75 83<91 178>
VStem: 188 45<-142 -108>
LayerCount: 2
Fore
SplineSet
178 8 m 1
 149 -44 l 1
 202 -50 233 -77 233 -125 c 0
 233 -182 182 -210 118 -210 c 0
 98 -210 81 -207 67 -201 c 1
 67 -165 l 1
 82 -173 98 -176 120 -176 c 0
 162 -176 188 -158 188 -126 c 0
 188 -90 160 -70 91 -75 c 1
 135 8 l 1
 178 8 l 1
EndSplineSet
EndChar

StartChar: guillemotright
Encoding: 187 187 271
Width: 536
Flags: MW
HStem: 82 332<65 121 65 121 65 216 216 272>
VStem: 65 344<82 248 248 414>
LayerCount: 2
Fore
SplineSet
258 248 m 1
 121 82 l 1
 65 82 l 1
 202 248 l 1
 65 414 l 1
 121 414 l 1
 258 248 l 1
409 248 m 1
 272 82 l 1
 216 82 l 1
 353 248 l 1
 216 414 l 1
 272 414 l 1
 409 248 l 1
EndSplineSet
EndChar

StartChar: questiondown
Encoding: 191 191 255
Width: 484
Flags: MW
HStem: -176 50<230.5 316.5 230.5 333.5> 447 95<274.5 301.5>
VStem: 68 69<-35 36 -35 40.5> 241 95<481 508.5> 258 61<374 374> 424 65<34 34>
LayerCount: 2
Fore
SplineSet
288 447 m 0xf4
 261 447 241 467 241 495 c 0
 241 522 261 542 288 542 c 0
 315 542 336 522 336 495 c 0
 336 467 315 447 288 447 c 0xf4
270 -176 m 0
 139 -176 68 -96 68 5 c 0
 68 76 103 139 169 203 c 0
 241 274 256 306 258 374 c 1
 319 374 l 1xec
 315 296 299 259 228 184 c 1
 162 112 137 67 137 5 c 0
 137 -75 189 -126 272 -126 c 0
 361 -126 418 -66 424 34 c 1
 489 34 l 1
 485 -92 397 -176 270 -176 c 0
EndSplineSet
EndChar

StartChar: Agrave
Encoding: 192 192 6
Width: 630
GlyphClass: 2
Flags: MW
HStem: 0 21G<32 98 32 32 552 552 552 619> 253 52<205 444 205 462 187 444> 640 50<327 327> 736 94<237 309 237 351>
VStem: 32 587<0 0>
LayerCount: 2
Fore
SplineSet
309 736 m 1
 237 830 l 1
 298 830 l 1
 351 736 l 1
 309 736 l 1
462 253 m 1
 187 253 l 1
 98 0 l 1
 32 0 l 1
 287 690 l 1
 370 690 l 1
 619 0 l 1
 552 0 l 1
 462 253 l 1
205 305 m 1
 444 305 l 1
 327 640 l 1
 205 305 l 1
EndSplineSet
Position2: "'cpsp' Capital Spacing in Latin lookup 0 subtable" dx=5 dy=0 dh=10 dv=0
EndChar

StartChar: Acircumflex
Encoding: 194 194 4
Width: 630
GlyphClass: 2
Flags: MW
HStem: 0 21G<32 98 32 32 552 552 552 619> 253 52<205 444 205 462 187 444> 640 50<327 327> 736 94<240 351 240 351 306 367 306 418>
VStem: 32 587<0 0>
LayerCount: 2
Fore
SplineSet
289 736 m 1
 240 736 l 1
 306 830 l 1
 351 830 l 1
 418 736 l 1
 367 736 l 1
 328 802 l 1
 289 736 l 1
462 253 m 1
 187 253 l 1
 98 0 l 1
 32 0 l 1
 287 690 l 1
 370 690 l 1
 619 0 l 1
 552 0 l 1
 462 253 l 1
205 305 m 1
 444 305 l 1
 327 640 l 1
 205 305 l 1
EndSplineSet
Position2: "'cpsp' Capital Spacing in Latin lookup 0 subtable" dx=5 dy=0 dh=10 dv=0
EndChar

StartChar: Atilde
Encoding: 195 195 10
Width: 630
GlyphClass: 2
Flags: MW
HStem: 0 21G<32 98 32 32 552 552 552 619> 253 52<205 444 205 462 187 444> 640 50<327 327> 752 39<375.5 385 375.5 395.5> 776 39<271 280.5>
VStem: 229 31<756 763.5 756 778> 396 31<803.5 811>
LayerCount: 2
Fore
SplineSet
276 776 m 0xee
 266 776 260 771 260 756 c 1
 229 756 l 1
 229 800 246 815 275 815 c 0xee
 293 815 308 811 335 802 c 0
 359 794 371 791 380 791 c 0
 390 791 396 796 396 811 c 1
 427 811 l 1
 427 767 410 752 381 752 c 0xf6
 363 752 348 756 321 765 c 0
 297 773 285 776 276 776 c 0xee
462 253 m 1
 187 253 l 1
 98 0 l 1
 32 0 l 1
 287 690 l 1
 370 690 l 1
 619 0 l 1
 552 0 l 1
 462 253 l 1
205 305 m 1
 444 305 l 1
 327 640 l 1
 205 305 l 1
EndSplineSet
Position2: "'cpsp' Capital Spacing in Latin lookup 0 subtable" dx=5 dy=0 dh=10 dv=0
EndChar

StartChar: Adieresis
Encoding: 196 196 5
Width: 630
GlyphClass: 2
Flags: MW
HStem: 0 21G<32 98 32 32 552 552 552 619> 253 52<205 444 205 462 187 444> 640 50<327 327> 747 72<261 281 375 395>
VStem: 235 72<773 793> 349 72<773 793>
LayerCount: 2
Fore
SplineSet
271 747 m 0
 251 747 235 763 235 783 c 0
 235 803 251 819 271 819 c 0
 291 819 307 803 307 783 c 0
 307 763 291 747 271 747 c 0
385 747 m 0
 365 747 349 763 349 783 c 0
 349 803 365 819 385 819 c 0
 405 819 421 803 421 783 c 0
 421 763 405 747 385 747 c 0
462 253 m 1
 187 253 l 1
 98 0 l 1
 32 0 l 1
 287 690 l 1
 370 690 l 1
 619 0 l 1
 552 0 l 1
 462 253 l 1
205 305 m 1
 444 305 l 1
 327 640 l 1
 205 305 l 1
EndSplineSet
Position2: "'cpsp' Capital Spacing in Latin lookup 0 subtable" dx=5 dy=0 dh=10 dv=0
EndChar

StartChar: Aring
Encoding: 197 197 9
Width: 630
GlyphClass: 2
Flags: MW
HStem: 0 21G<32 98 32 32 552 552 552 619> 253 52<205 444 205 462 187 444> 640 50<327 327> 718 31<316 340 316 351> 832 31<316 340>
VStem: 248 40<779 802.5 779 812.5> 368 41<779 802.5>
LayerCount: 2
Fore
SplineSet
328 718 m 0
 282 718 248 748 248 791 c 0
 248 834 282 863 328 863 c 0
 374 863 409 834 409 791 c 0
 409 748 374 718 328 718 c 0
328 832 m 0
 304 832 288 814 288 791 c 0
 288 767 304 749 328 749 c 0
 352 749 368 767 368 791 c 0
 368 814 352 832 328 832 c 0
462 253 m 1
 187 253 l 1
 98 0 l 1
 32 0 l 1
 287 690 l 1
 370 690 l 1xfe
 619 0 l 1
 552 0 l 1
 462 253 l 1
205 305 m 1
 444 305 l 1
 327 640 l 1
 205 305 l 1
EndSplineSet
Position2: "'cpsp' Capital Spacing in Latin lookup 0 subtable" dx=5 dy=0 dh=10 dv=0
EndChar

StartChar: AE
Encoding: 198 198 11
Width: 904
GlyphClass: 2
Flags: MW
HStem: 0 51<511 874 511 874> 253 52<221 436 221 439 191 436> 319 52<497 838 497 497> 639 51<481 864 481 481>
VStem: 427 61 445.5 58.5
LayerCount: 2
Fore
SplineSet
874 51 m 1xb8
 874 0 l 1
 452 0 l 1
 439 253 l 1
 191 253 l 1xf4
 42 0 l 1
 -26 0 l 1
 386 690 l 1
 864 690 l 1
 864 639 l 1
 481 639 l 1
 495 371 l 1xb8
 838 371 l 1
 838 319 l 1
 497 319 l 1
 511 51 l 1xb4
 874 51 l 1xb8
436 305 m 1xf8
 418 640 l 1
 221 305 l 1
 436 305 l 1xf8
EndSplineSet
Position2: "'cpsp' Capital Spacing in Latin lookup 0 subtable" dx=5 dy=0 dh=10 dv=0
EndChar

StartChar: Ccedilla
Encoding: 199 199 16
Width: 691
GlyphClass: 2
Flags: MW
HStem: -210 34<310 342 310 351> -75 31 -13 49<325 325> 654 50<296 428.5>
VStem: 49 69<249 439 249 448> 389 45<-142 -108> 578 62.5 581 62.5
AnchorPoint: "Anchor-0" 351 0 basechar 0
LayerCount: 2
Fore
SplineSet
579 229 m 1xbe
 641 229 l 1
 640 219 l 1xbe
 622 95 536 -10 367 -14 c 1
 350 -44 l 1
 403 -50 434 -77 434 -125 c 0
 434 -182 383 -210 319 -210 c 0
 299 -210 282 -207 268 -201 c 1
 268 -165 l 1
 283 -173 299 -176 321 -176 c 0
 363 -176 389 -158 389 -126 c 0
 389 -90 361 -70 292 -75 c 1
 325 -13 l 1
 154 2 49 144 49 342 c 0
 49 554 181 704 370 704 c 0
 536 704 625 606 643 475 c 1
 644 465 l 1
 582 465 l 1
 580 475 l 2xfd
 559 580 490 654 367 654 c 0
 225 654 118 533 118 345 c 0
 118 153 220 36 360 36 c 0
 488 36 556 113 577 219 c 2
 579 229 l 1xbe
EndSplineSet
Position2: "'cpsp' Capital Spacing in Latin lookup 0 subtable" dx=5 dy=0 dh=10 dv=0
EndChar

StartChar: Egrave
Encoding: 200 200 28
Width: 576
GlyphClass: 2
Flags: MW
HStem: 0 51<161 546 161 546> 319 52<161 510 161 510> 639 51<161 536 161 161> 639 191<228 289 228 536 161 289>
VStem: 99 62<51 319 371 639>
AnchorPoint: "Anchor-0" 299 0 basechar 0
LayerCount: 2
Fore
SplineSet
300 736 m 1xd8
 228 830 l 1
 289 830 l 1
 342 736 l 1
 300 736 l 1xd8
546 51 m 1
 546 0 l 1
 99 0 l 1
 99 690 l 1
 536 690 l 1
 536 639 l 1
 161 639 l 1xe8
 161 371 l 1
 510 371 l 1
 510 319 l 1
 161 319 l 1
 161 51 l 1
 546 51 l 1
EndSplineSet
Position2: "'cpsp' Capital Spacing in Latin lookup 0 subtable" dx=5 dy=0 dh=10 dv=0
EndChar

StartChar: Eacute
Encoding: 201 201 23
Width: 576
GlyphClass: 2
Flags: MW
HStem: 0 51<161 546 161 546> 319 52<161 510 161 510> 639 51<161 536 161 161> 639 191<348 408 348 536 161 408>
VStem: 99 62<51 319 371 639>
AnchorPoint: "Anchor-0" 299 0 basechar 0
LayerCount: 2
Fore
SplineSet
336 736 m 1xd8
 294 736 l 1
 348 830 l 1
 408 830 l 1
 336 736 l 1xd8
546 51 m 1
 546 0 l 1
 99 0 l 1
 99 690 l 1
 536 690 l 1
 536 639 l 1
 161 639 l 1xe8
 161 371 l 1
 510 371 l 1
 510 319 l 1
 161 319 l 1
 161 51 l 1
 546 51 l 1
EndSplineSet
Position2: "'cpsp' Capital Spacing in Latin lookup 0 subtable" dx=5 dy=0 dh=10 dv=0
EndChar

StartChar: Ecircumflex
Encoding: 202 202 25
Width: 576
GlyphClass: 2
Flags: MW
HStem: 0 51<161 546 161 546> 319 52<161 510 161 510> 639 51<161 536 161 161> 736 94<231 342 231 342 297 358 297 409>
VStem: 99 62<51 319 371 639>
AnchorPoint: "Anchor-0" 299 0 basechar 0
LayerCount: 2
Fore
SplineSet
280 736 m 1
 231 736 l 1
 297 830 l 1
 342 830 l 1
 409 736 l 1
 358 736 l 1
 319 802 l 1
 280 736 l 1
546 51 m 1
 546 0 l 1
 99 0 l 1
 99 690 l 1
 536 690 l 1
 536 639 l 1
 161 639 l 1
 161 371 l 1
 510 371 l 1
 510 319 l 1
 161 319 l 1
 161 51 l 1
 546 51 l 1
EndSplineSet
Position2: "'cpsp' Capital Spacing in Latin lookup 0 subtable" dx=5 dy=0 dh=10 dv=0
EndChar

StartChar: Edieresis
Encoding: 203 203 26
Width: 576
GlyphClass: 2
Flags: MW
HStem: 0 51<161 546 161 546> 319 52<161 510 161 510> 639 51<161 536 161 161> 747 72<252 272 366 386>
VStem: 99 62<51 319 371 639> 226 72<773 793> 340 72<773 793>
AnchorPoint: "Anchor-0" 299 0 basechar 0
LayerCount: 2
Fore
SplineSet
262 747 m 0
 242 747 226 763 226 783 c 0
 226 803 242 819 262 819 c 0
 282 819 298 803 298 783 c 0
 298 763 282 747 262 747 c 0
376 747 m 0
 356 747 340 763 340 783 c 0
 340 803 356 819 376 819 c 0
 396 819 412 803 412 783 c 0
 412 763 396 747 376 747 c 0
546 51 m 1
 546 0 l 1
 99 0 l 1
 99 690 l 1
 536 690 l 1
 536 639 l 1
 161 639 l 1
 161 371 l 1
 510 371 l 1
 510 319 l 1
 161 319 l 1
 161 51 l 1
 546 51 l 1
EndSplineSet
Position2: "'cpsp' Capital Spacing in Latin lookup 0 subtable" dx=5 dy=0 dh=10 dv=0
EndChar

StartChar: Igrave
Encoding: 204 204 44
Width: 236
GlyphClass: 2
Flags: MW
HStem: 0 21G<99 161 99 99> 670 20G<99 161 161 161> 736 94<38 152 38 110>
VStem: 99 62<0 690>
LayerCount: 2
Fore
SplineSet
152 736 m 1
 110 736 l 1
 38 830 l 1
 99 830 l 1
 152 736 l 1
161 0 m 1
 99 0 l 1
 99 690 l 1
 161 690 l 1
 161 0 l 1
EndSplineSet
Position2: "'cpsp' Capital Spacing in Latin lookup 0 subtable" dx=5 dy=0 dh=10 dv=0
EndChar

StartChar: Iacute
Encoding: 205 205 40
Width: 236
GlyphClass: 2
Flags: MW
HStem: 0 21G<99 161 99 99> 670 20G<99 161 161 161> 736 94<104 218 104 218>
VStem: 99 62<0 690>
LayerCount: 2
Fore
SplineSet
146 736 m 1
 104 736 l 1
 158 830 l 1
 218 830 l 1
 146 736 l 1
161 0 m 1
 99 0 l 1
 99 690 l 1
 161 690 l 1
 161 0 l 1
EndSplineSet
Position2: "'cpsp' Capital Spacing in Latin lookup 0 subtable" dx=5 dy=0 dh=10 dv=0
EndChar

StartChar: Icircumflex
Encoding: 206 206 41
Width: 236
GlyphClass: 2
Flags: MW
HStem: 0 21G<99 161 99 99> 670 20G<99 161 161 161> 736 94<41 152 41 152 107 219 107 168>
VStem: 99 62<0 690 0 690>
LayerCount: 2
Fore
SplineSet
219 736 m 1
 168 736 l 1
 129 802 l 1
 90 736 l 1
 41 736 l 1
 107 830 l 1
 152 830 l 1
 219 736 l 1
99 690 m 1
 161 690 l 1
 161 0 l 1
 99 0 l 1
 99 690 l 1
EndSplineSet
Position2: "'cpsp' Capital Spacing in Latin lookup 0 subtable" dx=5 dy=0 dh=10 dv=0
EndChar

StartChar: Idieresis
Encoding: 207 207 42
Width: 236
GlyphClass: 2
Flags: MW
HStem: 0 21G<99 161 99 99> 670 20G<99 161 161 161> 747 72<62 82 176 196>
VStem: 36 72<773 793> 99 62<0 690> 150 72<773 793>
LayerCount: 2
Fore
SplineSet
72 819 m 0xf4
 92 819 108 803 108 783 c 0
 108 763 92 747 72 747 c 0
 52 747 36 763 36 783 c 0
 36 803 52 819 72 819 c 0xf4
186 819 m 0
 206 819 222 803 222 783 c 0
 222 763 206 747 186 747 c 0
 166 747 150 763 150 783 c 0
 150 803 166 819 186 819 c 0
161 0 m 1xe8
 99 0 l 1
 99 690 l 1
 161 690 l 1
 161 0 l 1xe8
EndSplineSet
Position2: "'cpsp' Capital Spacing in Latin lookup 0 subtable" dx=5 dy=0 dh=10 dv=0
EndChar

StartChar: Eth
Encoding: 208 208 19
Width: 695
GlyphClass: 2
Flags: MW
HStem: 0 52<158 295 295 299> 312 43<36 96 36 96 158 312> 638 52<158 299 158 158>
VStem: 96 62<52 312 52 312 52 312 355 638> 589 68<261.5 439.5>
LayerCount: 2
Fore
SplineSet
384 687 m 0
 524 671 657 571 657 351 c 0
 657 133 521 21 387 4 c 0
 352 0 334 0 299 0 c 2
 96 0 l 1
 96 312 l 1
 36 312 l 1
 36 355 l 1
 96 355 l 1
 96 690 l 1
 302 690 l 2
 337 690 353 690 384 687 c 0
380 56 m 0
 494 73 589 172 589 351 c 0
 589 528 492 619 378 635 c 0
 356 638 335 638 299 638 c 2
 158 638 l 1
 158 355 l 1
 312 355 l 1
 312 312 l 1
 158 312 l 1
 158 52 l 1
 295 52 l 2
 330 52 354 52 380 56 c 0
EndSplineSet
Position2: "'cpsp' Capital Spacing in Latin lookup 0 subtable" dx=5 dy=0 dh=10 dv=0
EndChar

StartChar: Ntilde
Encoding: 209 209 62
Width: 688
GlyphClass: 2
Flags: MW
HStem: 0 60<553 553 553 612 517 553> 630 60<158 158> 752 39<402.5 412 402.5 422.5> 776 39<298 307.5>
VStem: 99 62<0 356 0 690> 256 31<756 763.5 756 778> 423 31<803.5 811> 550 61.5
AnchorPoint: "Anchor-0" 355 0 basechar 0
LayerCount: 2
Fore
SplineSet
302 815 m 0xdd
 320 815 335 811 362 802 c 0
 386 794 398 791 407 791 c 0
 417 791 423 796 423 811 c 1
 454 811 l 1
 454 767 437 752 408 752 c 0xef
 390 752 375 756 348 765 c 0
 324 773 312 776 303 776 c 0
 293 776 287 771 287 756 c 1
 256 756 l 1
 256 800 273 815 302 815 c 0xdd
612 0 m 1
 517 0 l 1
 158 630 l 1
 160 545 161 442 161 356 c 2
 161 0 l 1
 99 0 l 1
 99 690 l 1
 193 690 l 1
 553 60 l 1
 551 146 550 248 550 334 c 2
 550 690 l 1
 611 690 l 1
 612 0 l 1
EndSplineSet
Position2: "'cpsp' Capital Spacing in Latin lookup 0 subtable" dx=5 dy=0 dh=10 dv=0
EndChar

StartChar: Ocircumflex
Encoding: 212 212 65
Width: 728
GlyphClass: 2
Flags: MW
HStem: -14 50<295 443.5 295 470> 654 50<295 443.5> 736 94<281 392 281 392 347 408 347 459>
VStem: 49 69<248.5 442 248.5 450> 621 69<248.5 442>
LayerCount: 2
Fore
SplineSet
330 736 m 1
 281 736 l 1
 347 830 l 1
 392 830 l 1
 459 736 l 1
 408 736 l 1
 369 802 l 1
 330 736 l 1
369 704 m 0
 571 704 690 555 690 345 c 0
 690 137 571 -14 369 -14 c 0
 168 -14 49 137 49 345 c 0
 49 555 168 704 369 704 c 0
369 36 m 0
 518 36 621 152 621 345 c 0
 621 539 518 654 369 654 c 0
 221 654 118 539 118 345 c 0
 118 152 221 36 369 36 c 0
EndSplineSet
Position2: "'cpsp' Capital Spacing in Latin lookup 0 subtable" dx=5 dy=0 dh=10 dv=0
EndChar

StartChar: Otilde
Encoding: 213 213 71
Width: 728
GlyphClass: 2
Flags: MW
HStem: -14 50<295 443.5 295 470> 654 50<295 443.5> 752 39<416.5 426 416.5 436.5> 776 39<312 321.5>
VStem: 49 69<248.5 442 248.5 450> 270 31<756 763.5 756 778> 437 31<803.5 811> 621 69<248.5 442>
LayerCount: 2
Fore
SplineSet
317 776 m 0xdd
 307 776 301 771 301 756 c 1
 270 756 l 1
 270 800 287 815 316 815 c 0xdd
 334 815 349 811 376 802 c 0
 400 794 412 791 421 791 c 0
 431 791 437 796 437 811 c 1
 468 811 l 1
 468 767 451 752 422 752 c 0xef
 404 752 389 756 362 765 c 0
 338 773 326 776 317 776 c 0xdd
369 704 m 0
 571 704 690 555 690 345 c 0
 690 137 571 -14 369 -14 c 0
 168 -14 49 137 49 345 c 0
 49 555 168 704 369 704 c 0
369 36 m 0
 518 36 621 152 621 345 c 0
 621 539 518 654 369 654 c 0
 221 654 118 539 118 345 c 0
 118 152 221 36 369 36 c 0
EndSplineSet
Position2: "'cpsp' Capital Spacing in Latin lookup 0 subtable" dx=5 dy=0 dh=10 dv=0
EndChar

StartChar: Odieresis
Encoding: 214 214 66
Width: 728
GlyphClass: 2
Flags: MW
HStem: -14 50<295 443.5 295 470> 654 50<295 443.5> 747 72<302 322 416 436>
VStem: 49 69<248.5 442 248.5 450> 276 72<773 793> 390 72<773 793> 621 69<248.5 442>
LayerCount: 2
Fore
SplineSet
312 747 m 0
 292 747 276 763 276 783 c 0
 276 803 292 819 312 819 c 0
 332 819 348 803 348 783 c 0
 348 763 332 747 312 747 c 0
426 747 m 0
 406 747 390 763 390 783 c 0
 390 803 406 819 426 819 c 0
 446 819 462 803 462 783 c 0
 462 763 446 747 426 747 c 0
369 704 m 0
 571 704 690 555 690 345 c 0
 690 137 571 -14 369 -14 c 0
 168 -14 49 137 49 345 c 0
 49 555 168 704 369 704 c 0
369 36 m 0
 518 36 621 152 621 345 c 0
 621 539 518 654 369 654 c 0
 221 654 118 539 118 345 c 0
 118 152 221 36 369 36 c 0
EndSplineSet
Position2: "'cpsp' Capital Spacing in Latin lookup 0 subtable" dx=5 dy=0 dh=10 dv=0
EndChar

StartChar: multiply
Encoding: 215 215 300
Width: 561
Flags: MW
HStem: 140 348<138 138 138 424>
VStem: 107 348<171 171 171 457>
LayerCount: 2
Fore
SplineSet
312 314 m 1
 455 171 l 1
 424 140 l 1
 281 283 l 1
 138 140 l 1
 107 171 l 1
 250 314 l 1
 107 457 l 1
 138 488 l 1
 281 345 l 1
 424 488 l 1
 455 457 l 1
 312 314 l 1
EndSplineSet
EndChar

StartChar: Oslash
Encoding: 216 216 70
Width: 733
GlyphClass: 2
Flags: MW
HStem: -14 50<333 446 333 473> 654 50<297.5 411>
VStem: 51 69<309 442 309 450> 624 69<248.5 381>
LayerCount: 2
Fore
SplineSet
699 641 m 1
 631 573 l 1
 671 513 693 434 693 345 c 0
 693 137 574 -14 372 -14 c 0
 274 -14 195 22 140 82 c 1
 76 18 l 1
 45 49 l 1
 113 117 l 1
 73 178 51 256 51 345 c 0
 51 555 170 704 372 704 c 0
 470 704 549 669 604 608 c 1
 668 672 l 1
 699 641 l 1
120 345 m 0
 120 273 134 212 160 164 c 1
 560 564 l 1
 515 622 450 654 372 654 c 0
 223 654 120 539 120 345 c 0
624 345 m 0
 624 417 610 478 584 526 c 1
 184 126 l 1
 229 68 294 36 372 36 c 0
 520 36 624 152 624 345 c 0
EndSplineSet
Position2: "'cpsp' Capital Spacing in Latin lookup 0 subtable" dx=5 dy=0 dh=10 dv=0
EndChar

StartChar: Uacute
Encoding: 218 218 91
Width: 651
GlyphClass: 2
Flags: MW
HStem: -14 50<280 395.5 280 416.5> 670 20G<93 155 155 155 521 583 583 583> 736 94<313 427 313 427>
VStem: 93 62<247 250 250 690> 521 62<250 690>
LayerCount: 2
Fore
SplineSet
355 736 m 1
 313 736 l 1
 367 830 l 1
 427 830 l 1
 355 736 l 1
583 690 m 1
 583 247 l 2
 583 227 582 207 580 183 c 0
 572 71 495 -14 338 -14 c 0
 180 -14 104 71 95 183 c 0
 93 207 93 227 93 247 c 2
 93 690 l 1
 155 690 l 1
 155 250 l 2
 155 228 155 208 157 189 c 0
 165 102 222 36 338 36 c 0
 453 36 510 102 518 189 c 0
 520 208 521 228 521 250 c 2
 521 690 l 1
 583 690 l 1
EndSplineSet
Position2: "'cpsp' Capital Spacing in Latin lookup 0 subtable" dx=5 dy=0 dh=10 dv=0
EndChar

StartChar: Udieresis
Encoding: 220 220 93
Width: 651
GlyphClass: 2
Flags: MW
HStem: -14 50<280 395.5 280 416.5> 670 20G<93 155 155 155 521 583 583 583> 747 72<271 291 385 405>
VStem: 93 62<247 250 250 690> 245 72<773 793> 359 72<773 793> 521 62<250 690>
LayerCount: 2
Fore
SplineSet
281 819 m 0
 301 819 317 803 317 783 c 0
 317 763 301 747 281 747 c 0
 261 747 245 763 245 783 c 0
 245 803 261 819 281 819 c 0
395 819 m 0
 415 819 431 803 431 783 c 0
 431 763 415 747 395 747 c 0
 375 747 359 763 359 783 c 0
 359 803 375 819 395 819 c 0
583 690 m 1
 583 247 l 2
 583 227 582 207 580 183 c 0
 572 71 495 -14 338 -14 c 0
 180 -14 104 71 95 183 c 0
 93 207 93 227 93 247 c 2
 93 690 l 1
 155 690 l 1
 155 250 l 2
 155 228 155 208 157 189 c 0
 165 102 222 36 338 36 c 0
 453 36 510 102 518 189 c 0
 520 208 521 228 521 250 c 2
 521 690 l 1
 583 690 l 1
EndSplineSet
Position2: "'cpsp' Capital Spacing in Latin lookup 0 subtable" dx=5 dy=0 dh=10 dv=0
EndChar

StartChar: Yacute
Encoding: 221 221 107
Width: 568
GlyphClass: 2
Flags: MW
HStem: 0 21G<265 327 265 265> 670 20G<21 92 92 92 501 572 572 572> 736 94<271 385 271 385>
VStem: 265 62<0 275 275 275>
LayerCount: 2
Fore
SplineSet
313 736 m 1
 271 736 l 1
 325 830 l 1
 385 830 l 1
 313 736 l 1
327 276 m 1
 327 0 l 1
 265 0 l 1
 265 275 l 1
 21 690 l 1
 92 690 l 1
 299 336 l 1
 501 690 l 1
 572 690 l 1
 327 276 l 1
EndSplineSet
Position2: "'cpsp' Capital Spacing in Latin lookup 0 subtable" dx=5 dy=0 dh=10 dv=0
EndChar

StartChar: Thorn
Encoding: 222 222 74
Width: 634
GlyphClass: 2
Flags: MW
HStem: 0 21G<99 161 99 99> 211 53<161 293 161 293> 538 53<161 293 161 293> 538 152<99 293 99 161>
VStem: 99 62<0 211 0 264 264 538 591 690> 491 67<359 444.5>
LayerCount: 2
Fore
SplineSet
386 586 m 0xec
 484 574 558 516 558 404 c 0
 558 290 484 228 386 215 c 0
 355 211 328 211 293 211 c 2
 161 211 l 1
 161 0 l 1
 99 0 l 1
 99 690 l 1
 161 690 l 1xdc
 161 591 l 1
 293 591 l 2
 328 591 355 590 386 586 c 0xec
377 269 m 0
 439 279 491 316 491 402 c 0
 491 487 439 522 377 533 c 0
 353 537 326 538 293 538 c 2
 161 538 l 1
 161 264 l 1
 293 264 l 2
 326 264 353 265 377 269 c 0
EndSplineSet
Position2: "'cpsp' Capital Spacing in Latin lookup 0 subtable" dx=5 dy=0 dh=10 dv=0
EndChar

StartChar: germandbls
Encoding: 223 223 199
Width: 580
GlyphClass: 2
Flags: MW
HStem: -4 49<339 390 339 408> 0 21G<73 135 73 73> 704 50<249.5 334>
VStem: 73 62<0 484 484 490 0 494> 316 69<378 412.5 378 420.5> 430 69<569.5 620> 469 69<112 160.5>
LayerCount: 2
Fore
SplineSet
294 754 m 0x7c
 415 754 499 688 499 583 c 0xbc
 499 551 491 517 467 480 c 1
 414 453 385 429 385 396 c 0
 385 360 402 336 448 298 c 0
 509 246 538 204 538 138 c 0
 538 49 461 -4 355 -4 c 0
 322 -4 292 -2 253 6 c 1
 253 58 l 1
 295 48 326 45 352 45 c 0
 428 45 469 82 469 142 c 0xba
 469 179 456 209 397 262 c 0
 336 316 316 344 316 396 c 0
 316 445 346 479 410 511 c 1
 425 535 430 557 430 582 c 0
 430 658 377 704 291 704 c 0
 208 704 144 649 137 546 c 0
 136 532 135 513 135 490 c 2
 135 0 l 1
 73 0 l 1
 73 484 l 2
 73 504 74 530 75 548 c 0
 83 685 177 754 294 754 c 0x7c
EndSplineSet
EndChar

StartChar: acircumflex
Encoding: 226 226 118
Width: 517
GlyphClass: 2
Flags: MW
HStem: -14 49<188.5 237> 0 21G<390 390 390 452> 265 48<346 380> 493 50<223.5 298> 580 110<173 284 173 284 239 302 239 351> 655 35<261 261>
VStem: 40 68<104.5 189 104.5 193.5> 380 62<204 265 265 265 313 332 332 333>
LayerCount: 2
Fore
SplineSet
221 580 m 1xbb
 173 580 l 1
 239 690 l 1
 284 690 l 1
 351 580 l 1
 302 580 l 1x7b
 261 655 l 1xb7
 221 580 l 1xbb
390 0 m 1
 381 96 l 1x7b
 355 40 l 1
 318 3 266 -14 208 -14 c 0xbb
 110 -14 40 37 40 133 c 0
 40 254 155 313 346 313 c 2
 380 313 l 1
 380 332 l 2
 380 356 380 376 378 397 c 0
 373 458 336 493 260 493 c 0
 187 493 135 454 127 372 c 1
 62 372 l 1
 69 476 148 543 260 543 c 0
 377 543 432 490 440 403 c 0
 442 380 442 358 442 333 c 2
 442 148 l 2
 442 101 445 63 452 0 c 1
 390 0 l 1
227 35 m 0xbb
 319 35 380 105 380 204 c 2
 380 265 l 1
 231 275 108 240 108 138 c 0
 108 71 150 35 227 35 c 0xbb
EndSplineSet
EndChar

StartChar: atilde
Encoding: 227 227 124
Width: 517
GlyphClass: 2
Flags: MW
HStem: -14 49<188.5 237> 0 21G<390 390 390 452> 265 48<346 380> 493 50<223.5 298> 607 40<308.5 318 308.5 328.5> 632 39<204 213.5>
VStem: 40 68<104.5 189 104.5 193.5> 162 31<611 618.5 611 633.5> 329 31<659.5 667> 380 62<204 265 265 265 313 332 332 333>
LayerCount: 2
Fore
SplineSet
209 632 m 0xb740
 199 632 193 626 193 611 c 1
 162 611 l 1
 162 656 179 671 208 671 c 0xb740
 226 671 241 667 268 658 c 0
 292 650 304 647 313 647 c 0
 323 647 329 652 329 667 c 1
 360 667 l 1
 360 622 343 607 314 607 c 0xbbc0
 296 607 281 611 254 620 c 0
 230 628 218 632 209 632 c 0xb740
390 0 m 1x7b40
 381 96 l 1x7b40
 355 40 l 1
 318 3 266 -14 208 -14 c 0xbb40
 110 -14 40 37 40 133 c 0
 40 254 155 313 346 313 c 2
 380 313 l 1
 380 332 l 2
 380 356 380 376 378 397 c 0
 373 458 336 493 260 493 c 0
 187 493 135 454 127 372 c 1
 62 372 l 1
 69 476 148 543 260 543 c 0
 377 543 432 490 440 403 c 0
 442 380 442 358 442 333 c 2
 442 148 l 2
 442 101 445 63 452 0 c 1
 390 0 l 1x7b40
227 35 m 0xbb40
 319 35 380 105 380 204 c 2
 380 265 l 1
 231 275 108 240 108 138 c 0
 108 71 150 35 227 35 c 0xbb40
EndSplineSet
EndChar

StartChar: adieresis
Encoding: 228 228 119
Width: 517
GlyphClass: 2
Flags: MW
HStem: -14 49<188.5 237> 0 21G<390 390 390 452> 265 48<346 380> 493 50<223.5 298> 594 73<190.5 210 312 331.5>
VStem: 40 68<104.5 189 104.5 193.5> 164 73<621 640.5> 285 73<621 640.5> 380 62<204 265 265 265 313 332 332 333>
LayerCount: 2
Fore
SplineSet
200 594 m 0xbe80
 181 594 164 611 164 631 c 0
 164 650 181 667 200 667 c 0
 220 667 237 650 237 631 c 0
 237 611 220 594 200 594 c 0xbe80
322 594 m 0xbf80
 302 594 285 611 285 631 c 0
 285 650 302 667 322 667 c 0
 341 667 358 650 358 631 c 0
 358 611 341 594 322 594 c 0xbf80
390 0 m 1x7e80
 381 96 l 1x7e80
 355 40 l 1
 318 3 266 -14 208 -14 c 0xbe80
 110 -14 40 37 40 133 c 0
 40 254 155 313 346 313 c 2
 380 313 l 1
 380 332 l 2
 380 356 380 376 378 397 c 0
 373 458 336 493 260 493 c 0
 187 493 135 454 127 372 c 1
 62 372 l 1
 69 476 148 543 260 543 c 0
 377 543 432 490 440 403 c 0
 442 380 442 358 442 333 c 2
 442 148 l 2
 442 101 445 63 452 0 c 1
 390 0 l 1x7e80
227 35 m 0xbe80
 319 35 380 105 380 204 c 2
 380 265 l 1
 231 275 108 240 108 138 c 0
 108 71 150 35 227 35 c 0xbe80
EndSplineSet
EndChar

StartChar: aring
Encoding: 229 229 123
Width: 517
GlyphClass: 2
Flags: MW
HStem: -14 49<188.5 237> 0 21G<390 390 390 452> 265 48<346 380> 493 50<223.5 298> 568 30<249 273 249 284> 689 30<249 273>
VStem: 40 68<104.5 189 104.5 193.5> 181 40<629.5 656.5 629.5 665.5> 301 40<629.5 656.5> 380 62<204 265 265 265 313 332 332 333>
LayerCount: 2
Fore
SplineSet
261 568 m 0x7fc0
 215 568 181 599 181 643 c 0
 181 688 215 719 261 719 c 0
 307 719 341 688 341 643 c 0
 341 599 307 568 261 568 c 0x7fc0
261 689 m 0
 237 689 221 670 221 643 c 0
 221 616 237 598 261 598 c 0
 285 598 301 616 301 643 c 0
 301 670 285 689 261 689 c 0
390 0 m 1
 381 96 l 1x77c0
 355 40 l 1
 318 3 266 -14 208 -14 c 0
 110 -14 40 37 40 133 c 0
 40 254 155 313 346 313 c 2
 380 313 l 1
 380 332 l 2
 380 356 380 376 378 397 c 0
 373 458 336 493 260 493 c 0
 187 493 135 454 127 372 c 1
 62 372 l 1
 69 476 148 543 260 543 c 0xb7c0
 377 543 432 490 440 403 c 0
 442 380 442 358 442 333 c 2
 442 148 l 2
 442 101 445 63 452 0 c 1
 390 0 l 1
227 35 m 0xb7c0
 319 35 380 105 380 204 c 2
 380 265 l 1
 231 275 108 240 108 138 c 0
 108 71 150 35 227 35 c 0xb7c0
EndSplineSet
EndChar

StartChar: ae
Encoding: 230 230 125
Width: 901
GlyphClass: 2
Flags: MW
HStem: -14 49<193.5 251 586.5 668> 246 49<460 799 460 861 460 799> 493 50<224.5 310.5 595 681>
VStem: 40 68<104.5 186 104.5 193.5> 398 62<217 246 246 246 246 322> 799 63<295 295>
LayerCount: 2
Fore
SplineSet
862 279 m 0
 862 272 862 262 861 246 c 1
 460 246 l 1
 467 95 542 35 631 35 c 0
 705 35 771 80 790 167 c 1
 855 167 l 1
 830 44 733 -14 628 -14 c 0
 542 -14 461 23 424 119 c 1
 399 65 l 1
 346 8 286 -14 216 -14 c 0
 122 -14 40 35 40 133 c 0
 40 254 169 296 364 296 c 2
 398 296 l 1
 398 322 l 2
 398 430 359 493 262 493 c 0
 187 493 132 454 125 372 c 1
 61 372 l 1
 65 476 144 543 262 543 c 0
 363 543 419 504 443 430 c 1
 483 503 552 543 638 543 c 0
 788 543 862 425 862 279 c 0
460 295 m 1
 799 295 l 1
 792 432 726 493 636 493 c 0
 542 493 469 428 460 295 c 1
398 217 m 2
 398 246 l 1
 239 253 108 234 108 138 c 0
 108 71 156 35 231 35 c 0
 326 35 398 107 398 217 c 2
EndSplineSet
EndChar

StartChar: ccedilla
Encoding: 231 231 130
Width: 525
GlyphClass: 2
Flags: MW
HStem: -210 34<217 249 217 258> -75 110<199 308> -12 47<232 232> 494 49<229.5 316.5>
VStem: 30 68<187.5 345.5 187.5 351.5> 296 45<-142 -108>
AnchorPoint: "Anchor-0" 258 0 basechar 0
LayerCount: 2
Fore
SplineSet
269 35 m 0xbc
 347 35 407 80 426 165 c 1
 490 165 l 1
 467 51 384 -11 274 -14 c 1
 257 -44 l 1
 310 -50 341 -77 341 -125 c 0
 341 -182 290 -210 226 -210 c 0
 206 -210 189 -207 175 -201 c 1
 175 -165 l 1
 190 -173 206 -176 228 -176 c 0
 270 -176 296 -158 296 -126 c 0
 296 -90 268 -70 199 -75 c 1xdc
 232 -12 l 1
 116 2 30 93 30 264 c 0
 30 439 143 543 276 543 c 0
 398 543 479 468 495 356 c 1
 430 356 l 1
 412 445 359 494 274 494 c 0
 185 494 98 422 98 269 c 0
 98 106 180 35 269 35 c 0xbc
EndSplineSet
EndChar

StartChar: egrave
Encoding: 232 232 142
Width: 539
GlyphClass: 2
Flags: MW
HStem: -14 49<226 306 226 318> 246 49<97 437 97 498 97 437> 493 50<229.5 317.5> 580 110<174 253 174 296>
VStem: 30 67<246 246 246 295 246 349> 437 63<295 295>
AnchorPoint: "Anchor-0" 264 0 basechar 0
LayerCount: 2
Fore
SplineSet
253 580 m 1
 174 690 l 1
 235 690 l 1
 296 580 l 1
 253 580 l 1
500 279 m 0
 500 272 500 262 498 246 c 1
 97 246 l 1
 104 90 183 35 269 35 c 0
 343 35 409 80 428 167 c 1
 493 167 l 1
 468 44 371 -14 265 -14 c 0
 133 -14 30 78 30 264 c 0
 30 434 136 543 275 543 c 0
 423 543 500 425 500 279 c 0
273 493 m 0
 186 493 106 427 97 295 c 1
 437 295 l 1
 430 431 362 493 273 493 c 0
EndSplineSet
EndChar

StartChar: ecircumflex
Encoding: 234 234 139
Width: 539
GlyphClass: 2
Flags: MW
HStem: -14 49<226 306 226 318> 246 49<97 437 97 498 97 437> 493 50<229.5 317.5> 580 110<181 292 181 292 247 310 247 359> 655 35<269 269>
VStem: 30 67<246 246 246 295 246 349> 437 63<295 295>
AnchorPoint: "Anchor-0" 264 0 basechar 0
LayerCount: 2
Fore
SplineSet
229 580 m 1xf6
 181 580 l 1
 247 690 l 1
 292 690 l 1
 359 580 l 1
 310 580 l 1xf6
 269 655 l 1xee
 229 580 l 1xf6
500 279 m 0
 500 272 500 262 498 246 c 1
 97 246 l 1
 104 90 183 35 269 35 c 0
 343 35 409 80 428 167 c 1
 493 167 l 1
 468 44 371 -14 265 -14 c 0
 133 -14 30 78 30 264 c 0
 30 434 136 543 275 543 c 0
 423 543 500 425 500 279 c 0
273 493 m 0
 186 493 106 427 97 295 c 1
 437 295 l 1
 430 431 362 493 273 493 c 0
EndSplineSet
EndChar

StartChar: edieresis
Encoding: 235 235 140
Width: 539
GlyphClass: 2
Flags: MW
HStem: -14 49<226 306 226 318> 246 49<97 437 97 498 97 437> 493 50<229.5 317.5> 594 73<198.5 218 320 339.5>
VStem: 30 67<246 246 246 295 246 349> 172 73<621 640.5> 293 73<621 640.5> 437 63<295 295>
AnchorPoint: "Anchor-0" 264 0 basechar 0
LayerCount: 2
Fore
SplineSet
208 594 m 0
 189 594 172 611 172 631 c 0
 172 650 189 667 208 667 c 0
 228 667 245 650 245 631 c 0
 245 611 228 594 208 594 c 0
330 594 m 0
 310 594 293 611 293 631 c 0
 293 650 310 667 330 667 c 0
 349 667 366 650 366 631 c 0
 366 611 349 594 330 594 c 0
500 279 m 0
 500 272 500 262 498 246 c 1
 97 246 l 1
 104 90 183 35 269 35 c 0
 343 35 409 80 428 167 c 1
 493 167 l 1
 468 44 371 -14 265 -14 c 0
 133 -14 30 78 30 264 c 0
 30 434 136 543 275 543 c 0
 423 543 500 425 500 279 c 0
273 493 m 0
 186 493 106 427 97 295 c 1
 437 295 l 1
 430 431 362 493 273 493 c 0
EndSplineSet
EndChar

StartChar: igrave
Encoding: 236 236 157
Width: 210
GlyphClass: 2
Flags: MW
HStem: 0 21G<73 135 73 73> 509 20G<73 135 135 135> 580 110<1 123 1 80>
VStem: 73 62<0 529>
LayerCount: 2
Fore
SplineSet
123 580 m 1
 80 580 l 1
 1 690 l 1
 62 690 l 1
 123 580 l 1
135 0 m 1
 73 0 l 1
 73 529 l 1
 135 529 l 1
 135 0 l 1
EndSplineSet
EndChar

StartChar: iacute
Encoding: 237 237 154
Width: 210
GlyphClass: 2
Flags: MW
HStem: 0 21G<73 135 73 73> 509 20G<73 135 135 135> 580 110<78 199 78 199>
VStem: 73 62<0 529>
LayerCount: 2
Fore
SplineSet
120 580 m 1
 78 580 l 1
 139 690 l 1
 199 690 l 1
 120 580 l 1
135 0 m 1
 73 0 l 1
 73 529 l 1
 135 529 l 1
 135 0 l 1
EndSplineSet
EndChar

StartChar: icircumflex
Encoding: 238 238 155
Width: 210
GlyphClass: 2
Flags: MW
HStem: 0 21G<73 135 73 73> 509 20G<73 135 135 135> 580 110<16 127 16 127 82 194 82 145> 655 35<104 104>
VStem: 73 62<0 529 0 529>
LayerCount: 2
Fore
SplineSet
194 580 m 1xe8
 145 580 l 1xe8
 104 655 l 1xd8
 64 580 l 1
 16 580 l 1
 82 690 l 1
 127 690 l 1
 194 580 l 1xe8
73 529 m 1
 135 529 l 1
 135 0 l 1
 73 0 l 1
 73 529 l 1
EndSplineSet
EndChar

StartChar: idieresis
Encoding: 239 239 156
Width: 210
GlyphClass: 2
Flags: MW
HStem: 0 21G<73 135 73 73> 509 20G<73 135 135 135> 594 73<33.5 53 155 174.5>
VStem: 7 73<621 640.5> 73 62<0 529> 128 73<621 640.5>
LayerCount: 2
Fore
SplineSet
43 667 m 0xf4
 63 667 80 650 80 631 c 0
 80 611 63 594 43 594 c 0
 24 594 7 611 7 631 c 0
 7 650 24 667 43 667 c 0xf4
165 667 m 0
 184 667 201 650 201 631 c 0
 201 611 184 594 165 594 c 0
 145 594 128 611 128 631 c 0
 128 650 145 667 165 667 c 0
135 0 m 1xe8
 73 0 l 1
 73 529 l 1
 135 529 l 1
 135 0 l 1xe8
EndSplineSet
EndChar

StartChar: eth
Encoding: 240 240 133
Width: 561
GlyphClass: 2
Flags: MW
HStem: -14 49<218 322.5 218 334.5> 495 49<224.5 293.5 201.5 319.5> 683 20G<238 238> 725 20G<277 277>
VStem: 30 68<192 335.5 192 344> 447 67<271 297 297 363.5>
LayerCount: 2
Fore
SplineSet
470 674 m 1
 418 653 l 1
 484 579 514 469 514 307 c 0
 514 77 403 -14 266 -14 c 0
 111 -14 30 102 30 257 c 0
 30 431 134 544 269 544 c 0
 318 544 354 534 392 509 c 1
 438 447 l 1
 431 527 406 587 364 630 c 1
 215 569 l 1
 199 609 l 1
 327 662 l 1
 301 679 272 693 238 703 c 1
 277 745 l 1
 319 730 354 710 385 685 c 1
 454 714 l 1
 470 674 l 1
447 271 m 2
 447 297 l 2
 447 430 364 495 275 495 c 0
 174 495 98 407 98 264 c 0
 98 120 165 35 271 35 c 0
 374 35 447 116 447 271 c 2
EndSplineSet
EndChar

StartChar: ntilde
Encoding: 241 241 176
Width: 569
GlyphClass: 2
Flags: MW
HStem: 0 21G<73 135 73 73 438 500 438 438> 492 51<282.5 344.5> 509 20G<73 135 135 135> 607 40<336.5 346 336.5 356.5> 632 39<232 241.5>
VStem: 73 62<0 263 427 529> 190 31<611 618.5 611 633.5> 357 31<659.5 667> 438 62<0 289 289 296 0 304>
AnchorPoint: "Anchor-0" 283 0 basechar 0
LayerCount: 2
Fore
SplineSet
237 632 m 0xce80
 227 632 221 626 221 611 c 1
 190 611 l 1
 190 656 207 671 236 671 c 0xce80
 254 671 269 667 296 658 c 0
 320 650 332 647 341 647 c 0
 351 647 357 652 357 667 c 1
 388 667 l 1
 388 622 371 607 342 607 c 0xd580
 324 607 309 611 282 620 c 0
 258 628 246 632 237 632 c 0xce80
498 385 m 0xd480
 500 358 500 339 500 296 c 2
 500 0 l 1
 438 0 l 1
 438 289 l 2
 438 319 438 342 436 369 c 0
 429 441 389 492 300 492 c 0xd480
 212 492 135 428 135 263 c 2
 135 0 l 1
 73 0 l 1
 73 529 l 1
 135 529 l 1xb480
 135 427 l 1
 163 484 l 1
 206 527 253 543 312 543 c 0
 424 543 488 482 498 385 c 0xd480
EndSplineSet
EndChar

StartChar: ocircumflex
Encoding: 244 244 179
Width: 574
GlyphClass: 2
Flags: MW
HStem: -14 49<232 342 232 371> 493 50<232 342> 580 110<199 310 199 310 265 328 265 377> 655 35<287 287>
VStem: 30 68<192 336 192 342> 476 68<192 336>
LayerCount: 2
Fore
SplineSet
247 580 m 1xec
 199 580 l 1
 265 690 l 1
 310 690 l 1
 377 580 l 1
 328 580 l 1xec
 287 655 l 1xdc
 247 580 l 1xec
287 543 m 0
 455 543 544 420 544 264 c 0
 544 109 455 -14 287 -14 c 0
 119 -14 30 109 30 264 c 0
 30 420 119 543 287 543 c 0
287 35 m 0
 397 35 476 120 476 264 c 0
 476 408 397 493 287 493 c 0
 177 493 98 408 98 264 c 0
 98 120 177 35 287 35 c 0
EndSplineSet
EndChar

StartChar: otilde
Encoding: 245 245 185
Width: 574
GlyphClass: 2
Flags: MW
HStem: -14 49<232 342 232 371> 493 50<232 342> 607 40<334.5 344 334.5 354.5> 632 39<230 239.5>
VStem: 30 68<192 336 192 342> 188 31<611 618.5 611 633.5> 355 31<659.5 667> 476 68<192 336>
LayerCount: 2
Fore
SplineSet
235 632 m 0xdd
 225 632 219 626 219 611 c 1
 188 611 l 1
 188 656 205 671 234 671 c 0xdd
 252 671 267 667 294 658 c 0
 318 650 330 647 339 647 c 0
 349 647 355 652 355 667 c 1
 386 667 l 1
 386 622 369 607 340 607 c 0xef
 322 607 307 611 280 620 c 0
 256 628 244 632 235 632 c 0xdd
287 543 m 0
 455 543 544 420 544 264 c 0
 544 109 455 -14 287 -14 c 0
 119 -14 30 109 30 264 c 0
 30 420 119 543 287 543 c 0
287 35 m 0
 397 35 476 120 476 264 c 0
 476 408 397 493 287 493 c 0
 177 493 98 408 98 264 c 0
 98 120 177 35 287 35 c 0
EndSplineSet
EndChar

StartChar: odieresis
Encoding: 246 246 180
Width: 574
GlyphClass: 2
Flags: MW
HStem: -14 49<232 342 232 371> 493 50<232 342> 594 73<216.5 236 338 357.5>
VStem: 30 68<192 336 192 342> 190 73<621 640.5> 311 73<621 640.5> 476 68<192 336>
LayerCount: 2
Fore
SplineSet
226 594 m 0
 207 594 190 611 190 631 c 0
 190 650 207 667 226 667 c 0
 246 667 263 650 263 631 c 0
 263 611 246 594 226 594 c 0
348 594 m 0
 328 594 311 611 311 631 c 0
 311 650 328 667 348 667 c 0
 367 667 384 650 384 631 c 0
 384 611 367 594 348 594 c 0
287 543 m 0
 455 543 544 420 544 264 c 0
 544 109 455 -14 287 -14 c 0
 119 -14 30 109 30 264 c 0
 30 420 119 543 287 543 c 0
287 35 m 0
 397 35 476 120 476 264 c 0
 476 408 397 493 287 493 c 0
 177 493 98 408 98 264 c 0
 98 120 177 35 287 35 c 0
EndSplineSet
EndChar

StartChar: divide
Encoding: 247 247 289
Width: 561
Flags: MW
HStem: 114 90<269 295> 297 43<74 487 74 487> 430 90<269 295>
VStem: 237 90<146 172 462.5 488>
LayerCount: 2
Fore
SplineSet
282 520 m 0
 308 520 327 501 327 475 c 0
 327 450 308 430 282 430 c 0
 256 430 237 450 237 475 c 0
 237 501 256 520 282 520 c 0
487 297 m 1
 74 297 l 1
 74 340 l 1
 487 340 l 1
 487 297 l 1
282 204 m 0
 308 204 327 185 327 159 c 0
 327 133 308 114 282 114 c 0
 256 114 237 133 237 159 c 0
 237 185 256 204 282 204 c 0
EndSplineSet
EndChar

StartChar: oslash
Encoding: 248 248 184
Width: 610
GlyphClass: 2
Flags: MW
HStem: -14 49<272 353.5 272 383> 493 50<244 327.5>
VStem: 42 67<237.5 336 237.5 342> 488 68<192 288.5>
LayerCount: 2
Fore
SplineSet
584 512 m 1
 509 437 l 1
 540 390 556 330 556 264 c 0
 556 109 467 -14 299 -14 c 0
 224 -14 165 10 123 51 c 1
 57 -15 l 1
 26 16 l 1
 94 84 l 1
 60 132 42 195 42 264 c 0
 42 420 131 543 299 543 c 0
 377 543 439 516 482 472 c 1
 553 543 l 1
 584 512 l 1
109 264 m 0
 109 211 120 165 139 129 c 1
 438 428 l 1
 404 470 356 493 299 493 c 0
 189 493 109 408 109 264 c 0
488 264 m 0
 488 313 479 356 462 390 c 1
 165 93 l 1
 199 55 245 35 299 35 c 0
 408 35 488 120 488 264 c 0
EndSplineSet
EndChar

StartChar: ugrave
Encoding: 249 249 209
Width: 567
GlyphClass: 2
Flags: MW
HStem: -14 50<226 282> 0 21G<430 492 430 430> 509 20G<65 127 127 127 430 492 492 492> 580 110<177 256 177 299>
VStem: 65 62<221.5 234 234 529> 430 62<0 102 102 102 266 529 0 529>
LayerCount: 2
Fore
SplineSet
256 580 m 1xbc
 177 690 l 1
 238 690 l 1
 299 580 l 1
 256 580 l 1xbc
492 529 m 1
 492 0 l 1
 430 0 l 1x7c
 430 102 l 1
 401 43 l 1
 359 2 311 -14 253 -14 c 0
 145 -14 81 47 69 131 c 0
 66 158 65 177 65 220 c 2
 65 529 l 1
 127 529 l 1
 127 234 l 2
 127 209 128 182 131 155 c 0
 139 85 185 36 267 36 c 0
 355 36 430 100 430 266 c 2
 430 529 l 1
 492 529 l 1
EndSplineSet
EndChar

StartChar: ucircumflex
Encoding: 251 251 207
Width: 567
GlyphClass: 2
Flags: MW
HStem: -14 50<226 282> 0 21G<430 492 430 430> 509 20G<65 127 127 127 430 492 492 492> 580 110<190 301 190 301 256 319 256 368> 655 35<278 278>
VStem: 65 62<221.5 234 234 529> 430 62<0 102 102 102 266 529 0 529>
LayerCount: 2
Fore
SplineSet
238 580 m 1xb6
 190 580 l 1
 256 690 l 1
 301 690 l 1
 368 580 l 1
 319 580 l 1xb6
 278 655 l 1xae
 238 580 l 1xb6
492 529 m 1
 492 0 l 1
 430 0 l 1x76
 430 102 l 1
 401 43 l 1
 359 2 311 -14 253 -14 c 0
 145 -14 81 47 69 131 c 0
 66 158 65 177 65 220 c 2
 65 529 l 1
 127 529 l 1
 127 234 l 2
 127 209 128 182 131 155 c 0
 139 85 185 36 267 36 c 0
 355 36 430 100 430 266 c 2
 430 529 l 1
 492 529 l 1
EndSplineSet
EndChar

StartChar: udieresis
Encoding: 252 252 208
Width: 567
GlyphClass: 2
Flags: MW
HStem: -14 50<226 282> 0 21G<430 492 430 430> 509 20G<65 127 127 127 430 492 492 492> 594 73<207.5 227 329 348.5>
VStem: 65 62<221.5 234 234 529> 181 73<621 640.5> 302 73<621 640.5> 430 62<0 102 102 102 266 529 0 529>
LayerCount: 2
Fore
SplineSet
217 594 m 0xbf
 198 594 181 611 181 631 c 0
 181 650 198 667 217 667 c 0
 237 667 254 650 254 631 c 0
 254 611 237 594 217 594 c 0xbf
339 594 m 0
 319 594 302 611 302 631 c 0
 302 650 319 667 339 667 c 0
 358 667 375 650 375 631 c 0
 375 611 358 594 339 594 c 0
492 529 m 1
 492 0 l 1
 430 0 l 1x7f
 430 102 l 1
 401 43 l 1
 359 2 311 -14 253 -14 c 0
 145 -14 81 47 69 131 c 0
 66 158 65 177 65 220 c 2
 65 529 l 1
 127 529 l 1
 127 234 l 2
 127 209 128 182 131 155 c 0
 139 85 185 36 267 36 c 0
 355 36 430 100 430 266 c 2
 430 529 l 1
 492 529 l 1
EndSplineSet
EndChar

StartChar: yacute
Encoding: 253 253 222
Width: 492
GlyphClass: 2
Flags: MW
HStem: -210 52<84 110 80.5 130.5> 509 20G<6 76 76 76 417 485 485 485> 580 110<221 342 221 342>
VStem: 6 479<529 529>
LayerCount: 2
Fore
SplineSet
263 580 m 1
 221 580 l 1
 282 690 l 1
 342 690 l 1
 263 580 l 1
485 529 m 1
 273 -28 l 2
 219 -168 168 -210 93 -210 c 0
 75 -210 64 -210 52 -207 c 1
 52 -156 l 1
 65 -158 75 -158 86 -158 c 0
 134 -158 170 -133 204 -48 c 2
 215 -20 l 1
 6 529 l 1
 76 529 l 1
 247 46 l 1
 417 529 l 1
 485 529 l 1
EndSplineSet
EndChar

StartChar: ydieresis
Encoding: 255 255 224
Width: 492
GlyphClass: 2
Flags: MW
HStem: -210 52<84 110 80.5 130.5> 509 20G<6 76 76 76 417 485 485 485> 594 73<176.5 196 298 317.5>
VStem: 150 73<621 640.5> 271 73<621 640.5>
LayerCount: 2
Fore
SplineSet
186 594 m 0
 167 594 150 611 150 631 c 0
 150 650 167 667 186 667 c 0
 206 667 223 650 223 631 c 0
 223 611 206 594 186 594 c 0
308 594 m 0
 288 594 271 611 271 631 c 0
 271 650 288 667 308 667 c 0
 327 667 344 650 344 631 c 0
 344 611 327 594 308 594 c 0
485 529 m 1
 273 -28 l 2
 219 -168 168 -210 93 -210 c 0
 75 -210 64 -210 52 -207 c 1
 52 -156 l 1
 65 -158 75 -158 86 -158 c 0
 134 -158 170 -133 204 -48 c 2
 215 -20 l 1
 6 529 l 1
 76 529 l 1
 247 46 l 1
 417 529 l 1
 485 529 l 1
EndSplineSet
EndChar

StartChar: Amacron
Encoding: 256 256 7
Width: 630
GlyphClass: 2
Flags: MW
HStem: 0 21G<32 98 32 32 552 552 552 619> 253 52<205 444 205 462 187 444> 640 50<327 327> 763 40<227 429 227 429>
VStem: 227 202<763 803 763 803>
LayerCount: 2
Fore
SplineSet
429 763 m 1
 227 763 l 1
 227 803 l 1
 429 803 l 1
 429 763 l 1
462 253 m 1
 187 253 l 1
 98 0 l 1
 32 0 l 1
 287 690 l 1
 370 690 l 1
 619 0 l 1
 552 0 l 1
 462 253 l 1
205 305 m 1
 444 305 l 1
 327 640 l 1
 205 305 l 1
EndSplineSet
Position2: "'cpsp' Capital Spacing in Latin lookup 0 subtable" dx=5 dy=0 dh=10 dv=0
EndChar

StartChar: amacron
Encoding: 257 257 121
Width: 517
GlyphClass: 2
Flags: MW
HStem: -14 49<188.5 237> 0 21G<390 390 390 452> 265 48<346 380> 493 50<223.5 298> 610 40<160 362 160 362>
VStem: 40 68<104.5 189 104.5 193.5> 160 202<610 650 610 650> 380 62<204 265 265 265 313 332 332 333>
LayerCount: 2
Fore
SplineSet
362 610 m 1xbf
 160 610 l 1
 160 650 l 1
 362 650 l 1
 362 610 l 1xbf
390 0 m 1x7d
 381 96 l 1x7d
 355 40 l 1
 318 3 266 -14 208 -14 c 0xbd
 110 -14 40 37 40 133 c 0
 40 254 155 313 346 313 c 2
 380 313 l 1
 380 332 l 2
 380 356 380 376 378 397 c 0
 373 458 336 493 260 493 c 0
 187 493 135 454 127 372 c 1
 62 372 l 1
 69 476 148 543 260 543 c 0
 377 543 432 490 440 403 c 0
 442 380 442 358 442 333 c 2
 442 148 l 2
 442 101 445 63 452 0 c 1
 390 0 l 1x7d
227 35 m 0xbd
 319 35 380 105 380 204 c 2
 380 265 l 1
 231 275 108 240 108 138 c 0
 108 71 150 35 227 35 c 0xbd
EndSplineSet
EndChar

StartChar: Abreve
Encoding: 258 258 3
Width: 630
GlyphClass: 2
Flags: MW
HStem: 0 21G<32 98 32 32 552 552 552 619> 253 52<205 444 205 462 187 444> 640 50<327 327> 722 42<310.5 345.5 310.5 361>
VStem: 228 40<796 830> 388 40<796 830>
LayerCount: 2
Fore
SplineSet
328 722 m 0
 261 722 228 762 228 830 c 1
 268 830 l 1
 269 787 293 764 328 764 c 0
 363 764 387 787 388 830 c 1
 428 830 l 1
 428 762 394 722 328 722 c 0
462 253 m 1
 187 253 l 1
 98 0 l 1
 32 0 l 1
 287 690 l 1
 370 690 l 1
 619 0 l 1
 552 0 l 1
 462 253 l 1
205 305 m 1
 444 305 l 1
 327 640 l 1
 205 305 l 1
EndSplineSet
Position2: "'cpsp' Capital Spacing in Latin lookup 0 subtable" dx=5 dy=0 dh=10 dv=0
EndChar

StartChar: abreve
Encoding: 259 259 117
Width: 517
GlyphClass: 2
Flags: MW
HStem: -14 49<188.5 237> 0 21G<390 390 390 452> 265 48<346 380> 493 50<223.5 298> 568 42<243.5 278.5 243.5 294.5> 670 20G<163 203 203 203 319 359 359 359>
VStem: 40 68<104.5 189 104.5 193.5> 163 40<650.5 690> 319 40<650.5 690> 380 62<204 265 265 265 313 332 332 333>
LayerCount: 2
Fore
SplineSet
261 568 m 0xbfc0
 193 568 163 611 163 690 c 1
 203 690 l 1
 204 634 226 610 261 610 c 0
 296 610 318 634 319 690 c 1
 359 690 l 1
 359 611 328 568 261 568 c 0xbfc0
390 0 m 1x7740
 381 96 l 1x7740
 355 40 l 1
 318 3 266 -14 208 -14 c 0xb740
 110 -14 40 37 40 133 c 0
 40 254 155 313 346 313 c 2
 380 313 l 1
 380 332 l 2
 380 356 380 376 378 397 c 0
 373 458 336 493 260 493 c 0
 187 493 135 454 127 372 c 1
 62 372 l 1
 69 476 148 543 260 543 c 0
 377 543 432 490 440 403 c 0
 442 380 442 358 442 333 c 2
 442 148 l 2
 442 101 445 63 452 0 c 1
 390 0 l 1x7740
227 35 m 0xb740
 319 35 380 105 380 204 c 2
 380 265 l 1
 231 275 108 240 108 138 c 0
 108 71 150 35 227 35 c 0xb740
EndSplineSet
EndChar

StartChar: Aogonek
Encoding: 260 260 8
Width: 630
GlyphClass: 2
Flags: MW
HStem: -223 41<523.5 531> 0 21G<32 98 32 32 597 619 597 597> 253 52<205 444 205 462 187 444> 640 50<327 327>
VStem: 433 60<-149.5 -107.5>
LayerCount: 2
Fore
SplineSet
619 0 m 1
 597 0 l 1
 539 -17 493 -67 493 -131 c 0
 493 -168 509 -182 538 -182 c 0
 559 -182 577 -175 597 -158 c 1
 597 -197 l 1
 574 -215 547 -223 515 -223 c 0
 469 -223 433 -204 433 -144 c 0
 433 -71 485 -16 548 10 c 1
 462 253 l 1
 187 253 l 1
 98 0 l 1
 32 0 l 1
 287 690 l 1
 370 690 l 1
 619 0 l 1
205 305 m 1
 444 305 l 1
 327 640 l 1
 205 305 l 1
EndSplineSet
Position2: "'cpsp' Capital Spacing in Latin lookup 0 subtable" dx=5 dy=0 dh=10 dv=0
EndChar

StartChar: aogonek
Encoding: 261 261 122
Width: 517
GlyphClass: 2
Flags: MW
HStem: -223 41<360.5 368> -14 49<188.5 237> 0 21G<434 452 434 434> 265 48<346 380> 493 50<223.5 298>
VStem: 40 68<104.5 189 104.5 193.5> 270 60<-149.5 -106.5> 380 62<204 265 265 265 313 332 332 333>
LayerCount: 2
Fore
SplineSet
452 0 m 1xbf
 434 0 l 1xbf
 375 -13 330 -67 330 -131 c 0
 330 -168 346 -182 375 -182 c 0
 396 -182 414 -175 434 -158 c 1
 434 -197 l 1
 411 -215 384 -223 352 -223 c 0
 306 -223 270 -204 270 -144 c 0
 270 -69 323 -12 389 12 c 1
 381 96 l 1
 355 40 l 1
 318 3 266 -14 208 -14 c 0xdf
 110 -14 40 37 40 133 c 0
 40 254 155 313 346 313 c 2
 380 313 l 1
 380 332 l 2
 380 356 380 376 378 397 c 0
 373 458 336 493 260 493 c 0
 187 493 135 454 127 372 c 1
 62 372 l 1
 69 476 148 543 260 543 c 0
 377 543 432 490 440 403 c 0
 442 380 442 358 442 333 c 2
 442 148 l 2
 442 101 445 63 452 0 c 1xbf
227 35 m 0xdf
 319 35 380 105 380 204 c 2
 380 265 l 1
 231 275 108 240 108 138 c 0
 108 71 150 35 227 35 c 0xdf
EndSplineSet
EndChar

StartChar: Cdotaccent
Encoding: 266 266 17
Width: 691
GlyphClass: 2
Flags: MW
HStem: -14 50<290 424 290 444> 654 50<296 428.5> 747 72<348 368>
VStem: 49 69<249 439 249 448> 322 72<773 793> 578 62.5 581 62.5
AnchorPoint: "Anchor-0" 351 0 basechar 0
LayerCount: 2
Fore
SplineSet
358 819 m 0xfc
 378 819 394 803 394 783 c 0
 394 763 378 747 358 747 c 0
 338 747 322 763 322 783 c 0
 322 803 338 819 358 819 c 0xfc
370 704 m 0
 536 704 625 606 643 475 c 1
 644 465 l 1
 582 465 l 1
 580 475 l 2xfa
 559 580 490 654 367 654 c 0
 225 654 118 533 118 345 c 0
 118 153 220 36 360 36 c 0
 488 36 556 113 577 219 c 2
 579 229 l 1
 641 229 l 1
 640 219 l 1
 622 92 532 -14 356 -14 c 0
 167 -14 49 132 49 342 c 0
 49 554 181 704 370 704 c 0
EndSplineSet
Position2: "'cpsp' Capital Spacing in Latin lookup 0 subtable" dx=5 dy=0 dh=10 dv=0
EndChar

StartChar: cdotaccent
Encoding: 267 267 131
Width: 525
GlyphClass: 2
Flags: MW
HStem: -14 49<224.5 308 224.5 322> 494 49<229.5 316.5> 601 84<256.5 280>
VStem: 30 68<187.5 345.5 187.5 351.5> 226 84<631.5 655>
AnchorPoint: "Anchor-0" 258 0 basechar 0
LayerCount: 2
Fore
SplineSet
268 685 m 0
 292 685 310 667 310 643 c 0
 310 620 292 601 268 601 c 0
 245 601 226 620 226 643 c 0
 226 667 245 685 268 685 c 0
276 543 m 0
 398 543 479 468 495 356 c 1
 430 356 l 1
 412 445 359 494 274 494 c 0
 185 494 98 422 98 269 c 0
 98 106 180 35 269 35 c 0
 347 35 407 80 426 165 c 1
 490 165 l 1
 466 48 379 -14 265 -14 c 0
 133 -14 30 77 30 264 c 0
 30 439 143 543 276 543 c 0
EndSplineSet
EndChar

StartChar: Ccaron
Encoding: 268 268 15
Width: 691
GlyphClass: 2
Flags: MW
HStem: -14 50<290 424 290 444> 654 50<296 428.5> 736 94<270 336 270 381>
VStem: 49 69<249 439 249 448> 578 62.5 581 62.5
AnchorPoint: "Anchor-0" 351 0 basechar 0
LayerCount: 2
Fore
SplineSet
336 736 m 1xf8
 270 830 l 1
 320 830 l 1
 359 764 l 1
 398 830 l 1
 448 830 l 1
 381 736 l 1
 336 736 l 1xf8
579 229 m 1
 641 229 l 1
 640 219 l 1xf8
 622 92 532 -14 356 -14 c 0
 167 -14 49 132 49 342 c 0
 49 554 181 704 370 704 c 0
 536 704 625 606 643 475 c 1
 644 465 l 1
 582 465 l 1
 580 475 l 2xf4
 559 580 490 654 367 654 c 0
 225 654 118 533 118 345 c 0
 118 153 220 36 360 36 c 0
 488 36 556 113 577 219 c 2
 579 229 l 1
EndSplineSet
Position2: "'cpsp' Capital Spacing in Latin lookup 0 subtable" dx=5 dy=0 dh=10 dv=0
EndChar

StartChar: ccaron
Encoding: 269 269 129
Width: 525
GlyphClass: 2
Flags: MW
HStem: -14 49<224.5 308 224.5 322> 494 49<229.5 316.5> 580 110<180 246 180 291>
VStem: 30 68<187.5 345.5 187.5 351.5>
AnchorPoint: "Anchor-0" 258 0 basechar 0
LayerCount: 2
Fore
SplineSet
246 580 m 1
 180 690 l 1
 229 690 l 1
 269 615 l 1
 310 690 l 1
 358 690 l 1
 291 580 l 1
 246 580 l 1
269 35 m 0
 347 35 407 80 426 165 c 1
 490 165 l 1
 466 48 379 -14 265 -14 c 0
 133 -14 30 77 30 264 c 0
 30 439 143 543 276 543 c 0
 398 543 479 468 495 356 c 1
 430 356 l 1
 412 445 359 494 274 494 c 0
 185 494 98 422 98 269 c 0
 98 106 180 35 269 35 c 0
EndSplineSet
EndChar

StartChar: dcroat
Encoding: 273 273 135
Width: 592
GlyphClass: 2
Flags: MW
HStem: -14 49<217 296.5> 0 21G<451 513 451 451> 493 50<229 308 215 321> 602 43<335 451 335 451 513 556> 602 133<335 513 335 513 451 556 451 513>
VStem: 30 68<202.5 337.5 202.5 354> 451 62<0 98 98 98 252 292 292 367 438 602 0 602 645 735>
LayerCount: 2
Fore
SplineSet
556 602 m 1xae
 513 602 l 1
 513 0 l 1
 451 0 l 1
 451 98 l 1x6e
 416 40 l 1
 379 3 327 -14 266 -14 c 0
 118 -14 30 101 30 258 c 0
 30 450 148 543 282 543 c 0
 334 543 385 527 418 495 c 1
 451 438 l 1
 451 602 l 1
 335 602 l 1xae
 335 645 l 1
 451 645 l 1xb6
 451 735 l 1
 513 735 l 1xae
 513 645 l 1
 556 645 l 1xb6
 556 602 l 1xae
275 35 m 0xae
 369 35 451 92 451 252 c 2
 451 292 l 2
 451 442 360 493 282 493 c 0
 176 493 98 409 98 266 c 0
 98 139 159 35 275 35 c 0xae
EndSplineSet
EndChar

StartChar: Emacron
Encoding: 274 274 29
Width: 576
GlyphClass: 2
Flags: MW
HStem: 0 51<161 546 161 546> 319 52<161 510 161 510> 639 51<161 536 161 161> 763 40<218 420 218 420>
VStem: 99 62<51 319 371 639> 218 202<763 803 763 803>
AnchorPoint: "Anchor-0" 299 0 basechar 0
LayerCount: 2
Fore
SplineSet
420 763 m 1
 218 763 l 1
 218 803 l 1
 420 803 l 1
 420 763 l 1
546 51 m 1
 546 0 l 1
 99 0 l 1
 99 690 l 1
 536 690 l 1
 536 639 l 1
 161 639 l 1
 161 371 l 1
 510 371 l 1
 510 319 l 1
 161 319 l 1
 161 51 l 1
 546 51 l 1
EndSplineSet
Position2: "'cpsp' Capital Spacing in Latin lookup 0 subtable" dx=5 dy=0 dh=10 dv=0
EndChar

StartChar: emacron
Encoding: 275 275 143
Width: 539
GlyphClass: 2
Flags: MW
HStem: -14 49<226 306 226 318> 246 49<97 437 97 498 97 437> 493 50<229.5 317.5> 610 40<168 370 168 370>
VStem: 30 67<246 246 246 295 246 349> 168 202<610 650 610 650> 437 63<295 295>
AnchorPoint: "Anchor-0" 264 0 basechar 0
LayerCount: 2
Fore
SplineSet
370 610 m 1
 168 610 l 1
 168 650 l 1
 370 650 l 1
 370 610 l 1
500 279 m 0
 500 272 500 262 498 246 c 1
 97 246 l 1
 104 90 183 35 269 35 c 0
 343 35 409 80 428 167 c 1
 493 167 l 1
 468 44 371 -14 265 -14 c 0
 133 -14 30 78 30 264 c 0
 30 434 136 543 275 543 c 0
 423 543 500 425 500 279 c 0
273 493 m 0
 186 493 106 427 97 295 c 1
 437 295 l 1
 430 431 362 493 273 493 c 0
EndSplineSet
EndChar

StartChar: edotaccent
Encoding: 279 279 141
Width: 539
GlyphClass: 2
Flags: MW
HStem: -14 49<226 306 226 318> 246 49<97 437 97 498 97 437> 493 50<229.5 317.5> 601 84<257.5 281>
VStem: 30 67<246 246 246 295 246 349> 227 84<631.5 655> 437 63<295 295>
AnchorPoint: "Anchor-0" 264 0 basechar 0
LayerCount: 2
Fore
SplineSet
269 601 m 0
 246 601 227 620 227 643 c 0
 227 667 246 685 269 685 c 0
 293 685 311 667 311 643 c 0
 311 620 293 601 269 601 c 0
500 279 m 0
 500 272 500 262 498 246 c 1
 97 246 l 1
 104 90 183 35 269 35 c 0
 343 35 409 80 428 167 c 1
 493 167 l 1
 468 44 371 -14 265 -14 c 0
 133 -14 30 78 30 264 c 0
 30 434 136 543 275 543 c 0
 423 543 500 425 500 279 c 0
273 493 m 0
 186 493 106 427 97 295 c 1
 437 295 l 1
 430 431 362 493 273 493 c 0
EndSplineSet
EndChar

StartChar: Eogonek
Encoding: 280 280 30
Width: 576
GlyphClass: 2
Flags: MW
HStem: -223 41<473.5 481> 0 51<161 477 161 547 161 547> 319 52<161 510 161 510> 639 51<161 536 161 161>
VStem: 99 62<51 319 371 639> 383 60<-149.5 -111.5>
AnchorPoint: "Anchor-0" 299 0 basechar 0
LayerCount: 2
Fore
SplineSet
443 -131 m 0
 443 -168 459 -182 488 -182 c 0
 509 -182 527 -175 547 -158 c 1
 547 -197 l 1
 524 -215 497 -223 465 -223 c 0
 419 -223 383 -204 383 -144 c 0
 383 -79 423 -29 477 0 c 1
 99 0 l 1
 99 690 l 1
 536 690 l 1
 536 639 l 1
 161 639 l 1
 161 371 l 1
 510 371 l 1
 510 319 l 1
 161 319 l 1
 161 51 l 1
 546 51 l 1
 546 0 l 1
 547 0 l 1
 489 -17 443 -67 443 -131 c 0
EndSplineSet
Position2: "'cpsp' Capital Spacing in Latin lookup 0 subtable" dx=5 dy=0 dh=10 dv=0
EndChar

StartChar: eogonek
Encoding: 281 281 144
Width: 539
GlyphClass: 2
Flags: MW
HStem: -223 41<277.5 285> -14 49 246 49<97 437 97 498 97 437> 493 50<229.5 317.5>
VStem: 30 67<246 246 246 295 246 349> 187 60<-149.5 -116.5> 437 63<295 295>
AnchorPoint: "Anchor-0" 264 0 basechar 0
LayerCount: 2
Fore
SplineSet
500 279 m 0
 500 272 500 262 498 246 c 1
 97 246 l 1
 104 90 183 35 269 35 c 0
 343 35 409 80 428 167 c 1
 493 167 l 1
 473 71 410 14 332 -6 c 1
 283 -25 247 -74 247 -131 c 0
 247 -168 263 -182 292 -182 c 0
 313 -182 331 -175 351 -158 c 1
 351 -197 l 1
 328 -215 301 -223 269 -223 c 0
 223 -223 187 -204 187 -144 c 0
 187 -89 216 -44 257 -14 c 1
 129 -10 30 82 30 264 c 0
 30 434 136 543 275 543 c 0
 423 543 500 425 500 279 c 0
273 493 m 0
 186 493 106 427 97 295 c 1
 437 295 l 1
 430 431 362 493 273 493 c 0
EndSplineSet
EndChar

StartChar: Ecaron
Encoding: 282 282 24
Width: 576
GlyphClass: 2
Flags: MW
HStem: 0 51<161 546 161 546> 319 52<161 510 161 510> 639 51<161 536 161 161> 639 191<231 281 359 409 231 536 161 281>
VStem: 99 62<51 319 371 639>
AnchorPoint: "Anchor-0" 299 0 basechar 0
LayerCount: 2
Fore
SplineSet
297 736 m 1xd8
 231 830 l 1
 281 830 l 1
 320 764 l 1
 359 830 l 1
 409 830 l 1
 342 736 l 1
 297 736 l 1xd8
546 51 m 1
 546 0 l 1
 99 0 l 1
 99 690 l 1
 536 690 l 1
 536 639 l 1
 161 639 l 1xe8
 161 371 l 1
 510 371 l 1
 510 319 l 1
 161 319 l 1
 161 51 l 1
 546 51 l 1
EndSplineSet
Position2: "'cpsp' Capital Spacing in Latin lookup 0 subtable" dx=5 dy=0 dh=10 dv=0
EndChar

StartChar: Gbreve
Encoding: 286 286 33
Width: 704
GlyphClass: 2
Flags: MW
HStem: -14 50<290.5 398.5> 0 21G<586 642 586 586> 272 51<392 580 392 642> 654 50<298.5 432.5> 722 42<344.5 379.5 344.5 395>
VStem: 49 69<249 439 249 448> 262 40<796 830> 422 40<796 830> 580 62<194 272> 585 62.5
AnchorPoint: "Anchor-0" 361 0 basechar 0
LayerCount: 2
Fore
SplineSet
362 722 m 0xbf80
 295 722 262 762 262 830 c 1
 302 830 l 1
 303 787 327 764 362 764 c 0
 397 764 421 787 422 830 c 1
 462 830 l 1
 462 762 428 722 362 722 c 0xbf80
392 323 m 1
 642 323 l 1
 642 0 l 1
 586 0 l 1x7780
 586 142 l 1
 559 80 l 1xb780
 513 16 440 -14 357 -14 c 0
 167 -14 49 132 49 342 c 0
 49 554 182 704 373 704 c 0
 539 704 628 606 647 475 c 1
 648 465 l 1
 586 465 l 1
 584 475 l 2
 563 580 494 654 371 654 c 0xb740
 226 654 118 533 118 345 c 0
 118 153 220 36 361 36 c 0
 471 36 580 116 580 272 c 1
 392 272 l 1
 392 323 l 1
EndSplineSet
Position2: "'cpsp' Capital Spacing in Latin lookup 0 subtable" dx=5 dy=0 dh=10 dv=0
EndChar

StartChar: gbreve
Encoding: 287 287 147
Width: 588
GlyphClass: 2
Flags: MW
HStem: -214 49<229.5 330 229.5 346.5> -14 49<217 296.5> 493 50<229 308 215 321> 510 20G<451 513 513 513> 568 42<272.5 307.5 272.5 323.5> 670 20G<192 232 232 232 348 388 388 388>
VStem: 30 68<202.5 337.5 202.5 354> 50 62 192 40<650.5 690> 348 40<650.5 690> 451 62<85 134 98 134 252 292 292 367 438 530>
LayerCount: 2
Fore
SplineSet
290 568 m 0xdee0
 222 568 192 611 192 690 c 1
 232 690 l 1
 233 634 255 610 290 610 c 0
 325 610 347 634 348 690 c 1
 388 690 l 1
 388 611 357 568 290 568 c 0xdee0
513 530 m 1
 513 134 l 2
 513 82 513 41 512 10 c 0
 507 -131 419 -214 274 -214 c 0
 143 -214 63 -160 50 -45 c 1
 49 -33 l 1
 111 -33 l 1
 113 -45 l 1xe5e0
 122 -123 185 -165 274 -165 c 0
 386 -165 446 -98 450 7 c 0
 451 36 451 57 451 85 c 2
 451 98 l 1
 416 40 l 1
 379 3 327 -14 266 -14 c 0
 118 -14 30 101 30 258 c 0
 30 450 148 543 282 543 c 0
 334 543 385 527 418 495 c 1xe6e0
 451 438 l 1
 451 530 l 1
 513 530 l 1
275 35 m 0
 369 35 451 92 451 252 c 2
 451 292 l 2
 451 442 360 493 282 493 c 0
 176 493 98 409 98 266 c 0xe6e0
 98 139 159 35 275 35 c 0
EndSplineSet
EndChar

StartChar: gdotaccent
Encoding: 289 289 149
Width: 588
GlyphClass: 2
Flags: MW
HStem: -214 49<229.5 330 229.5 346.5> -14 49<217 296.5> 493 50<229 308 215 321> 510 20G<451 513 513 513> 601 84<278.5 302>
VStem: 30 68<202.5 337.5 202.5 354> 50 62 248 84<631.5 655> 451 62<85 134 98 134 252 292 292 367 438 530>
LayerCount: 2
Fore
SplineSet
290 601 m 0xed80
 267 601 248 620 248 643 c 0
 248 667 267 685 290 685 c 0
 314 685 332 667 332 643 c 0
 332 620 314 601 290 601 c 0xed80
513 530 m 1xdd80
 513 134 l 2
 513 82 513 41 512 10 c 0
 507 -131 419 -214 274 -214 c 0
 143 -214 63 -160 50 -45 c 1
 49 -33 l 1
 111 -33 l 1
 113 -45 l 1xeb80
 122 -123 185 -165 274 -165 c 0
 386 -165 446 -98 450 7 c 0
 451 36 451 57 451 85 c 2
 451 98 l 1
 416 40 l 1
 379 3 327 -14 266 -14 c 0
 118 -14 30 101 30 258 c 0
 30 450 148 543 282 543 c 0
 334 543 385 527 418 495 c 1xed80
 451 438 l 1
 451 530 l 1
 513 530 l 1xdd80
275 35 m 0
 369 35 451 92 451 252 c 2
 451 292 l 2
 451 442 360 493 282 493 c 0
 176 493 98 409 98 266 c 0xed80
 98 139 159 35 275 35 c 0
EndSplineSet
EndChar

StartChar: Gcommaaccent
Encoding: 290 290 34
Width: 704
GlyphClass: 2
Flags: MW
HStem: -187 136<292 393 292 393> -14 50<290.5 398.5> 0 21G<586 642 586 586> 272 51<392 580 392 642> 654 50<298.5 432.5>
VStem: 49 69<249 439 249 448> 580 62<194 272> 585 62.5
AnchorPoint: "Anchor-0" 361 0 basechar 0
LayerCount: 2
Fore
SplineSet
392 323 m 1x5e
 642 323 l 1
 642 0 l 1
 586 0 l 1xbe
 586 142 l 1
 559 80 l 1x5e
 513 16 440 -14 357 -14 c 0
 167 -14 49 132 49 342 c 0
 49 554 182 704 373 704 c 0
 539 704 628 606 647 475 c 1
 648 465 l 1
 586 465 l 1
 584 475 l 2x5d
 563 580 494 654 371 654 c 0
 226 654 118 533 118 345 c 0
 118 153 220 36 361 36 c 0
 471 36 580 116 580 272 c 1
 392 272 l 1
 392 323 l 1x5e
341 -51 m 1
 393 -51 l 1
 393 -60 l 1
 338 -187 l 1
 292 -187 l 1
 341 -51 l 1
EndSplineSet
Position2: "'cpsp' Capital Spacing in Latin lookup 0 subtable" dx=5 dy=0 dh=10 dv=0
EndChar

StartChar: Hbar
Encoding: 294 294 37
Width: 702
GlyphClass: 2
Flags: MW
HStem: 0 21G<99 161 99 99 565 627 565 565> 312 53<161 565 161 565> 509 43<59 99 59 99 161 565 627 667> 509 181<59 161 59 161 99 161 99 565>
VStem: 99 62<0 312 0 365 365 509 552 690> 565 62<0 312 312 312 365 509 0 509 552 690>
LayerCount: 2
Fore
SplineSet
667 509 m 1xec
 627 509 l 1
 627 0 l 1
 565 0 l 1
 565 312 l 1
 161 312 l 1
 161 0 l 1
 99 0 l 1
 99 509 l 1
 59 509 l 1
 59 552 l 1
 99 552 l 1xec
 99 690 l 1
 161 690 l 1xdc
 161 552 l 1
 565 552 l 1xec
 565 690 l 1
 627 690 l 1xdc
 627 552 l 1
 667 552 l 1
 667 509 l 1xec
565 509 m 1
 161 509 l 1
 161 365 l 1
 565 365 l 1
 565 509 l 1
EndSplineSet
Position2: "'cpsp' Capital Spacing in Latin lookup 0 subtable" dx=5 dy=0 dh=10 dv=0
EndChar

StartChar: hbar
Encoding: 295 295 151
Width: 583
GlyphClass: 2
Flags: MW
HStem: 0 21G<87 149 87 87 452 514 452 452> 492 51 602 43<33 87 33 87 149 255> 602 138<33 149 33 149 87 149 87 255>
VStem: 87 62<0 263 427 602 645 740> 452 62<0 289 289 296 0 304>
LayerCount: 2
Fore
SplineSet
511 385 m 0xdc
 514 358 514 339 514 296 c 2
 514 0 l 1
 452 0 l 1
 452 289 l 2
 452 319 452 342 449 369 c 0
 442 441 403 493 314 492 c 0
 226 491 149 428 149 263 c 2
 149 0 l 1
 87 0 l 1
 87 602 l 1
 33 602 l 1xdc
 33 645 l 1
 87 645 l 1xec
 87 740 l 1
 149 740 l 1xdc
 149 645 l 1
 255 645 l 1xec
 255 602 l 1
 149 602 l 1
 149 427 l 1
 177 484 l 1
 220 527 267 543 325 543 c 0
 438 543 502 482 511 385 c 0xdc
EndSplineSet
EndChar

StartChar: Imacron
Encoding: 298 298 45
Width: 236
GlyphClass: 2
Flags: MW
HStem: 0 21G<99 161 99 99> 670 20G<99 161 161 161> 763 40<28 230 28 230>
VStem: 99 62<0 690>
LayerCount: 2
Fore
SplineSet
230 763 m 1
 28 763 l 1
 28 803 l 1
 230 803 l 1
 230 763 l 1
161 0 m 1
 99 0 l 1
 99 690 l 1
 161 690 l 1
 161 0 l 1
EndSplineSet
Position2: "'cpsp' Capital Spacing in Latin lookup 0 subtable" dx=5 dy=0 dh=10 dv=0
EndChar

StartChar: imacron
Encoding: 299 299 159
Width: 210
GlyphClass: 2
Flags: MW
HStem: 0 21G<73 135 73 73> 509 20G<73 135 135 135> 610 40<3 205 3 205>
VStem: 73 62<0 529>
LayerCount: 2
Fore
SplineSet
205 610 m 1
 3 610 l 1
 3 650 l 1
 205 650 l 1
 205 610 l 1
135 0 m 1
 73 0 l 1
 73 529 l 1
 135 529 l 1
 135 0 l 1
EndSplineSet
EndChar

StartChar: Iogonek
Encoding: 302 302 46
Width: 236
GlyphClass: 2
Flags: MW
HStem: -223 41<72.5 80> 0 21G<146 161 146 146> 670 20G<99 161 161 161>
VStem: -18 60<-149.5 -107> 99 62<11 690 0 690>
LayerCount: 2
Fore
SplineSet
161 690 m 1
 161 0 l 1
 146 0 l 1
 88 -17 42 -67 42 -131 c 0
 42 -168 58 -182 87 -182 c 0
 108 -182 126 -175 146 -158 c 1
 146 -197 l 1
 123 -215 96 -223 64 -223 c 0
 18 -223 -18 -204 -18 -144 c 0
 -18 -70 34 -15 99 11 c 1
 99 690 l 1
 161 690 l 1
EndSplineSet
Position2: "'cpsp' Capital Spacing in Latin lookup 0 subtable" dx=5 dy=0 dh=10 dv=0
EndChar

StartChar: iogonek
Encoding: 303 303 160
Width: 210
GlyphClass: 2
Flags: MW
HStem: -223 41<43.5 51> 0 21G<117 135 117 117> 509 20G<73 135 135 135> 601 84<92.5 116>
VStem: -47 60<-149.5 -106.5> 62 84<631.5 655> 73 62<12 529 0 529>
LayerCount: 2
Fore
SplineSet
104 601 m 0xfc
 81 601 62 620 62 643 c 0
 62 667 81 685 104 685 c 0
 128 685 146 667 146 643 c 0
 146 620 128 601 104 601 c 0xfc
73 529 m 1xfa
 135 529 l 1
 135 0 l 1
 117 0 l 1
 58 -13 13 -67 13 -131 c 0
 13 -168 29 -182 58 -182 c 0
 79 -182 97 -175 117 -158 c 1
 117 -197 l 1
 94 -215 67 -223 35 -223 c 0
 -11 -223 -47 -204 -47 -144 c 0
 -47 -69 7 -11 73 12 c 1
 73 529 l 1xfa
EndSplineSet
EndChar

StartChar: Idotaccent
Encoding: 304 304 43
Width: 236
GlyphClass: 2
Flags: MW
HStem: 0 21G<99 161 99 99> 670 20G<99 161 161 161> 747 72<119 139>
VStem: 99 62<0 690>
LayerCount: 2
Fore
SplineSet
129 819 m 0
 149 819 165 803 165 783 c 0
 165 763 149 747 129 747 c 0
 109 747 93 763 93 783 c 0
 93 803 109 819 129 819 c 0
161 0 m 1
 99 0 l 1
 99 690 l 1
 161 690 l 1
 161 0 l 1
EndSplineSet
Position2: "'cpsp' Capital Spacing in Latin lookup 0 subtable" dx=5 dy=0 dh=10 dv=0
EndChar

StartChar: dotlessi
Encoding: 305 305 153
Width: 210
GlyphClass: 2
Flags: MW
HStem: 0 21G<73 135 73 73> 509 20G<73 135 135 135>
VStem: 73 62<0 529>
LayerCount: 2
Fore
SplineSet
135 0 m 1
 73 0 l 1
 73 529 l 1
 135 529 l 1
 135 0 l 1
EndSplineSet
EndChar

StartChar: IJ
Encoding: 306 306 39
Width: 762
GlyphClass: 2
Flags: MW
HStem: -14 50<455 541.5 455 559.5> 0 21G<99 161 99 99> 670 20G<99 161 161 161 640 702 702 702>
VStem: 99 62<0 690> 288.5 62.5 640 62<261 263 263 690>
LayerCount: 2
Fore
SplineSet
161 0 m 1x7c
 99 0 l 1
 99 690 l 1
 161 690 l 1
 161 0 l 1x7c
702 690 m 1
 702 263 l 2
 702 235 702 210 700 177 c 0
 693 70 629 -14 490 -14 c 0
 367 -14 293 61 289 194 c 2
 288 231 l 1
 350 231 l 1
 352 194 l 2
 357 83 412 36 498 36 c 0xbc
 585 36 631 91 639 181 c 0
 640 202 640 227 640 261 c 2
 640 690 l 1
 702 690 l 1
EndSplineSet
Position2: "'cpsp' Capital Spacing in Latin lookup 0 subtable" dx=5 dy=0 dh=10 dv=0
EndChar

StartChar: ij
Encoding: 307 307 158
Width: 414
GlyphClass: 2
Flags: MW
HStem: -210 54<190 262.5> 0 21G<73 135 73 73> 509 20G<73 135 135 135 277 339 339 339> 601 84<92.5 116 296.5 320>
VStem: 62 84<631.5 655> 73 62<0 529> 266 84<631.5 655> 277 62<-63 -56 -56 529>
LayerCount: 2
Fore
SplineSet
104 685 m 0xfa
 128 685 146 667 146 643 c 0
 146 620 128 601 104 601 c 0
 81 601 62 620 62 643 c 0
 62 667 81 685 104 685 c 0xfa
308 685 m 0
 332 685 350 667 350 643 c 0
 350 620 332 601 308 601 c 0
 285 601 266 620 266 643 c 0
 266 667 285 685 308 685 c 0
135 0 m 1xf5
 73 0 l 1
 73 529 l 1
 135 529 l 1
 135 0 l 1xf5
339 529 m 1
 339 -56 l 2
 339 -76 339 -98 337 -116 c 0
 331 -178 296 -210 229 -210 c 0
 215 -210 203 -210 190 -207 c 1
 190 -156 l 1
 245 -163 272 -149 276 -105 c 0
 277 -91 277 -78 277 -63 c 2
 277 529 l 1
 339 529 l 1
EndSplineSet
EndChar

StartChar: kcommaaccent
Encoding: 311 311 163
Width: 498
GlyphClass: 2
Flags: MW
HStem: -187 136<184 285 184 285> 0 21G<73 135 73 73 403 489 403 403> 509 20G<406 487 487 487> 715 20G<73 135 135 135>
VStem: 73 62<0 186 254 735>
AnchorPoint: "Anchor-0" 257 0 basechar 0
LayerCount: 2
Fore
SplineSet
489 0 m 1
 403 0 l 1
 183 237 l 1
 135 186 l 1
 135 0 l 1
 73 0 l 1
 73 735 l 1
 135 735 l 1
 135 254 l 1
 406 529 l 1
 487 529 l 1
 228 276 l 1
 489 0 l 1
233 -51 m 1
 285 -51 l 1
 285 -60 l 1
 230 -187 l 1
 184 -187 l 1
 233 -51 l 1
EndSplineSet
EndChar

StartChar: Lacute
Encoding: 313 313 51
Width: 562
GlyphClass: 2
Flags: MW
HStem: 0 51<161 546 161 546> 670 20G<99 161 161 161> 736 94<104 218 104 218>
VStem: 99 62<51 690 51 690 51 690>
AnchorPoint: "Anchor-0" 315 0 basechar 0
LayerCount: 2
Fore
SplineSet
146 736 m 1
 104 736 l 1
 158 830 l 1
 218 830 l 1
 146 736 l 1
546 51 m 1
 546 0 l 1
 99 0 l 1
 99 690 l 1
 161 690 l 1
 161 51 l 1
 546 51 l 1
EndSplineSet
Position2: "'cpsp' Capital Spacing in Latin lookup 0 subtable" dx=5 dy=0 dh=10 dv=0
EndChar

StartChar: lcommaaccent
Encoding: 316 316 167
Width: 219
GlyphClass: 2
Flags: MW
HStem: -187 136<46 147 46 147> -4 49<124.5 194> 715 20G<69 131 131 131>
VStem: 69 62<138 140 140 735>
AnchorPoint: "Anchor-0" 119 0 basechar 0
LayerCount: 2
Fore
SplineSet
131 735 m 1
 131 140 l 2
 131 117 131 99 132 83 c 0
 134 49 149 40 194 45 c 1
 194 -1 l 1
 178 -4 161 -4 145 -4 c 0
 104 -4 73 10 70 67 c 0
 69 85 69 106 69 138 c 2
 69 735 l 1
 131 735 l 1
147 -60 m 1
 92 -187 l 1
 46 -187 l 1
 95 -51 l 1
 147 -51 l 1
 147 -60 l 1
EndSplineSet
EndChar

StartChar: Ldot
Encoding: 319 319 54
Width: 562
GlyphClass: 2
Flags: MW
HStem: 0 51<161 546 161 546> 358 84<357 380.5> 670 20G<99 161 161 161>
VStem: 99 62<51 690 51 690 51 690> 327 84<388.5 412>
AnchorPoint: "Anchor-0" 315 0 basechar 0
LayerCount: 2
Fore
SplineSet
546 51 m 1
 546 0 l 1
 99 0 l 1
 99 690 l 1
 161 690 l 1
 161 51 l 1
 546 51 l 1
369 358 m 0
 345 358 327 377 327 400 c 0
 327 424 345 442 369 442 c 0
 392 442 411 424 411 400 c 0
 411 377 392 358 369 358 c 0
EndSplineSet
Ligature2: "Ligature Substitution lookup 5 subtable" L periodcentered
Position2: "'cpsp' Capital Spacing in Latin lookup 0 subtable" dx=5 dy=0 dh=10 dv=0
EndChar

StartChar: ldot
Encoding: 320 320 168
Width: 286
GlyphClass: 2
Flags: MW
HStem: -4 49<124.5 194> 358 84<223 246.5> 715 20G<69 131 131 131>
VStem: 69 62<138 140 140 735> 193 83<388.5 412>
AnchorPoint: "Anchor-0" 119 0 basechar 0
LayerCount: 2
Fore
SplineSet
131 735 m 1
 131 140 l 2
 131 117 131 99 132 83 c 0
 134 49 149 40 194 45 c 1
 194 -1 l 1
 178 -4 161 -4 145 -4 c 0
 104 -4 73 10 70 67 c 0
 69 85 69 106 69 138 c 2
 69 735 l 1
 131 735 l 1
235 442 m 0
 258 442 276 424 276 400 c 0
 276 377 258 358 235 358 c 0
 211 358 193 377 193 400 c 0
 193 424 211 442 235 442 c 0
EndSplineSet
Ligature2: "Ligature Substitution lookup 5 subtable" l periodcentered
EndChar

StartChar: Lslash
Encoding: 321 321 55
Width: 587
GlyphClass: 2
Flags: MW
HStem: 0 51<186 572 186 572> 670 20G<124 186 186 186>
VStem: 124 62<51 297 297 297 385 690>
AnchorPoint: "Anchor-0" 341 0 basechar 0
LayerCount: 2
Fore
SplineSet
572 51 m 1
 572 0 l 1
 124 0 l 1
 124 297 l 1
 14 232 l 1
 14 283 l 1
 124 348 l 1
 124 690 l 1
 186 690 l 1
 186 385 l 1
 334 473 l 1
 334 422 l 1
 186 334 l 1
 186 51 l 1
 572 51 l 1
EndSplineSet
Position2: "'cpsp' Capital Spacing in Latin lookup 0 subtable" dx=5 dy=0 dh=10 dv=0
EndChar

StartChar: lslash
Encoding: 322 322 169
Width: 253
GlyphClass: 2
Flags: MW
HStem: -4 49<148.5 218> 715 20G<93 155 155 155>
VStem: 93 62<138 140 140 277 277 277 368 735>
AnchorPoint: "Anchor-0" 143 0 basechar 0
LayerCount: 2
Fore
SplineSet
156 83 m 0
 158 49 173 40 218 45 c 1
 218 -1 l 1
 202 -4 185 -4 169 -4 c 0
 128 -4 97 10 94 67 c 0
 93 85 93 106 93 138 c 2
 93 277 l 1
 31 238 l 1
 31 290 l 1
 93 329 l 1
 93 735 l 1
 155 735 l 1
 155 368 l 1
 217 407 l 1
 217 355 l 1
 155 316 l 1
 155 140 l 2
 155 117 155 99 156 83 c 0
EndSplineSet
EndChar

StartChar: ncommaaccent
Encoding: 326 326 174
Width: 569
GlyphClass: 2
Flags: MW
HStem: -187 136<211 312 211 312> 0 21G<73 135 73 73 438 500 438 438> 492 51<282.5 344.5> 509 20G<73 135 135 135>
VStem: 73 62<0 263 427 529> 438 62<0 289 289 296 0 304>
AnchorPoint: "Anchor-0" 283 0 basechar 0
LayerCount: 2
Fore
SplineSet
498 385 m 0xec
 500 358 500 339 500 296 c 2
 500 0 l 1
 438 0 l 1
 438 289 l 2
 438 319 438 342 436 369 c 0
 429 441 389 492 300 492 c 0xec
 212 492 135 428 135 263 c 2
 135 0 l 1
 73 0 l 1
 73 529 l 1
 135 529 l 1xdc
 135 427 l 1
 163 484 l 1
 206 527 253 543 312 543 c 0
 424 543 488 482 498 385 c 0xec
260 -51 m 1
 312 -51 l 1
 312 -60 l 1
 257 -187 l 1
 211 -187 l 1
 260 -51 l 1
EndSplineSet
EndChar

StartChar: Ncaron
Encoding: 327 327 59
Width: 688
GlyphClass: 2
Flags: MW
HStem: 0 60<553 553 553 612 517 553> 630 60<158 158> 736 94<267 333 267 378>
VStem: 99 62<0 356 0 690> 550 61.5
AnchorPoint: "Anchor-0" 355 0 basechar 0
LayerCount: 2
Fore
SplineSet
333 736 m 1
 267 830 l 1
 317 830 l 1
 356 764 l 1
 395 830 l 1
 445 830 l 1
 378 736 l 1
 333 736 l 1
517 0 m 1
 158 630 l 1
 160 545 161 442 161 356 c 2
 161 0 l 1
 99 0 l 1
 99 690 l 1
 193 690 l 1
 553 60 l 1
 551 146 550 248 550 334 c 2
 550 690 l 1
 611 690 l 1
 612 0 l 1
 517 0 l 1
EndSplineSet
Position2: "'cpsp' Capital Spacing in Latin lookup 0 subtable" dx=5 dy=0 dh=10 dv=0
EndChar

StartChar: ncaron
Encoding: 328 328 173
Width: 569
GlyphClass: 2
Flags: MW
HStem: 0 21G<73 135 73 73 438 500 438 438> 492 51<282.5 344.5> 509 20G<73 135 135 135> 580 110<201 267 201 312>
VStem: 73 62<0 263 427 529> 438 62<0 289 289 296 0 304>
AnchorPoint: "Anchor-0" 283 0 basechar 0
LayerCount: 2
Fore
SplineSet
267 580 m 1xdc
 201 690 l 1
 250 690 l 1
 290 615 l 1
 331 690 l 1
 379 690 l 1
 312 580 l 1
 267 580 l 1xdc
498 385 m 0
 500 358 500 339 500 296 c 2
 500 0 l 1
 438 0 l 1
 438 289 l 2
 438 319 438 342 436 369 c 0
 429 441 389 492 300 492 c 0xdc
 212 492 135 428 135 263 c 2
 135 0 l 1
 73 0 l 1
 73 529 l 1
 135 529 l 1xbc
 135 427 l 1
 163 484 l 1
 206 527 253 543 312 543 c 0
 424 543 488 482 498 385 c 0
EndSplineSet
EndChar

StartChar: Eng
Encoding: 330 330 61
Width: 688
GlyphClass: 2
Flags: MW
HStem: -223 52<462 493> 0 21G<99 161 99 99> 625 65<158 158>
VStem: 99 62<0 356 0 690> 550 62<-76 -67 -67 -27 -27 -27 346 690>
LayerCount: 2
Fore
SplineSet
612 690 m 1
 612 -67 l 2
 612 -85 612 -94 611 -108 c 0
 603 -193 550 -222 462 -223 c 1
 462 -171 l 1
 524 -171 550 -146 550 -83 c 2
 550 -27 l 1
 158 625 l 1
 160 540 161 442 161 356 c 2
 161 0 l 1
 99 0 l 1
 99 690 l 1
 193 690 l 1
 553 85 l 1
 551 171 550 261 550 346 c 2
 550 690 l 1
 612 690 l 1
EndSplineSet
Position2: "'cpsp' Capital Spacing in Latin lookup 0 subtable" dx=5 dy=0 dh=10 dv=0
EndChar

StartChar: eng
Encoding: 331 331 175
Width: 569
GlyphClass: 2
Flags: MW
HStem: -210 52<344 373.5 344 391> 0 21G<73 135 73 73> 492 51<282.5 344.5> 509 20G<73 135 135 135>
VStem: 73 62<0 263 427 529> 438 62<-59 -54 -54 289 289 296>
LayerCount: 2
Fore
SplineSet
498 385 m 0xec
 500 358 500 339 500 296 c 2
 500 -54 l 2
 500 -72 500 -81 499 -95 c 0
 493 -184 438 -210 344 -210 c 1
 344 -158 l 1
 403 -158 433 -144 437 -92 c 0
 438 -81 438 -71 438 -59 c 2
 438 289 l 2
 438 319 438 342 436 369 c 0
 429 441 389 492 300 492 c 0xec
 212 492 135 428 135 263 c 2
 135 0 l 1
 73 0 l 1
 73 529 l 1
 135 529 l 1xdc
 135 427 l 1
 163 484 l 1
 206 527 253 543 312 543 c 0
 424 543 488 482 498 385 c 0xec
EndSplineSet
EndChar

StartChar: omacron
Encoding: 333 333 183
Width: 574
GlyphClass: 2
Flags: MW
HStem: -14 49<232 342 232 371> 493 50<232 342> 610 40<186 388 186 388>
VStem: 30 68<192 336 192 342> 186 202<610 650 610 650> 476 68<192 336>
LayerCount: 2
Fore
SplineSet
388 610 m 1
 186 610 l 1
 186 650 l 1
 388 650 l 1
 388 610 l 1
287 543 m 0
 455 543 544 420 544 264 c 0
 544 109 455 -14 287 -14 c 0
 119 -14 30 109 30 264 c 0
 30 420 119 543 287 543 c 0
287 35 m 0
 397 35 476 120 476 264 c 0
 476 408 397 493 287 493 c 0
 177 493 98 408 98 264 c 0
 98 120 177 35 287 35 c 0
EndSplineSet
EndChar

StartChar: Ohungarumlaut
Encoding: 336 336 68
Width: 728
GlyphClass: 2
Flags: MW
HStem: -14 50<295 443.5 295 470> 654 50<295 443.5> 736 94<284 398 284 398 385 398 337 427 385 385>
VStem: 49 69<248.5 442 248.5 450> 621 69<248.5 442>
LayerCount: 2
Fore
SplineSet
326 736 m 1
 284 736 l 1
 337 830 l 1
 398 830 l 1
 326 736 l 1
385 736 m 1
 438 830 l 1
 499 830 l 1
 427 736 l 1
 385 736 l 1
369 704 m 0
 571 704 690 555 690 345 c 0
 690 137 571 -14 369 -14 c 0
 168 -14 49 137 49 345 c 0
 49 555 168 704 369 704 c 0
369 36 m 0
 518 36 621 152 621 345 c 0
 621 539 518 654 369 654 c 0
 221 654 118 539 118 345 c 0
 118 152 221 36 369 36 c 0
EndSplineSet
Position2: "'cpsp' Capital Spacing in Latin lookup 0 subtable" dx=5 dy=0 dh=10 dv=0
EndChar

StartChar: ohungarumlaut
Encoding: 337 337 182
Width: 574
GlyphClass: 2
Flags: MW
HStem: -14 49<232 342 232 371> 493 50<232 342> 580 110<207 328 207 328 321 328 267 363 321 321>
VStem: 30 68<192 336 192 342> 476 68<192 336>
LayerCount: 2
Fore
SplineSet
249 580 m 1
 207 580 l 1
 267 690 l 1
 328 690 l 1
 249 580 l 1
321 580 m 1
 381 690 l 1
 442 690 l 1
 363 580 l 1
 321 580 l 1
287 543 m 0
 455 543 544 420 544 264 c 0
 544 109 455 -14 287 -14 c 0
 119 -14 30 109 30 264 c 0
 30 420 119 543 287 543 c 0
287 35 m 0
 397 35 476 120 476 264 c 0
 476 408 397 493 287 493 c 0
 177 493 98 408 98 264 c 0
 98 120 177 35 287 35 c 0
EndSplineSet
EndChar

StartChar: OE
Encoding: 338 338 72
Width: 1098
GlyphClass: 2
Flags: MW
HStem: -14 50<295 411.5> 0 51<683 1069 683 1069> 319 52<683 1033 683 1033> 639 51<683 1059 683 683> 654 50<295 416.5 265.5 445>
VStem: 49 69<251 440 251 446.5> 621 62<51 166 166 166 251 319 371 440 524 639>
LayerCount: 2
Fore
SplineSet
1069 51 m 1x76
 1069 0 l 1
 621 0 l 1x76
 621 166 l 1
 593 91 l 1
 535 16 460 -14 363 -14 c 0
 168 -14 49 143 49 345 c 0
 49 548 168 704 363 704 c 0xae
 470 704 532 675 593 599 c 1
 621 524 l 1
 621 690 l 1
 1059 690 l 1
 1059 639 l 1
 683 639 l 1
 683 371 l 1
 1033 371 l 1
 1033 319 l 1
 683 319 l 1
 683 51 l 1
 1069 51 l 1x76
369 36 m 0xae
 521 36 621 157 621 345 c 0
 621 535 521 654 369 654 c 0
 221 654 118 535 118 345 c 0
 118 157 221 36 369 36 c 0xae
EndSplineSet
Position2: "'cpsp' Capital Spacing in Latin lookup 0 subtable" dx=5 dy=0 dh=10 dv=0
EndChar

StartChar: oe
Encoding: 339 339 186
Width: 985
GlyphClass: 2
Flags: MW
HStem: -14 49<232 340 672.5 752> 246 49<545 883 545 945 545 883> 493 50<232 341 203 342 676.5 764>
VStem: 30 68<192 336 192 342> 476 69<246 246 246 295 246 336> 883 63<295 295>
LayerCount: 2
Fore
SplineSet
946 279 m 0
 946 272 946 262 945 246 c 1
 545 246 l 1
 551 95 630 35 715 35 c 0
 789 35 855 80 874 167 c 1
 939 167 l 1
 914 44 817 -14 712 -14 c 0
 624 -14 546 30 507 133 c 1
 469 37 393 -14 287 -14 c 0
 119 -14 30 109 30 264 c 0
 30 420 119 543 287 543 c 0
 395 543 473 492 511 394 c 1
 550 494 631 543 722 543 c 0
 870 543 946 425 946 279 c 0
287 35 m 0
 397 35 476 120 476 264 c 0
 476 408 397 493 287 493 c 0
 177 493 98 408 98 264 c 0
 98 120 177 35 287 35 c 0
545 295 m 1
 883 295 l 1
 876 432 808 493 720 493 c 0
 631 493 553 428 545 295 c 1
EndSplineSet
EndChar

StartChar: racute
Encoding: 341 341 191
Width: 303
GlyphClass: 2
Flags: MW
HStem: 0 21G<73 135 73 73> 509 20G<73 135 135 135> 517 20G<295 295> 521 20G<247 269.5> 580 110<137 258 137 258>
VStem: 73 62<0 297 433 529>
AnchorPoint: "Anchor-0" 104 0 basechar 0
LayerCount: 2
Fore
SplineSet
179 580 m 1x9c
 137 580 l 1
 198 690 l 1
 258 690 l 1
 179 580 l 1x9c
264 541 m 0
 275 541 286 540 295 537 c 1
 295 488 l 1xac
 203 495 135 438 135 297 c 2
 135 0 l 1
 73 0 l 1
 73 529 l 1
 135 529 l 1
 135 433 l 1xcc
 173 501 l 1
 197 526 230 541 264 541 c 0
EndSplineSet
EndChar

StartChar: rcommaaccent
Encoding: 343 343 193
Width: 303
GlyphClass: 2
Flags: MW
HStem: -187 136<31 132 31 132> 0 21G<73 135 73 73> 509 20G<73 135 135 135> 517 20G<295 295> 521 20G<247 269.5>
VStem: 73 62<0 297 433 529>
AnchorPoint: "Anchor-0" 104 0 basechar 0
LayerCount: 2
Fore
SplineSet
264 541 m 0xcc
 275 541 286 540 295 537 c 1
 295 488 l 1xd4
 203 495 135 438 135 297 c 2
 135 0 l 1
 73 0 l 1
 73 529 l 1
 135 529 l 1
 135 433 l 1xe4
 173 501 l 1
 197 526 230 541 264 541 c 0xcc
80 -51 m 1
 132 -51 l 1
 132 -60 l 1
 77 -187 l 1
 31 -187 l 1
 80 -51 l 1
EndSplineSet
EndChar

StartChar: Rcaron
Encoding: 344 344 78
Width: 601
GlyphClass: 2
Flags: MW
HStem: 0 21G<99 161 99 99 508 577 508 508> 312 52<161 302 161 303> 638 52<161 302 161 161> 736 94<227 293 227 338>
VStem: 99 62<0 312 364 638> 499 67<461.5 542.5>
AnchorPoint: "Anchor-0" 308 0 basechar 0
LayerCount: 2
Fore
SplineSet
293 736 m 1
 227 830 l 1
 277 830 l 1
 316 764 l 1
 355 830 l 1
 405 830 l 1
 338 736 l 1
 293 736 l 1
531 184 m 0
 541 89 553 39 577 0 c 1
 508 0 l 1
 491 44 479 87 469 177 c 0
 460 250 430 307 356 311 c 0
 338 312 318 312 302 312 c 2
 161 312 l 1
 161 0 l 1
 99 0 l 1
 99 690 l 1
 302 690 l 2
 337 690 364 690 396 686 c 0
 498 673 566 617 566 507 c 0
 566 416 508 361 436 343 c 1
 495 319 524 256 531 184 c 0
161 364 m 1
 303 364 l 2
 333 364 350 364 373 366 c 0
 449 372 499 421 499 502 c 0
 499 583 456 623 381 634 c 0
 357 637 335 638 302 638 c 2
 161 638 l 1
 161 364 l 1
EndSplineSet
Position2: "'cpsp' Capital Spacing in Latin lookup 0 subtable" dx=5 dy=0 dh=10 dv=0
EndChar

StartChar: rcaron
Encoding: 345 345 192
Width: 303
GlyphClass: 2
Flags: MW
HStem: 0 21G<73 135 73 73> 509 20G<73 135 135 135> 517 20G<295 295> 521 20G<247 269.5> 580 110<75 141 75 186>
VStem: 73 62<0 297 433 529>
AnchorPoint: "Anchor-0" 104 0 basechar 0
LayerCount: 2
Fore
SplineSet
141 580 m 1x9c
 75 690 l 1
 124 690 l 1
 164 615 l 1
 205 690 l 1
 253 690 l 1
 186 580 l 1
 141 580 l 1x9c
264 541 m 0
 275 541 286 540 295 537 c 1
 295 488 l 1xac
 203 495 135 438 135 297 c 2
 135 0 l 1
 73 0 l 1
 73 529 l 1
 135 529 l 1
 135 433 l 1xcc
 173 501 l 1
 197 526 230 541 264 541 c 0
EndSplineSet
EndChar

StartChar: sacute
Encoding: 347 347 195
Width: 450
GlyphClass: 2
Flags: MW
HStem: -14 49<196.5 265.5 196.5 282.5> 493 50<186 253.5> 580 110<199 320 199 320>
VStem: 47 64<368.5 428 368.5 437.5> 354 63<96.5 156.5>
AnchorPoint: "Anchor-0" 234 0 basechar 0
LayerCount: 2
Fore
SplineSet
241 580 m 1
 199 580 l 1
 260 690 l 1
 320 690 l 1
 241 580 l 1
223 543 m 0
 338 543 400 474 412 381 c 1
 347 381 l 1
 332 454 289 493 218 493 c 0
 154 493 111 457 111 399 c 0
 111 338 161 314 237 295 c 0
 359 265 417 221 417 132 c 0
 417 38 337 -14 228 -14 c 0
 123 -14 40 36 25 156 c 1
 89 156 l 1
 104 66 161 35 232 35 c 0
 299 35 354 66 354 127 c 0
 354 186 316 215 213 240 c 1
 122 264 47 301 47 392 c 0
 47 483 119 543 223 543 c 0
EndSplineSet
EndChar

StartChar: Scedilla
Encoding: 350 350 83
Width: 576
GlyphClass: 2
Flags: MW
HStem: -210 34<254 286 254 295> -75 31 -13 49<269 269> 654 50<258.5 343.5>
VStem: 79 67<489 572 489 574> 333 45<-142 -108> 469 66<128 212.5>
AnchorPoint: "Anchor-0" 295 0 basechar 0
LayerCount: 2
Fore
SplineSet
535 178 m 0
 535 66 439 -11 311 -14 c 1
 294 -44 l 1
 347 -50 378 -77 378 -125 c 0
 378 -182 327 -210 263 -210 c 0
 243 -210 226 -207 212 -201 c 1
 212 -165 l 1
 227 -173 243 -176 265 -176 c 0
 307 -176 333 -158 333 -126 c 0
 333 -90 305 -70 236 -75 c 1
 269 -13 l 1
 147 -2 61 68 47 190 c 1
 113 190 l 1
 130 91 206 36 305 36 c 0
 396 36 469 88 469 168 c 0
 469 257 417 295 288 327 c 1
 157 361 79 407 79 518 c 0
 79 630 181 704 303 704 c 0
 441 704 513 617 526 505 c 1
 461 505 l 1
 449 599 389 654 298 654 c 0
 219 654 146 613 146 531 c 0
 146 447 195 416 313 386 c 0
 461 348 535 292 535 178 c 0
EndSplineSet
Substitution2: "'locl' Localized Forms in Latin lookup 2 subtable" Scommaaccent
Substitution2: "'locl' Localized Forms in Latin lookup 1 subtable" Scommaaccent
Substitution2: "'aalt' Access All Alternates in Latin lookup 0 subtable" Scommaaccent
Position2: "'cpsp' Capital Spacing in Latin lookup 0 subtable" dx=5 dy=0 dh=10 dv=0
EndChar

StartChar: scedilla
Encoding: 351 351 197
Width: 450
GlyphClass: 2
Flags: MW
HStem: -210 34<193 225 193 234> -75 31 -13 48<208 208 250 250> 493 50<186 253.5>
VStem: 47 64<368.5 428 368.5 437.5> 272 45<-142 -108> 354 63<96.5 156.5>
AnchorPoint: "Anchor-0" 234 0 basechar 0
LayerCount: 2
Fore
SplineSet
417 132 m 0
 417 45 348 -7 250 -13 c 1
 233 -44 l 1
 286 -50 317 -77 317 -125 c 0
 317 -182 266 -210 202 -210 c 0
 182 -210 165 -207 151 -201 c 1
 151 -165 l 1
 166 -173 182 -176 204 -176 c 0
 246 -176 272 -158 272 -126 c 0
 272 -90 244 -70 175 -75 c 1
 208 -13 l 1
 112 -7 39 44 25 156 c 1
 89 156 l 1
 104 66 161 35 232 35 c 0
 299 35 354 66 354 127 c 0
 354 186 316 215 213 240 c 1
 122 264 47 301 47 392 c 0
 47 483 119 543 223 543 c 0
 338 543 400 474 412 381 c 1
 347 381 l 1
 332 454 289 493 218 493 c 0
 154 493 111 457 111 399 c 0
 111 338 161 314 237 295 c 0
 359 265 417 221 417 132 c 0
EndSplineSet
Substitution2: "'locl' Localized Forms in Latin lookup 2 subtable" scommaaccent
Substitution2: "'locl' Localized Forms in Latin lookup 1 subtable" scommaaccent
Substitution2: "'aalt' Access All Alternates in Latin lookup 0 subtable" scommaaccent
EndChar

StartChar: Scaron
Encoding: 352 352 82
Width: 576
GlyphClass: 2
Flags: MW
HStem: -14 50<255.5 350.5 255.5 369> 654 50<258.5 343.5> 736 94<207 273 207 318>
VStem: 79 67<489 572 489 574> 469 66<128 212.5>
AnchorPoint: "Anchor-0" 295 0 basechar 0
LayerCount: 2
Fore
SplineSet
273 736 m 1
 207 830 l 1
 257 830 l 1
 296 764 l 1
 335 830 l 1
 385 830 l 1
 318 736 l 1
 273 736 l 1
313 386 m 0
 461 348 535 292 535 178 c 0
 535 64 435 -14 303 -14 c 0
 163 -14 62 57 47 190 c 1
 113 190 l 1
 130 91 206 36 305 36 c 0
 396 36 469 88 469 168 c 0
 469 257 417 295 288 327 c 1
 157 361 79 407 79 518 c 0
 79 630 181 704 303 704 c 0
 441 704 513 617 526 505 c 1
 461 505 l 1
 449 599 389 654 298 654 c 0
 219 654 146 613 146 531 c 0
 146 447 195 416 313 386 c 0
EndSplineSet
Position2: "'cpsp' Capital Spacing in Latin lookup 0 subtable" dx=5 dy=0 dh=10 dv=0
EndChar

StartChar: Tcedilla
Encoding: 354 354 88
Width: 600
GlyphClass: 2
Flags: MW
HStem: -210 34<276 308 276 317> -75 31 0 21G<286 298 286 286 341 348 341 341> 639 51<33 286 33 601 348 348 348 601>
VStem: 286 62<0 639 0 639> 355 45<-142 -108>
AnchorPoint: "Anchor-0" 317 0 basechar 0
LayerCount: 2
Fore
SplineSet
341 0 m 1
 316 -44 l 1
 369 -50 400 -77 400 -125 c 0
 400 -182 349 -210 285 -210 c 0
 265 -210 248 -207 234 -201 c 1
 234 -165 l 1
 249 -173 265 -176 287 -176 c 0
 329 -176 355 -158 355 -126 c 0
 355 -90 327 -70 258 -75 c 1
 298 0 l 1xf4
 286 0 l 1
 286 639 l 1
 33 639 l 1
 33 690 l 1
 601 690 l 1
 601 639 l 1
 348 639 l 1
 348 0 l 1
 341 0 l 1
EndSplineSet
Substitution2: "'locl' Localized Forms in Latin lookup 2 subtable" uni021A
Substitution2: "'locl' Localized Forms in Latin lookup 1 subtable" uni021A
Substitution2: "'aalt' Access All Alternates in Latin lookup 0 subtable" uni021A
Position2: "'cpsp' Capital Spacing in Latin lookup 0 subtable" dx=5 dy=0 dh=10 dv=0
EndChar

StartChar: tcedilla
Encoding: 355 355 203
Width: 284
GlyphClass: 2
Flags: MW
HStem: -210 34<127 159 127 168> -75 31 -8 48.63 -3 21G<147 147 251 251> 477 48<23 91 23 91 153 254>
VStem: 91 62<144 145 145 477 525 642> 206 45<-142 -108>
AnchorPoint: "Anchor-0" 168 0 basechar 0
LayerCount: 2
Fore
SplineSet
153 477 m 1xae
 153 145 l 2
 153 123 153 112 154 98 c 0
 158 47 180 34 251 43 c 1xae
 251 -3 l 1x9e
 230 -7 208 -8 187 -8 c 1xae
 167 -44 l 1
 220 -50 251 -77 251 -125 c 0
 251 -182 200 -210 136 -210 c 0
 116 -210 99 -207 85 -201 c 1
 85 -165 l 1
 100 -173 116 -176 138 -176 c 0
 180 -176 206 -158 206 -126 c 0
 206 -90 178 -70 109 -75 c 1
 147 -3 l 1
 114 7 96 33 92 76 c 0xde
 91 94 91 114 91 144 c 2
 91 477 l 1
 23 477 l 1
 23 525 l 1
 91 525 l 1
 91 642 l 1
 153 642 l 1
 153 525 l 1
 254 525 l 1
 254 477 l 1
 153 477 l 1xae
EndSplineSet
Substitution2: "'locl' Localized Forms in Latin lookup 2 subtable" uni021B
Substitution2: "'locl' Localized Forms in Latin lookup 1 subtable" uni021B
Substitution2: "'aalt' Access All Alternates in Latin lookup 0 subtable" uni021B
EndChar

StartChar: tcaron
Encoding: 357 357 202
Width: 272
GlyphClass: 2
Flags: MW
HStem: -8 48.63 477 48<23 91 23 91 153 254> 599 43 599 136<197 298 197 298>
VStem: 91 62<144 145 145 477 525 642>
AnchorPoint: "Anchor-0" 168 0 basechar 0
LayerCount: 2
Fore
SplineSet
298 735 m 1xd8
 298 725 l 1
 243 599 l 1
 197 599 l 1
 246 735 l 1
 298 735 l 1xd8
153 525 m 1
 254 525 l 1
 254 477 l 1
 153 477 l 1
 153 145 l 2
 153 123 153 112 154 98 c 0
 158 47 180 34 251 43 c 1
 251 -3 l 1
 230 -7 208 -8 187 -8 c 0
 128 -8 97 18 92 76 c 0
 91 94 91 114 91 144 c 2
 91 477 l 1
 23 477 l 1
 23 525 l 1
 91 525 l 1
 91 642 l 1
 153 642 l 1xe8
 153 525 l 1
EndSplineSet
EndChar

StartChar: Tbar
Encoding: 358 358 86
Width: 600
GlyphClass: 2
Flags: MW
HStem: 0 21G<286 348 286 286> 312 43<162 286 162 286 348 472> 639 51<33 286 33 601 348 601 348 348>
VStem: 286 62<0 312 0 312 355 639>
AnchorPoint: "Anchor-0" 317 0 basechar 0
LayerCount: 2
Fore
SplineSet
348 639 m 1
 348 355 l 1
 472 355 l 1
 472 312 l 1
 348 312 l 1
 348 0 l 1
 286 0 l 1
 286 312 l 1
 162 312 l 1
 162 355 l 1
 286 355 l 1
 286 639 l 1
 33 639 l 1
 33 690 l 1
 601 690 l 1
 601 639 l 1
 348 639 l 1
EndSplineSet
Position2: "'cpsp' Capital Spacing in Latin lookup 0 subtable" dx=5 dy=0 dh=10 dv=0
EndChar

StartChar: tbar
Encoding: 359 359 201
Width: 284
GlyphClass: 2
Flags: MW
HStem: -8 48.63 309 40<26 91 26 91 153 228> 477 48<23 91 23 91 153 254>
VStem: 91 62<144 145 145 309 349 477 525 642>
AnchorPoint: "Anchor-0" 168 0 basechar 0
LayerCount: 2
Fore
SplineSet
153 477 m 1
 153 349 l 1
 228 349 l 1
 228 309 l 1
 153 309 l 1
 153 145 l 2
 153 123 153 112 154 98 c 0
 158 47 180 34 251 43 c 1
 251 -3 l 1
 230 -7 208 -8 187 -8 c 0
 128 -8 97 18 92 76 c 0
 91 94 91 114 91 144 c 2
 91 309 l 1
 26 309 l 1
 26 349 l 1
 91 349 l 1
 91 477 l 1
 23 477 l 1
 23 525 l 1
 91 525 l 1
 91 642 l 1
 153 642 l 1
 153 525 l 1
 254 525 l 1
 254 477 l 1
 153 477 l 1
EndSplineSet
EndChar

StartChar: Umacron
Encoding: 362 362 96
Width: 651
GlyphClass: 2
Flags: MW
HStem: -14 50<280 395.5 280 416.5> 670 20G<93 155 155 155 521 583 583 583> 763 40<237 439 237 439>
VStem: 93 62<247 250 250 690> 237 202<763 803 763 803> 521 62<250 690>
LayerCount: 2
Fore
SplineSet
439 763 m 1
 237 763 l 1
 237 803 l 1
 439 803 l 1
 439 763 l 1
583 690 m 1
 583 247 l 2
 583 227 582 207 580 183 c 0
 572 71 495 -14 338 -14 c 0
 180 -14 104 71 95 183 c 0
 93 207 93 227 93 247 c 2
 93 690 l 1
 155 690 l 1
 155 250 l 2
 155 228 155 208 157 189 c 0
 165 102 222 36 338 36 c 0
 453 36 510 102 518 189 c 0
 520 208 521 228 521 250 c 2
 521 690 l 1
 583 690 l 1
EndSplineSet
Position2: "'cpsp' Capital Spacing in Latin lookup 0 subtable" dx=5 dy=0 dh=10 dv=0
EndChar

StartChar: umacron
Encoding: 363 363 211
Width: 567
GlyphClass: 2
Flags: MW
HStem: -14 50<226 282> 0 21G<430 492 430 430> 509 20G<65 127 127 127 430 492 492 492> 610 40<177 379 177 379>
VStem: 65 62<221.5 234 234 529> 177 202<610 650 610 650> 430 62<0 102 102 102 266 529 0 529>
LayerCount: 2
Fore
SplineSet
379 610 m 1xbe
 177 610 l 1
 177 650 l 1
 379 650 l 1
 379 610 l 1xbe
492 529 m 1
 492 0 l 1
 430 0 l 1x7e
 430 102 l 1
 401 43 l 1
 359 2 311 -14 253 -14 c 0
 145 -14 81 47 69 131 c 0
 66 158 65 177 65 220 c 2
 65 529 l 1
 127 529 l 1
 127 234 l 2
 127 209 128 182 131 155 c 0
 139 85 185 36 267 36 c 0
 355 36 430 100 430 266 c 2
 430 529 l 1
 492 529 l 1
EndSplineSet
EndChar

StartChar: Uring
Encoding: 366 366 98
Width: 651
GlyphClass: 2
Flags: MW
HStem: -14 50<280 395.5 280 416.5> 670 20G<93 155 155 155 521 583 583 583> 718 31<326 350 326 361> 832 31<326 350>
VStem: 93 62<247 250 250 690> 258 40<779 802.5 779 812.5> 378 41<779 802.5> 521 62<250 690>
LayerCount: 2
Fore
SplineSet
338 863 m 0
 384 863 419 834 419 791 c 0
 419 748 384 718 338 718 c 0
 292 718 258 748 258 791 c 0
 258 834 292 863 338 863 c 0
338 832 m 0
 314 832 298 814 298 791 c 0
 298 767 314 749 338 749 c 0
 362 749 378 767 378 791 c 0
 378 814 362 832 338 832 c 0
583 690 m 1xff
 583 247 l 2
 583 227 582 207 580 183 c 0
 572 71 495 -14 338 -14 c 0
 180 -14 104 71 95 183 c 0
 93 207 93 227 93 247 c 2
 93 690 l 1
 155 690 l 1
 155 250 l 2
 155 228 155 208 157 189 c 0
 165 102 222 36 338 36 c 0
 453 36 510 102 518 189 c 0
 520 208 521 228 521 250 c 2
 521 690 l 1
 583 690 l 1xff
EndSplineSet
Position2: "'cpsp' Capital Spacing in Latin lookup 0 subtable" dx=5 dy=0 dh=10 dv=0
EndChar

StartChar: uring
Encoding: 367 367 213
Width: 567
GlyphClass: 2
Flags: MW
HStem: -14 50<226 282> 0 21G<430 492 430 430> 509 20G<65 127 127 127 430 492 492 492> 568 30<266 290 266 301> 689 30<266 290>
VStem: 65 62<221.5 234 234 529> 198 40<629.5 656.5 629.5 665.5> 318 40<629.5 656.5> 430 62<0 102 102 102 266 529 0 529>
LayerCount: 2
Fore
SplineSet
278 568 m 0xbf80
 232 568 198 599 198 643 c 0
 198 688 232 719 278 719 c 0
 324 719 358 688 358 643 c 0
 358 599 324 568 278 568 c 0xbf80
278 689 m 0
 254 689 238 670 238 643 c 0
 238 616 254 598 278 598 c 0
 302 598 318 616 318 643 c 0
 318 670 302 689 278 689 c 0
492 529 m 1
 492 0 l 1
 430 0 l 1x7f80
 430 102 l 1
 401 43 l 1
 359 2 311 -14 253 -14 c 0
 145 -14 81 47 69 131 c 0
 66 158 65 177 65 220 c 2
 65 529 l 1
 127 529 l 1
 127 234 l 2
 127 209 128 182 131 155 c 0
 139 85 185 36 267 36 c 0
 355 36 430 100 430 266 c 2
 430 529 l 1
 492 529 l 1
EndSplineSet
EndChar

StartChar: Uogonek
Encoding: 370 370 97
Width: 651
GlyphClass: 2
Flags: MW
HStem: -223 41<364.5 372> -14 50<280 338 338 345> 670 20G<93 155 155 155 521 583 583 583>
VStem: 93 62<247 250 250 690> 274 60<-149.5 -116.5> 521 62<250 690>
LayerCount: 2
Fore
SplineSet
583 690 m 1
 583 247 l 2
 583 227 582 207 580 183 c 0
 574 98 528 29 438 0 c 1
 380 -17 334 -67 334 -131 c 0
 334 -168 350 -182 379 -182 c 0
 400 -182 418 -175 438 -158 c 1
 438 -197 l 1
 415 -215 388 -223 356 -223 c 0
 310 -223 274 -204 274 -144 c 0
 274 -89 303 -44 345 -14 c 1
 338 -14 l 2
 180 -14 104 71 95 183 c 0
 93 207 93 227 93 247 c 2
 93 690 l 1
 155 690 l 1
 155 250 l 2
 155 228 155 208 157 189 c 0
 165 102 222 36 338 36 c 0
 453 36 510 102 518 189 c 0
 520 208 521 228 521 250 c 2
 521 690 l 1
 583 690 l 1
EndSplineSet
Position2: "'cpsp' Capital Spacing in Latin lookup 0 subtable" dx=5 dy=0 dh=10 dv=0
EndChar

StartChar: uogonek
Encoding: 371 371 212
Width: 567
GlyphClass: 2
Flags: MW
HStem: -223 41<400.5 408> -14 50<226 282> 0 21G<474 492 474 474> 509 20G<65 127 127 127 430 492 492 492>
VStem: 65 62<221.5 234 234 529> 310 60<-149.5 -106.5> 430 62<12 102 102 102 266 529 0 529>
LayerCount: 2
Fore
SplineSet
492 529 m 1xde
 492 0 l 1
 474 0 l 1xbe
 415 -13 370 -67 370 -131 c 0
 370 -168 386 -182 415 -182 c 0
 436 -182 454 -175 474 -158 c 1
 474 -197 l 1
 451 -215 424 -223 392 -223 c 0
 346 -223 310 -204 310 -144 c 0
 310 -69 364 -11 430 12 c 1
 430 102 l 1
 401 43 l 1
 359 2 311 -14 253 -14 c 0
 145 -14 81 47 69 131 c 0
 66 158 65 177 65 220 c 2
 65 529 l 1
 127 529 l 1
 127 234 l 2
 127 209 128 182 131 155 c 0
 139 85 185 36 267 36 c 0
 355 36 430 100 430 266 c 2
 430 529 l 1
 492 529 l 1xde
EndSplineSet
EndChar

StartChar: Wcircumflex
Encoding: 372 372 102
Width: 904
GlyphClass: 2
Flags: MW
HStem: 0 56<249 249 249 287 205 249> 618 62<463 463> 670 20G<26 96 96 96 835 900 900 900> 736 94<372 483 372 483 438 499 438 550>
VStem: 26 874<690 690>
LayerCount: 2
Fore
SplineSet
421 736 m 1xb8
 372 736 l 1
 438 830 l 1
 483 830 l 1
 550 736 l 1
 499 736 l 1
 460 802 l 1
 421 736 l 1xb8
900 690 m 1
 711 0 l 1
 630 0 l 1
 463 618 l 1xd8
 287 0 l 1
 205 0 l 1
 26 690 l 1
 96 690 l 1xb8
 249 56 l 1
 423 680 l 1
 506 680 l 1xd8
 673 56 l 1
 835 690 l 1
 900 690 l 1
EndSplineSet
Position2: "'cpsp' Capital Spacing in Latin lookup 0 subtable" dx=5 dy=0 dh=10 dv=0
EndChar

StartChar: wcircumflex
Encoding: 373 373 217
Width: 759
GlyphClass: 2
Flags: MW
HStem: 0 57<213 213 213 250 174 213> 466 62<380 380> 508 20G<342 421 421 421> 509 20G<6 77 77 77 686 752 752 752> 580 110<293 404 293 404 359 422 359 471> 655 35<381 381>
VStem: 6 746<529 529>
LayerCount: 2
Fore
SplineSet
341 580 m 1x9a
 293 580 l 1
 359 690 l 1
 404 690 l 1
 471 580 l 1
 422 580 l 1x9a
 381 655 l 1x96
 341 580 l 1x9a
752 529 m 1
 585 0 l 1
 510 0 l 1
 380 466 l 1xca
 250 0 l 1
 174 0 l 1
 6 529 l 1
 77 529 l 1x9a
 213 57 l 1
 342 528 l 1
 421 528 l 1xaa
 551 62 l 1
 686 529 l 1
 752 529 l 1
EndSplineSet
EndChar

StartChar: Ycircumflex
Encoding: 374 374 108
Width: 568
GlyphClass: 2
Flags: MW
HStem: 0 21G<265 327 265 265> 670 20G<21 92 92 92 501 572 572 572> 736 94<208 319 208 319 274 335 274 386>
VStem: 265 62<0 275 275 275>
LayerCount: 2
Fore
SplineSet
257 736 m 1
 208 736 l 1
 274 830 l 1
 319 830 l 1
 386 736 l 1
 335 736 l 1
 296 802 l 1
 257 736 l 1
327 276 m 1
 327 0 l 1
 265 0 l 1
 265 275 l 1
 21 690 l 1
 92 690 l 1
 299 336 l 1
 501 690 l 1
 572 690 l 1
 327 276 l 1
EndSplineSet
Position2: "'cpsp' Capital Spacing in Latin lookup 0 subtable" dx=5 dy=0 dh=10 dv=0
EndChar

StartChar: ycircumflex
Encoding: 375 375 223
Width: 492
GlyphClass: 2
Flags: MW
HStem: -210 52<84 110 80.5 130.5> 509 20G<6 76 76 76 417 485 485 485> 580 110<159 270 159 270 225 288 225 337> 655 35<247 247>
VStem: 6 479<529 529>
LayerCount: 2
Fore
SplineSet
207 580 m 1xe8
 159 580 l 1
 225 690 l 1
 270 690 l 1
 337 580 l 1
 288 580 l 1xe8
 247 655 l 1xd8
 207 580 l 1xe8
485 529 m 1
 273 -28 l 2
 219 -168 168 -210 93 -210 c 0
 75 -210 64 -210 52 -207 c 1
 52 -156 l 1
 65 -158 75 -158 86 -158 c 0
 134 -158 170 -133 204 -48 c 2
 215 -20 l 1
 6 529 l 1
 76 529 l 1
 247 46 l 1
 417 529 l 1
 485 529 l 1
EndSplineSet
EndChar

StartChar: Ydieresis
Encoding: 376 376 109
Width: 568
GlyphClass: 2
Flags: MW
HStem: 0 21G<265 327 265 265> 670 20G<21 92 92 92 501 572 572 572> 747 72<229 249 343 363>
VStem: 203 72<773 793> 265 62<0 275 275 275> 317 72<773 793>
LayerCount: 2
Fore
SplineSet
239 747 m 0xf4
 219 747 203 763 203 783 c 0
 203 803 219 819 239 819 c 0
 259 819 275 803 275 783 c 0
 275 763 259 747 239 747 c 0xf4
353 747 m 0
 333 747 317 763 317 783 c 0
 317 803 333 819 353 819 c 0
 373 819 389 803 389 783 c 0
 389 763 373 747 353 747 c 0
327 276 m 1xe8
 327 0 l 1
 265 0 l 1
 265 275 l 1
 21 690 l 1
 92 690 l 1
 299 336 l 1
 501 690 l 1
 572 690 l 1
 327 276 l 1xe8
EndSplineSet
Position2: "'cpsp' Capital Spacing in Latin lookup 0 subtable" dx=5 dy=0 dh=10 dv=0
EndChar

StartChar: Zacute
Encoding: 377 377 112
Width: 571
GlyphClass: 2
Flags: MW
HStem: 0 52<116 548 116 548> 638 52<70 470 70 542> 638 192<323 383 323 470>
VStem: 42 506<0 48 48 48>
LayerCount: 2
Fore
SplineSet
311 736 m 1xb0
 269 736 l 1
 323 830 l 1
 383 830 l 1
 311 736 l 1xb0
548 52 m 1
 548 0 l 1
 42 0 l 1
 42 48 l 1
 470 638 l 1
 70 638 l 1
 70 690 l 1
 542 690 l 1
 542 639 l 1xd0
 116 52 l 1
 548 52 l 1
EndSplineSet
Position2: "'cpsp' Capital Spacing in Latin lookup 0 subtable" dx=5 dy=0 dh=10 dv=0
EndChar

StartChar: zacute
Encoding: 378 378 227
Width: 455
GlyphClass: 2
Flags: MW
HStem: 0 50<92 429 92 429> 473 50<41 351 41 425> 580 110<201 322 201 322>
VStem: 17 412<0 48 48 48>
LayerCount: 2
Fore
SplineSet
243 580 m 1
 201 580 l 1
 262 690 l 1
 322 690 l 1
 243 580 l 1
429 50 m 1
 429 0 l 1
 17 0 l 1
 17 48 l 1
 351 473 l 1
 41 473 l 1
 41 523 l 1
 425 523 l 1
 425 472 l 1
 92 50 l 1
 429 50 l 1
EndSplineSet
EndChar

StartChar: Zdotaccent
Encoding: 379 379 114
Width: 571
GlyphClass: 2
Flags: MW
HStem: 0 52<116 548 116 548> 638 52<70 470 70 542> 747 72<284 304>
VStem: 258 72<773 793>
LayerCount: 2
Fore
SplineSet
294 747 m 0
 274 747 258 763 258 783 c 0
 258 803 274 819 294 819 c 0
 314 819 330 803 330 783 c 0
 330 763 314 747 294 747 c 0
548 52 m 1
 548 0 l 1
 42 0 l 1
 42 48 l 1
 470 638 l 1
 70 638 l 1
 70 690 l 1
 542 690 l 1
 542 639 l 1
 116 52 l 1
 548 52 l 1
EndSplineSet
Position2: "'cpsp' Capital Spacing in Latin lookup 0 subtable" dx=5 dy=0 dh=10 dv=0
EndChar

StartChar: zdotaccent
Encoding: 380 380 229
Width: 455
GlyphClass: 2
Flags: MW
HStem: 0 50<92 429 92 429> 473 50<41 351 41 425> 601 84<215.5 239>
VStem: 185 84<631.5 655>
LayerCount: 2
Fore
SplineSet
227 601 m 0
 204 601 185 620 185 643 c 0
 185 667 204 685 227 685 c 0
 251 685 269 667 269 643 c 0
 269 620 251 601 227 601 c 0
429 50 m 1
 429 0 l 1
 17 0 l 1
 17 48 l 1
 351 473 l 1
 41 473 l 1
 41 523 l 1
 425 523 l 1
 425 472 l 1
 92 50 l 1
 429 50 l 1
EndSplineSet
EndChar

StartChar: Zcaron
Encoding: 381 381 113
Width: 571
GlyphClass: 2
Flags: MW
HStem: 0 52<116 548 116 548> 638 52<70 470 70 542> 638 192<206 256 334 384 206 470 70 256>
VStem: 42 506<0 48 48 48>
LayerCount: 2
Fore
SplineSet
272 736 m 1xb0
 206 830 l 1
 256 830 l 1
 295 764 l 1
 334 830 l 1
 384 830 l 1
 317 736 l 1
 272 736 l 1xb0
548 52 m 1
 548 0 l 1
 42 0 l 1
 42 48 l 1
 470 638 l 1
 70 638 l 1
 70 690 l 1
 542 690 l 1
 542 639 l 1xd0
 116 52 l 1
 548 52 l 1
EndSplineSet
Position2: "'cpsp' Capital Spacing in Latin lookup 0 subtable" dx=5 dy=0 dh=10 dv=0
EndChar

StartChar: zcaron
Encoding: 382 382 228
Width: 455
GlyphClass: 2
Flags: MW
HStem: 0 50<92 429 92 429> 473 50<41 351 41 425> 580 110<139 205 139 250>
VStem: 17 412<0 48 48 48>
LayerCount: 2
Fore
SplineSet
205 580 m 1
 139 690 l 1
 188 690 l 1
 228 615 l 1
 269 690 l 1
 317 690 l 1
 250 580 l 1
 205 580 l 1
429 50 m 1
 429 0 l 1
 17 0 l 1
 17 48 l 1
 351 473 l 1
 41 473 l 1
 41 523 l 1
 425 523 l 1
 425 472 l 1
 92 50 l 1
 429 50 l 1
EndSplineSet
EndChar

StartChar: Scommaaccent
Encoding: 536 536 84
Width: 576
GlyphClass: 2
Flags: MW
HStem: -187 136<226 327 226 327> -14 50<255.5 350.5 255.5 369> 654 50<258.5 343.5>
VStem: 79 67<489 572 489 574> 469 66<128 212.5>
AnchorPoint: "Anchor-0" 295 0 basechar 0
LayerCount: 2
Fore
SplineSet
303 704 m 0
 441 704 513 617 526 505 c 1
 461 505 l 1
 449 599 389 654 298 654 c 0
 219 654 146 613 146 531 c 0
 146 447 195 416 313 386 c 0
 461 348 535 292 535 178 c 0
 535 64 435 -14 303 -14 c 0
 163 -14 62 57 47 190 c 1
 113 190 l 1
 130 91 206 36 305 36 c 0
 396 36 469 88 469 168 c 0
 469 257 417 295 288 327 c 1
 157 361 79 407 79 518 c 0
 79 630 181 704 303 704 c 0
327 -60 m 1
 272 -187 l 1
 226 -187 l 1
 275 -51 l 1
 327 -51 l 1
 327 -60 l 1
EndSplineSet
Position2: "'cpsp' Capital Spacing in Latin lookup 0 subtable" dx=5 dy=0 dh=10 dv=0
EndChar

StartChar: scommaaccent
Encoding: 537 537 198
Width: 450
GlyphClass: 2
Flags: MW
HStem: -187 136<161 262 161 262> -14 49<196.5 265.5 196.5 282.5> 493 50<186 253.5>
VStem: 47 64<368.5 428 368.5 437.5> 354 63<96.5 156.5>
AnchorPoint: "Anchor-0" 234 0 basechar 0
LayerCount: 2
Fore
SplineSet
223 543 m 0
 338 543 400 474 412 381 c 1
 347 381 l 1
 332 454 289 493 218 493 c 0
 154 493 111 457 111 399 c 0
 111 338 161 314 237 295 c 0
 359 265 417 221 417 132 c 0
 417 38 337 -14 228 -14 c 0
 123 -14 40 36 25 156 c 1
 89 156 l 1
 104 66 161 35 232 35 c 0
 299 35 354 66 354 127 c 0
 354 186 316 215 213 240 c 1
 122 264 47 301 47 392 c 0
 47 483 119 543 223 543 c 0
262 -60 m 1
 207 -187 l 1
 161 -187 l 1
 210 -51 l 1
 262 -51 l 1
 262 -60 l 1
EndSplineSet
EndChar

StartChar: uni021A
Encoding: 538 538 89
Width: 600
GlyphClass: 2
Flags: MW
HStem: -187 136<248 349 248 349> 0 21G<286 348 286 286> 639 51<33 286 33 601 348 601 348 348>
VStem: 286 62<0 639 0 639>
AnchorPoint: "Anchor-0" 317 0 basechar 0
LayerCount: 2
Fore
SplineSet
601 690 m 1
 601 639 l 1
 348 639 l 1
 348 0 l 1
 286 0 l 1
 286 639 l 1
 33 639 l 1
 33 690 l 1
 601 690 l 1
297 -51 m 1
 349 -51 l 1
 349 -60 l 1
 294 -187 l 1
 248 -187 l 1
 297 -51 l 1
EndSplineSet
Position2: "'cpsp' Capital Spacing in Latin lookup 0 subtable" dx=5 dy=0 dh=10 dv=0
EndChar

StartChar: circumflex
Encoding: 710 710 328
Width: 300
Flags: MW
HStem: 580 110<62 173 62 173 128 240 128 191> 655 35<150 150>
VStem: 62 178<580 580>
LayerCount: 2
Fore
SplineSet
191 580 m 1xa0
 150 655 l 1x60
 110 580 l 1
 62 580 l 1
 128 690 l 1
 173 690 l 1
 240 580 l 1
 191 580 l 1xa0
EndSplineSet
EndChar

StartChar: caron
Encoding: 711 711 326
Width: 300
Flags: MW
HStem: 580 110<62 173 62 128>
VStem: 62 178<690 690>
LayerCount: 2
Fore
SplineSet
240 690 m 1
 173 580 l 1
 128 580 l 1
 62 690 l 1
 111 690 l 1
 151 615 l 1
 192 690 l 1
 240 690 l 1
EndSplineSet
EndChar

StartChar: breve
Encoding: 728 728 325
Width: 300
Flags: MW
HStem: 568 42<132.5 167.5 132.5 183.5> 670 20G<52 92 92 92 208 248 248 248>
VStem: 52 40<650.5 690> 208 40<650.5 690>
LayerCount: 2
Fore
SplineSet
208 690 m 1
 248 690 l 1
 248 611 217 568 150 568 c 0
 82 568 52 611 52 690 c 1
 92 690 l 1
 93 634 115 610 150 610 c 0
 185 610 207 634 208 690 c 1
EndSplineSet
EndChar

StartChar: dotaccent
Encoding: 729 729 330
Width: 300
Flags: MW
HStem: 601 84<138.5 162>
VStem: 108 84<631.5 655>
LayerCount: 2
Fore
SplineSet
150 685 m 0
 174 685 192 667 192 643 c 0
 192 620 174 601 150 601 c 0
 127 601 108 620 108 643 c 0
 108 667 127 685 150 685 c 0
EndSplineSet
EndChar

StartChar: ring
Encoding: 730 730 335
Width: 300
Flags: MW
HStem: 568 30<138 162 138 173> 689 30<138 162>
VStem: 70 40<629.5 656.5 629.5 665.5> 190 40<629.5 656.5>
LayerCount: 2
Fore
SplineSet
150 719 m 0
 196 719 230 688 230 643 c 0
 230 599 196 568 150 568 c 0
 104 568 70 599 70 643 c 0
 70 688 104 719 150 719 c 0
150 689 m 0
 126 689 110 670 110 643 c 0
 110 616 126 598 150 598 c 0
 174 598 190 616 190 643 c 0
 190 670 174 689 150 689 c 0
EndSplineSet
EndChar

StartChar: ogonek
Encoding: 731 731 334
Width: 300
Flags: MW
HStem: -223 41<120.5 128> 0 21G<194 194>
VStem: 30 60<-149.5 -106.5>
LayerCount: 2
Fore
SplineSet
150 12 m 1
 194 0 l 1
 135 -13 90 -67 90 -131 c 0
 90 -168 106 -182 135 -182 c 0
 156 -182 174 -175 194 -158 c 1
 194 -197 l 1
 171 -215 144 -223 112 -223 c 0
 66 -223 30 -204 30 -144 c 0
 30 -69 84 -11 150 12 c 1
EndSplineSet
EndChar

StartChar: tilde
Encoding: 732 732 336
Width: 300
Flags: MW
HStem: 607 40<197.5 207 197.5 217.5> 632 39<93 102.5>
VStem: 51 31<611 618.5 611 633.5> 218 31<659.5 667>
LayerCount: 2
Fore
SplineSet
97 671 m 0x70
 115 671 130 667 157 658 c 0
 181 650 193 647 202 647 c 0
 212 647 218 652 218 667 c 1
 249 667 l 1
 249 622 232 607 203 607 c 0xb0
 185 607 170 611 143 620 c 0
 119 628 107 632 98 632 c 0
 88 632 82 626 82 611 c 1
 51 611 l 1
 51 656 68 671 97 671 c 0x70
EndSplineSet
EndChar

StartChar: hungarumlaut
Encoding: 733 733 332
Width: 300
Flags: MW
HStem: 580 110<70 191 70 191 184 184 184 191 130 226>
VStem: 70 235<580 690>
LayerCount: 2
Fore
SplineSet
112 580 m 1
 70 580 l 1
 130 690 l 1
 191 690 l 1
 112 580 l 1
226 580 m 1
 184 580 l 1
 244 690 l 1
 305 690 l 1
 226 580 l 1
EndSplineSet
EndChar

StartChar: uni0326
Encoding: 806 806 337
Width: 0
GlyphClass: 4
Flags: MW
HStem: -187 136<81 182 81 182>
VStem: 81 101
AnchorPoint: "Anchor-0" 154 0 mark 0
LayerCount: 2
Fore
SplineSet
182 -60 m 1
 127 -187 l 1
 81 -187 l 1
 130 -51 l 1
 182 -51 l 1
 182 -60 l 1
EndSplineSet
EndChar

StartChar: Wgrave
Encoding: 7808 7808 104
Width: 904
GlyphClass: 2
Flags: MW
HStem: 0 56<249 249 249 287 205 249> 618 62<463 463> 670 20G<26 96 96 96 835 900 900 900> 736 94<369 441 369 483>
VStem: 26 874<690 690>
LayerCount: 2
Fore
SplineSet
441 736 m 1xb8
 369 830 l 1
 430 830 l 1
 483 736 l 1
 441 736 l 1xb8
900 690 m 1
 711 0 l 1
 630 0 l 1
 463 618 l 1xd8
 287 0 l 1
 205 0 l 1
 26 690 l 1
 96 690 l 1xb8
 249 56 l 1
 423 680 l 1
 506 680 l 1xd8
 673 56 l 1
 835 690 l 1
 900 690 l 1
EndSplineSet
Position2: "'cpsp' Capital Spacing in Latin lookup 0 subtable" dx=5 dy=0 dh=10 dv=0
EndChar

StartChar: wgrave
Encoding: 7809 7809 219
Width: 759
GlyphClass: 2
Flags: MW
HStem: 0 57<213 213 213 250 174 213> 466 62<380 380> 508 20G<342 421 421 421> 509 20G<6 77 77 77 686 752 752 752> 580 110<285 364 285 407>
VStem: 6 746<529 529>
LayerCount: 2
Fore
SplineSet
364 580 m 1x9c
 285 690 l 1
 346 690 l 1
 407 580 l 1
 364 580 l 1x9c
752 529 m 1
 585 0 l 1
 510 0 l 1
 380 466 l 1xcc
 250 0 l 1
 174 0 l 1
 6 529 l 1
 77 529 l 1x9c
 213 57 l 1
 342 528 l 1
 421 528 l 1xac
 551 62 l 1
 686 529 l 1
 752 529 l 1
EndSplineSet
EndChar

StartChar: wacute
Encoding: 7811 7811 216
Width: 759
GlyphClass: 2
Flags: MW
HStem: 0 57<213 213 213 250 174 213> 466 62<380 380> 508 20G<342 421 421 421> 509 20G<6 77 77 77 686 752 752 752> 580 110<355 476 355 476>
VStem: 6 746<529 529>
LayerCount: 2
Fore
SplineSet
397 580 m 1x9c
 355 580 l 1
 416 690 l 1
 476 690 l 1
 397 580 l 1x9c
752 529 m 1
 585 0 l 1
 510 0 l 1
 380 466 l 1xcc
 250 0 l 1
 174 0 l 1
 6 529 l 1
 77 529 l 1x9c
 213 57 l 1
 342 528 l 1
 421 528 l 1xac
 551 62 l 1
 686 529 l 1
 752 529 l 1
EndSplineSet
EndChar

StartChar: Wdieresis
Encoding: 7812 7812 103
Width: 904
GlyphClass: 2
Flags: MW
HStem: 0 56<249 249 249 287 205 249> 618 62<463 463> 670 20G<26 96 96 96 835 900 900 900> 747 72<393 413 507 527>
VStem: 367 72<773 793> 481 72<773 793>
LayerCount: 2
Fore
SplineSet
403 747 m 0xbc
 383 747 367 763 367 783 c 0
 367 803 383 819 403 819 c 0
 423 819 439 803 439 783 c 0
 439 763 423 747 403 747 c 0xbc
517 747 m 0
 497 747 481 763 481 783 c 0
 481 803 497 819 517 819 c 0
 537 819 553 803 553 783 c 0
 553 763 537 747 517 747 c 0
900 690 m 1
 711 0 l 1
 630 0 l 1
 463 618 l 1xdc
 287 0 l 1
 205 0 l 1
 26 690 l 1
 96 690 l 1xbc
 249 56 l 1
 423 680 l 1
 506 680 l 1xdc
 673 56 l 1
 835 690 l 1
 900 690 l 1
EndSplineSet
Position2: "'cpsp' Capital Spacing in Latin lookup 0 subtable" dx=5 dy=0 dh=10 dv=0
EndChar

StartChar: wdieresis
Encoding: 7813 7813 218
Width: 759
GlyphClass: 2
Flags: MW
HStem: 0 57<213 213 213 250 174 213> 466 62<380 380> 508 20G<342 421 421 421> 509 20G<6 77 77 77 686 752 752 752> 594 73<310.5 330 432 451.5>
VStem: 284 73<621 640.5> 405 73<621 640.5>
LayerCount: 2
Fore
SplineSet
320 594 m 0x9e
 301 594 284 611 284 631 c 0
 284 650 301 667 320 667 c 0
 340 667 357 650 357 631 c 0
 357 611 340 594 320 594 c 0x9e
442 594 m 0
 422 594 405 611 405 631 c 0
 405 650 422 667 442 667 c 0
 461 667 478 650 478 631 c 0
 478 611 461 594 442 594 c 0
752 529 m 1
 585 0 l 1
 510 0 l 1
 380 466 l 1xce
 250 0 l 1
 174 0 l 1
 6 529 l 1
 77 529 l 1x9e
 213 57 l 1
 342 528 l 1
 421 528 l 1xae
 551 62 l 1
 686 529 l 1
 752 529 l 1
EndSplineSet
EndChar

StartChar: Ygrave
Encoding: 7922 7922 110
Width: 568
GlyphClass: 2
Flags: MW
HStem: 0 21G<265 327 265 265> 670 20G<21 92 92 92 501 572 572 572> 736 94<205 277 205 319>
VStem: 265 62<0 275 275 275>
LayerCount: 2
Fore
SplineSet
277 736 m 1
 205 830 l 1
 266 830 l 1
 319 736 l 1
 277 736 l 1
327 276 m 1
 327 0 l 1
 265 0 l 1
 265 275 l 1
 21 690 l 1
 92 690 l 1
 299 336 l 1
 501 690 l 1
 572 690 l 1
 327 276 l 1
EndSplineSet
Position2: "'cpsp' Capital Spacing in Latin lookup 0 subtable" dx=5 dy=0 dh=10 dv=0
EndChar

StartChar: ygrave
Encoding: 7923 7923 225
Width: 492
GlyphClass: 2
Flags: MW
HStem: -210 52<84 110 80.5 130.5> 509 20G<6 76 76 76 417 485 485 485> 580 110<151 230 151 273>
VStem: 6 479<529 529>
LayerCount: 2
Fore
SplineSet
230 580 m 1
 151 690 l 1
 212 690 l 1
 273 580 l 1
 230 580 l 1
485 529 m 1
 273 -28 l 2
 219 -168 168 -210 93 -210 c 0
 75 -210 64 -210 52 -207 c 1
 52 -156 l 1
 65 -158 75 -158 86 -158 c 0
 134 -158 170 -133 204 -48 c 2
 215 -20 l 1
 6 529 l 1
 76 529 l 1
 247 46 l 1
 417 529 l 1
 485 529 l 1
EndSplineSet
EndChar

StartChar: endash
Encoding: 8211 8211 268
Width: 500
Flags: MW
HStem: 270 43<70 430 70 430>
VStem: 70 360<270 313 270 313>
LayerCount: 2
Fore
SplineSet
430 270 m 1
 70 270 l 1
 70 313 l 1
 430 313 l 1
 430 270 l 1
EndSplineSet
EndChar

StartChar: emdash
Encoding: 8212 8212 267
Width: 1000
Flags: MW
HStem: 270 43<70 930 70 930>
VStem: 70 860<270 313 270 313>
LayerCount: 2
Fore
SplineSet
930 270 m 1
 70 270 l 1
 70 313 l 1
 930 313 l 1
 930 270 l 1
EndSplineSet
EndChar

StartChar: quoteleft
Encoding: 8216 8216 277
Width: 197
Flags: MW
HStem: 715 20G<126 181 181 181>
VStem: 39 142
LayerCount: 2
Fore
SplineSet
39 495 m 1
 126 735 l 1
 181 735 l 1
 106 487 l 1
 39 487 l 1
 39 495 l 1
EndSplineSet
EndChar

StartChar: quoteright
Encoding: 8217 8217 278
Width: 197
Flags: MW
HStem: 715 20G<91 158 158 158>
VStem: 16 142
LayerCount: 2
Fore
SplineSet
158 727 m 1
 72 487 l 1
 16 487 l 1
 91 735 l 1
 158 735 l 1
 158 727 l 1
EndSplineSet
EndChar

StartChar: quotesinglbase
Encoding: 8218 8218 279
Width: 194
Flags: MW
HStem: -119 191<-20 113 -20 113>
VStem: -20 133
LayerCount: 2
Fore
SplineSet
113 63 m 1
 38 -119 l 1
 -20 -119 l 1
 46 72 l 1
 113 72 l 1
 113 63 l 1
EndSplineSet
EndChar

StartChar: quotedblleft
Encoding: 8220 8220 275
Width: 337
Flags: MW
HStem: 487 248<39 181 39 181 179 179 179 181 125 246>
VStem: 39 282<487 735 495 735>
LayerCount: 2
Fore
SplineSet
39 495 m 1
 125 735 l 1
 181 735 l 1
 106 487 l 1
 39 487 l 1
 39 495 l 1
179 495 m 1
 265 735 l 1
 321 735 l 1
 246 487 l 1
 179 487 l 1
 179 495 l 1
EndSplineSet
EndChar

StartChar: quotedblright
Encoding: 8221 8221 276
Width: 337
Flags: MW
HStem: 487 248<16 158 16 158 156 156 156 158 91 212> 715 20G<91 158 158 158 231 298 298 298>
VStem: 16 282<487 727>
LayerCount: 2
Fore
SplineSet
158 727 m 1x60
 72 487 l 1
 16 487 l 1xa0
 91 735 l 1
 158 735 l 1
 158 727 l 1x60
298 727 m 1
 212 487 l 1
 156 487 l 1
 231 735 l 1
 298 735 l 1
 298 727 l 1
EndSplineSet
EndChar

StartChar: quotedblbase
Encoding: 8222 8222 274
Width: 326
Flags: MW
HStem: -119 191<-20 113 -20 113 112 112 112 113 46 170>
VStem: -20 266<-119 63>
LayerCount: 2
Fore
SplineSet
113 63 m 1
 38 -119 l 1
 -20 -119 l 1
 46 72 l 1
 113 72 l 1
 113 63 l 1
246 63 m 1
 170 -119 l 1
 112 -119 l 1
 178 72 l 1
 245 72 l 1
 246 63 l 1
EndSplineSet
EndChar

StartChar: dagger
Encoding: 8224 8224 317
Width: 550
Flags: MW
HStem: 387.5 52 670 20G<238 312 312 312>
VStem: 242.5 65.5
LayerCount: 2
Fore
SplineSet
487 385 m 1
 304 390 l 1
 312 -160 l 1
 239 -160 l 1
 246 390 l 1
 64 385 l 1
 64 442 l 1
 246 437 l 1
 238 690 l 1
 312 690 l 1
 304 437 l 1
 487 442 l 1
 487 385 l 1
EndSplineSet
EndChar

StartChar: daggerdbl
Encoding: 8225 8225 318
Width: 550
Flags: MW
HStem: 89.5 52 387.5 52 670 20G<238 312 312 312>
VStem: 242.5 65.5 246 58<92 92 139 390>
LayerCount: 2
Fore
SplineSet
304 390 m 1xe8
 304 139 l 1
 487 144 l 1
 487 87 l 1
 304 92 l 1
 312 -160 l 1xe8
 239 -160 l 1
 246 92 l 1xf0
 64 87 l 1
 64 144 l 1
 246 139 l 1
 246 390 l 1
 64 385 l 1
 64 442 l 1
 246 437 l 1
 238 690 l 1
 312 690 l 1
 304 437 l 1
 487 442 l 1
 487 385 l 1
 304 390 l 1xe8
EndSplineSet
EndChar

StartChar: bullet
Encoding: 8226 8226 245
Width: 293
Flags: MW
HStem: 223 164<123 169.5>
VStem: 65 163<281.5 328.5>
LayerCount: 2
Fore
SplineSet
146 387 m 0
 193 387 228 352 228 305 c 0
 228 258 193 223 146 223 c 0
 100 223 65 258 65 305 c 0
 65 352 100 387 146 387 c 0
EndSplineSet
EndChar

StartChar: ellipsis
Encoding: 8230 8230 248
Width: 519
Flags: MW
HStem: -14 95<72 99.5 234.5 261.5 397 424.5>
VStem: 38 95<20 47.5> 201 95<20 47.5> 363 95<20 47.5>
LayerCount: 2
Fore
SplineSet
86 81 m 0
 113 81 133 61 133 34 c 0
 133 6 113 -14 86 -14 c 0
 58 -14 38 6 38 34 c 0
 38 61 58 81 86 81 c 0
248 81 m 0
 275 81 296 61 296 34 c 0
 296 6 275 -14 248 -14 c 0
 221 -14 201 6 201 34 c 0
 201 61 221 81 248 81 c 0
411 81 m 0
 438 81 458 61 458 34 c 0
 458 6 438 -14 411 -14 c 0
 383 -14 363 6 363 34 c 0
 363 61 383 81 411 81 c 0
EndSplineSet
EndChar

StartChar: perthousand
Encoding: 8240 8240 304
Width: 1050
Flags: MW
HStem: -14 45<507.5 556.5 507.5 575 833 882.5> 0 21G<107 171 107 107> 259 45<507.5 556.5 833 882.5> 384 45<168.5 217.5 168.5 236> 656 46<168.5 217.5> 670 20G<554 619 619 619>
VStem: 52 62<508 578.5 508 590.5> 272 61<508 578.5> 391 62<110 180.5 110 192.5> 611 61<110 180.5> 717 62<110 180.5 110 192.5> 937 61<110 180.5>
LayerCount: 2
Fore
SplineSet
333 543 m 0xbbf0
 333 449 279 384 193 384 c 0
 107 384 52 449 52 543 c 0
 52 638 107 702 193 702 c 0
 279 702 333 638 333 543 c 0xbbf0
619 690 m 1x5640
 171 0 l 1
 107 0 l 1
 554 690 l 1
 619 690 l 1x5640
114 543 m 0
 114 473 144 429 193 429 c 0
 242 429 272 473 272 543 c 0
 272 614 242 656 193 656 c 0x1b
 144 656 114 614 114 543 c 0
532 304 m 0xa0f0
 618 304 672 240 672 145 c 0
 672 51 618 -14 532 -14 c 0
 446 -14 391 51 391 145 c 0
 391 240 446 304 532 304 c 0xa0f0
858 304 m 0
 944 304 998 240 998 145 c 0
 998 51 944 -14 858 -14 c 0
 771 -14 717 51 717 145 c 0
 717 240 771 304 858 304 c 0
532 31 m 0
 581 31 611 75 611 145 c 0
 611 216 581 259 532 259 c 0
 483 259 453 216 453 145 c 0
 453 75 483 31 532 31 c 0
858 31 m 0
 907 31 937 75 937 145 c 0
 937 216 907 259 858 259 c 0
 808 259 779 216 779 145 c 0
 779 75 808 31 858 31 c 0
EndSplineSet
EndChar

StartChar: guilsinglleft
Encoding: 8249 8249 272
Width: 385
Flags: MW
HStem: 82 332<264 321 264 321>
VStem: 127 194<82 248>
LayerCount: 2
Fore
SplineSet
321 414 m 1
 184 248 l 1
 321 82 l 1
 264 82 l 1
 127 248 l 1
 264 414 l 1
 321 414 l 1
EndSplineSet
EndChar

StartChar: guilsinglright
Encoding: 8250 8250 273
Width: 385
Flags: MW
HStem: 82 332<65 121 65 121>
VStem: 65 193<82 248 248 414>
LayerCount: 2
Fore
SplineSet
258 248 m 1
 121 82 l 1
 65 82 l 1
 202 248 l 1
 65 414 l 1
 121 414 l 1
 258 248 l 1
EndSplineSet
EndChar

StartChar: fraction
Encoding: 8260 8260 242
Width: 174
Flags: MW
HStem: 0 21G<-169 -105 -169 -169> 670 20G<279 343 343 343>
VStem: -169 512
LayerCount: 2
Fore
SplineSet
-105 0 m 1
 -169 0 l 1
 279 690 l 1
 343 690 l 1
 -105 0 l 1
EndSplineSet
EndChar

StartChar: Euro
Encoding: 8364 8364 284
Width: 561
Flags: MW
HStem: -14 50<310 391.5> 268 42<27 86 27 88 17 86 158 446 158 158> 378 42<48 86 38 89 158 471> 654 50<320 399>
VStem: 85 69<342 346 340 348>
LayerCount: 2
Fore
SplineSet
446 268 m 1
 158 268 l 1
 175 105 249 36 371 36 c 0
 425 36 471 48 515 76 c 1
 515 23 l 1
 466 -5 417 -14 366 -14 c 0
 207 -14 107 63 88 268 c 1
 17 268 l 1
 27 310 l 1
 86 310 l 1
 85 342 l 2
 85 354 85 366 86 378 c 1
 38 378 l 1
 48 420 l 1
 89 420 l 1
 112 614 224 704 374 704 c 0
 446 704 498 685 537 643 c 1
 505 601 l 1
 470 638 426 654 372 654 c 0
 268 654 178 592 158 420 c 1
 482 420 l 1
 471 378 l 1
 155 378 l 1
 154 346 l 2
 154 334 154 322 155 310 c 1
 455 310 l 1
 446 268 l 1
EndSplineSet
EndChar

StartChar: trademark
Encoding: 8482 8482 323
Width: 531
Flags: MW
HStem: 459 34<354 354 354 373 332 354> 614 45<427 427> 627 33<22 99 22 217 139 217 139 139>
VStem: 99 40<456 627 456 627> 242 37.5 426 38
LayerCount: 2
Fore
SplineSet
217 660 m 1x3c
 217 627 l 1
 139 627 l 1
 139 456 l 1
 99 456 l 1
 99 627 l 1
 22 627 l 1
 22 660 l 1
 217 660 l 1x3c
464 659 m 1xdc
 464 456 l 1
 425 456 l 1
 427 614 l 1x5c
 373 459 l 1
 332 459 l 1
 279 613 l 1
 280 456 l 1
 242 456 l 1
 242 659 l 1
 300 659 l 1xbc
 354 493 l 1
 407 659 l 1
 464 659 l 1xdc
EndSplineSet
EndChar

StartChar: partialdiff
Encoding: 8706 8706 302
Width: 561
Flags: MW
HStem: -14 49<225 325 225 338> 430 49<229 316.5> 709 49<220 318>
VStem: 46 68<164.5 287.5 164.5 296> 439 66
LayerCount: 2
Fore
SplineSet
255 758 m 0
 451 758 505 560 505 341 c 0
 505 95 413 -14 263 -14 c 0
 143 -14 46 73 46 225 c 0
 46 367 131 479 282 479 c 0
 352 479 408 447 436 399 c 1
 429 566 385 709 251 709 c 0
 189 709 150 693 106 656 c 1
 78 695 l 1
 131 740 183 758 255 758 c 0
268 35 m 0
 382 35 435 138 439 328 c 1
 405 400 349 430 284 430 c 0
 174 430 114 347 114 228 c 0
 114 101 182 35 268 35 c 0
EndSplineSet
EndChar

StartChar: emptyset
Encoding: 8709 8709 290
Width: 838
Flags: MW
HStem: -27 44<376.5 510.5 376.5 523.5> -10 21G<85 85> 669 20G<784 784> 693 44<328 461.5>
VStem: 43 48<313 449 313 462> 747 48<260.5 397>
LayerCount: 2
Fore
SplineSet
784 689 m 1xac
 703 608 l 1
 760 541 795 453 795 355 c 0
 795 142 628 -27 419 -27 c 0
 321 -27 233 10 166 71 c 1xac
 85 -10 l 1
 54 21 l 1
 136 103 l 1
 78 170 43 258 43 355 c 0
 43 569 210 737 419 737 c 0
 517 737 605 700 672 639 c 1
 753 720 l 1x5c
 784 689 l 1xac
91 355 m 0
 91 271 120 194 168 135 c 1
 639 606 l 1
 581 660 504 693 419 693 c 0x9c
 237 693 91 543 91 355 c 0
419 17 m 0
 602 17 747 166 747 355 c 0
 747 439 718 516 670 574 c 1
 199 104 l 1
 257 50 334 17 419 17 c 0
EndSplineSet
EndChar

StartChar: product
Encoding: 8719 8719 307
Width: 561
Flags: MW
HStem: 638 52<36 95 36 526 157 405 157 157 467 526 467 467>
VStem: 95 62<-110 638 -110 638> 405 62<-110 638 -110 638>
LayerCount: 2
Fore
SplineSet
526 638 m 1
 467 638 l 1
 467 -110 l 1
 405 -110 l 1
 405 638 l 1
 157 638 l 1
 157 -110 l 1
 95 -110 l 1
 95 638 l 1
 36 638 l 1
 36 690 l 1
 526 690 l 1
 526 638 l 1
EndSplineSet
EndChar

StartChar: summation
Encoding: 8721 8721 309
Width: 561
Flags: MW
HStem: -110 52<111 521 111 521> 638 52<142 515 142 142>
VStem: 40 481<-110 -60 -60 -60>
LayerCount: 2
Fore
SplineSet
521 -58 m 1
 521 -110 l 1
 40 -110 l 1
 40 -60 l 1
 320 301 l 1
 70 640 l 1
 70 690 l 1
 515 690 l 1
 515 638 l 1
 142 638 l 1
 392 300 l 1
 111 -58 l 1
 521 -58 l 1
EndSplineSet
EndChar

StartChar: minus
Encoding: 8722 8722 299
Width: 561
Flags: MW
HStem: 297 43<74 487 74 487>
VStem: 74 413<297 340 297 340>
LayerCount: 2
Fore
SplineSet
487 297 m 1
 74 297 l 1
 74 340 l 1
 487 340 l 1
 487 297 l 1
EndSplineSet
EndChar

StartChar: radical
Encoding: 8730 8730 308
Width: 561
Flags: MW
HStem: -160 54<282 282 282 312 254 282> 267 43<59 126 59 160>
VStem: 59 469
LayerCount: 2
Fore
SplineSet
528 780 m 1
 312 -160 l 1
 254 -160 l 1
 126 267 l 1
 59 267 l 1
 59 310 l 1
 160 310 l 1
 282 -106 l 1
 480 780 l 1
 528 780 l 1
EndSplineSet
EndChar

StartChar: infinity
Encoding: 8734 8734 294
Width: 989
Flags: MW
HStem: -14 49<222.5 310.5 222.5 323.5 678.5 767> 495 49<222.5 310.5 678.5 767>
VStem: 30 68<193 337 193 343> 891 68<193 337>
LayerCount: 2
Fore
SplineSet
720 544 m 0
 878 544 959 421 959 265 c 0
 959 109 878 -14 720 -14 c 0
 616 -14 537 45 493 167 c 1
 448 45 378 -14 269 -14 c 0
 111 -14 30 109 30 265 c 0
 30 421 111 544 269 544 c 0
 373 544 452 485 496 365 c 1
 540 484 611 544 720 544 c 0
269 35 m 0
 352 35 437 96 455 265 c 1
 427 434 352 495 269 495 c 0
 176 495 98 409 98 265 c 0
 98 121 176 35 269 35 c 0
720 35 m 0
 814 35 891 121 891 265 c 0
 891 409 814 495 720 495 c 0
 637 495 552 434 534 265 c 1
 562 96 637 35 720 35 c 0
EndSplineSet
EndChar

StartChar: integral
Encoding: 8747 8747 295
Width: 561
Flags: MW
HStem: -160 43<217.5 248.5 217.5 261.5> 711 43<303.5 334.5>
VStem: 205 48<554 624.5 554 639.5> 299 48<-30.5 40.5>
LayerCount: 2
Fore
SplineSet
323 754 m 0
 350 754 372 748 394 730 c 1
 380 690 l 1
 361 707 345 711 324 711 c 0
 283 711 253 669 253 580 c 0
 253 528 258 476 299 303 c 1
 334 149 347 80 347 14 c 0
 347 -105 293 -160 230 -160 c 0
 202 -160 180 -154 158 -136 c 1
 173 -96 l 1
 191 -113 207 -117 228 -117 c 0
 269 -117 299 -75 299 14 c 0
 299 67 294 118 253 292 c 1
 218 445 205 514 205 580 c 0
 205 699 259 754 323 754 c 0
EndSplineSet
EndChar

StartChar: approxequal
Encoding: 8776 8776 287
Width: 561
Flags: MW
HStem: 152 46<372 405.5 372 409.5> 226 46<156 189> 319 46<372 405.5 372 409.5> 393 46<156 189>
VStem: 59 443<199 227 227 367>
LayerCount: 2
Fore
SplineSet
177 439 m 0
 215 439 240 427 291 400 c 0
 333 377 357 365 387 365 c 0
 424 365 445 381 469 419 c 1
 502 394 l 1
 471 344 436 319 383 319 c 0xa8
 346 319 321 332 270 359 c 0
 228 381 204 393 174 393 c 0
 138 393 116 377 92 339 c 1
 59 367 l 1
 90 417 126 439 177 439 c 0
177 272 m 0xe8
 215 272 240 259 291 232 c 0
 333 210 357 198 387 198 c 0
 424 198 445 214 469 252 c 1
 502 227 l 1
 471 176 436 152 383 152 c 0xa8
 346 152 321 164 270 191 c 0
 228 214 204 226 174 226 c 0
 138 226 116 210 92 172 c 1
 59 199 l 1
 90 250 126 272 177 272 c 0xe8
EndSplineSet
EndChar

StartChar: notequal
Encoding: 8800 8800 301
Width: 561
Flags: MW
HStem: 198 43<71 187 71 212 262 491 71 237> 391 43<71 299 71 324 374 491 71 349> 391 140<71 431 381 431 381 491 349 431>
VStem: 71 420<198 241 198 241 391 434 198 434>
LayerCount: 2
Fore
SplineSet
349 391 m 1xd0
 262 241 l 1
 491 241 l 1
 491 198 l 1
 237 198 l 1
 180 101 l 1
 130 101 l 1
 187 198 l 1
 71 198 l 1
 71 241 l 1
 212 241 l 1
 299 391 l 1
 71 391 l 1
 71 434 l 1
 324 434 l 1xd0
 381 531 l 1
 431 531 l 1xb0
 374 434 l 1
 491 434 l 1
 491 391 l 1
 349 391 l 1xd0
EndSplineSet
EndChar

StartChar: lessequal
Encoding: 8804 8804 297
Width: 561
Flags: MW
HStem: 0 43<83 496 83 496>
VStem: 83 49<295 295 295 321 295 321>
LayerCount: 2
Fore
SplineSet
496 442 m 1
 132 295 l 1
 496 151 l 1
 496 98 l 1
 83 271 l 1
 83 321 l 1
 496 493 l 1
 496 442 l 1
83 43 m 1
 496 43 l 1
 496 0 l 1
 83 0 l 1
 83 43 l 1
EndSplineSet
EndChar

StartChar: greaterequal
Encoding: 8805 8805 293
Width: 561
Flags: MW
HStem: 0 43<66 478 66 478>
VStem: 429 49<296 296>
LayerCount: 2
Fore
SplineSet
478 321 m 1
 478 271 l 1
 66 98 l 1
 66 150 l 1
 429 296 l 1
 66 440 l 1
 66 493 l 1
 478 321 l 1
66 43 m 1
 478 43 l 1
 478 0 l 1
 66 0 l 1
 66 43 l 1
EndSplineSet
EndChar

StartChar: lozenge
Encoding: 9674 9674 310
Width: 496
Flags: MW
HStem: 0 46<248 248 248 273 223 248> 644 46<248 248>
VStem: 56 384<345 345>
LayerCount: 2
Fore
SplineSet
440 345 m 1
 273 0 l 1
 223 0 l 1
 56 345 l 1
 223 690 l 1
 273 690 l 1
 440 345 l 1
389 345 m 1
 248 644 l 1
 106 345 l 1
 248 46 l 1
 389 345 l 1
EndSplineSet
EndChar

StartChar: fi
Encoding: 64257 64257 230
Width: 475
GlyphClass: 3
Flags: MW
HStem: 0 21G<80 142 80 80 337 399 337 337> 475 50<23 80 23 80 142 337> 699.54 49.46 699.54 54.46
VStem: 80 62<0 475 0 475 525 550 550 555> 337 62<0 475 475 475>
LayerCount: 2
Fore
SplineSet
399 525 m 1xec
 399 0 l 1
 337 0 l 1
 337 475 l 1
 142 475 l 1
 142 0 l 1
 80 0 l 1
 80 475 l 1
 23 475 l 1
 23 525 l 1
 80 525 l 1
 80 550 l 2
 80 568 80 591 82 610 c 0
 92 699 157 754 282 754 c 0xdc
 303 754 319 752 337 749 c 1
 337 697 l 1
 204 710 152 672 144 607 c 0
 142 590 142 570 142 555 c 2
 142 525 l 1
 399 525 l 1xec
EndSplineSet
Ligature2: "'liga' Standard Ligatures in Latin lookup 4 subtable" f i
EndChar

StartChar: fl
Encoding: 64258 64258 231
Width: 460
GlyphClass: 3
Flags: MW
HStem: -4 49<365 435> 0 21G<70 132 70 70> 475 50<23 70 23 70 132 240> 705 49<209 258.5> 715 20G<372 372>
VStem: 70 62<0 475 0 475 525 550 550 555> 310 62<138 140 140 697 697 697>
LayerCount: 2
Fore
SplineSet
373 83 m 0xb6
 375 49 390 40 435 45 c 1
 435 -1 l 1
 419 -4 402 -4 386 -4 c 0
 344 -4 314 10 311 67 c 0xb6
 310 85 310 106 310 138 c 2
 310 697 l 1
 292 703 271 705 246 705 c 0
 172 705 140 660 134 607 c 0
 132 590 132 570 132 555 c 2
 132 525 l 1
 240 525 l 1
 240 475 l 1
 132 475 l 1
 132 0 l 1
 70 0 l 1
 70 475 l 1
 23 475 l 1
 23 525 l 1
 70 525 l 1
 70 550 l 2
 70 568 70 591 72 610 c 0
 82 699 140 754 248 754 c 0x76
 299 754 340 748 372 735 c 1xae
 372 140 l 2
 372 117 372 99 373 83 c 0xb6
EndSplineSet
Ligature2: "'liga' Standard Ligatures in Latin lookup 4 subtable" f l
EndChar
